<svg xmlns="http://www.w3.org/2000/svg" xmlns:xlink="http://www.w3.org/1999/xlink" width="500" zoomAndPan="magnify" viewBox="0 0 375 374.999991" height="500" preserveAspectRatio="xMidYMid meet" version="1.0"><defs><clipPath id="cae7b5843f"><path d="M 64.296875 64.296875 L 311.046875 64.296875 L 311.046875 311.046875 L 64.296875 311.046875 Z M 64.296875 64.296875 " clip-rule="nonzero"/></clipPath></defs><path fill="#100f0d" d="M 173.984375 172.851562 C 174.066406 173.085938 174.152344 173.328125 174.234375 173.574219 C 174.765625 175.117188 175.339844 176.832031 175.953125 178.730469 L 179.9375 191.257812 L 167.71875 191.085938 C 167.730469 191.054688 167.742188 191.019531 167.753906 190.980469 C 168.171875 189.726562 168.589844 188.445312 168.972656 187.195312 L 173.230469 174.9375 C 173.496094 174.191406 173.75 173.496094 173.984375 172.851562 Z M 159.265625 208.796875 C 159.335938 208.800781 159.40625 208.804688 159.476562 208.804688 C 160.039062 208.804688 160.601562 208.65625 161.117188 208.378906 C 161.714844 208.058594 162.199219 207.570312 162.726562 206.535156 L 165.589844 197.289062 L 182.203125 197.289062 L 184.652344 206.949219 C 184.828125 207.386719 185.546875 208.820312 187.769531 208.671875 C 189.394531 208.578125 190.5625 207.515625 190.738281 205.957031 C 190.765625 205.699219 190.742188 205.441406 190.675781 205.191406 L 188.382812 196.777344 C 188.558594 196.652344 188.707031 196.515625 188.828125 196.382812 C 189.296875 195.859375 189.546875 195.207031 189.546875 194.496094 C 189.546875 193.863281 189.34375 193.25 188.949219 192.703125 C 188.542969 192.15625 187.980469 191.769531 187.316406 191.578125 C 187.210938 191.542969 187.105469 191.523438 186.996094 191.515625 C 186.355469 189.675781 185.761719 187.90625 185.210938 186.203125 C 184.523438 184.050781 183.875 182.074219 183.285156 180.296875 C 182.507812 177.828125 181.785156 175.628906 181.109375 173.6875 C 180.429688 171.742188 179.824219 170.054688 179.285156 168.648438 C 178.378906 166.273438 176.867188 163.117188 174.113281 163.117188 C 173.265625 163.117188 172.007812 163.4375 170.835938 164.964844 C 170.203125 165.792969 169.570312 166.933594 168.90625 168.453125 C 168.296875 169.835938 167.664062 171.519531 166.980469 173.507812 C 166.332031 175.433594 165.601562 177.621094 164.804688 180.046875 L 160.472656 192.746094 L 156.585938 205.585938 C 156.472656 206.523438 156.75 207.371094 157.34375 207.949219 C 157.855469 208.457031 158.515625 208.75 159.265625 208.796875 " fill-opacity="1" fill-rule="nonzero"/><path fill="#100f0d" d="M 198.539062 169.90625 L 201.457031 169.757812 C 202.210938 169.722656 202.882812 169.710938 203.46875 169.710938 L 205.144531 169.710938 C 205.136719 170.316406 205.125 171.019531 205.109375 171.8125 C 205.070312 173.726562 205.019531 175.90625 204.933594 178.351562 L 204.65625 186.09375 C 204.558594 188.808594 204.472656 191.378906 204.40625 193.8125 C 204.339844 196.210938 204.261719 198.375 204.160156 200.28125 C 204.113281 201.210938 204.0625 202.007812 204.023438 202.683594 C 203.949219 202.683594 203.875 202.683594 203.792969 202.683594 L 201.136719 202.683594 C 200.132812 202.683594 199.066406 202.644531 197.824219 202.582031 C 196.800781 202.582031 195.558594 203.214844 195.140625 204.96875 C 194.75 206.554688 195.570312 207.980469 197.175781 208.519531 C 197.378906 208.585938 197.582031 208.621094 197.789062 208.625 L 215.726562 208.929688 C 217.367188 208.929688 218.585938 207.824219 218.769531 206.164062 C 218.878906 205.105469 218.492188 204.394531 218.148438 203.972656 C 217.785156 203.539062 217.101562 202.992188 215.582031 202.886719 C 214.777344 202.949219 213.984375 202.945312 213.019531 202.882812 C 212.324219 202.882812 211.539062 202.847656 210.660156 202.785156 C 210.496094 202.773438 210.332031 202.761719 210.171875 202.75 C 210.210938 202.105469 210.25 201.351562 210.296875 200.492188 C 210.398438 198.558594 210.488281 196.347656 210.550781 193.871094 C 210.617188 191.421875 210.703125 188.832031 210.804688 186.097656 C 210.902344 183.347656 210.988281 180.742188 211.054688 178.273438 L 211.230469 171.753906 C 211.25 170.925781 211.265625 170.195312 211.28125 169.574219 C 212.324219 169.542969 213.382812 169.597656 215.824219 169.8125 C 216.3125 169.8125 217.9375 169.648438 218.671875 167.546875 C 219.050781 166.421875 218.726562 165.585938 218.496094 165.191406 C 218.210938 164.691406 217.625 164.050781 216.3125 163.785156 C 215.300781 163.644531 213.707031 163.53125 211.527344 163.4375 C 209.378906 163.359375 207.21875 163.359375 205.035156 163.4375 C 202.871094 163.53125 200.933594 163.660156 199.230469 163.824219 C 197.625 163.984375 195.199219 164.226562 194.925781 165.847656 C 194.476562 166.96875 194.75 168.15625 195.65625 169.011719 C 196.175781 169.507812 197.09375 170.09375 198.539062 169.90625 " fill-opacity="1" fill-rule="nonzero"/><path fill="#100f0d" d="M 230.503906 230.5 L 144.902344 230.5 L 144.902344 144.90625 L 230.503906 144.90625 Z M 234.59375 136.726562 L 140.8125 136.726562 C 138.554688 136.726562 136.726562 138.558594 136.726562 140.816406 L 136.726562 234.589844 C 136.726562 236.851562 138.554688 238.679688 140.8125 238.679688 L 234.59375 238.679688 C 236.851562 238.679688 238.679688 236.851562 238.679688 234.589844 L 238.679688 140.816406 C 238.679688 138.558594 236.851562 136.726562 234.59375 136.726562 " fill-opacity="1" fill-rule="nonzero"/><g clip-path="url(#cae7b5843f)"><path fill="#100f0d" d="M 249.046875 249.042969 L 126.359375 249.042969 L 126.359375 126.363281 L 249.046875 126.363281 Z M 306.996094 230.5 L 257.222656 230.5 L 257.222656 207.421875 L 281.632812 207.421875 C 283.890625 207.421875 285.71875 205.59375 285.71875 203.335938 C 285.71875 201.074219 283.890625 199.242188 281.632812 199.242188 L 257.222656 199.242188 L 257.222656 176.164062 L 306.996094 176.164062 C 309.257812 176.164062 311.085938 174.332031 311.085938 172.074219 C 311.085938 169.8125 309.257812 167.980469 306.996094 167.980469 L 257.222656 167.980469 L 257.222656 144.90625 L 281.632812 144.90625 C 283.890625 144.90625 285.71875 143.078125 285.71875 140.816406 C 285.71875 138.558594 283.890625 136.726562 281.632812 136.726562 L 257.222656 136.726562 L 257.222656 122.277344 C 257.222656 120.015625 255.394531 118.183594 253.132812 118.183594 L 238.679688 118.183594 L 238.679688 68.40625 C 238.679688 66.144531 236.851562 64.316406 234.59375 64.316406 C 232.332031 64.316406 230.503906 66.144531 230.503906 68.40625 L 230.503906 118.183594 L 207.421875 118.183594 L 207.421875 93.777344 C 207.421875 91.515625 205.59375 89.6875 203.332031 89.6875 C 201.070312 89.6875 199.242188 91.515625 199.242188 93.777344 L 199.242188 118.183594 L 176.164062 118.183594 L 176.164062 68.40625 C 176.164062 66.144531 174.335938 64.316406 172.074219 64.316406 C 169.8125 64.316406 167.984375 66.144531 167.984375 68.40625 L 167.984375 118.183594 L 144.902344 118.183594 L 144.902344 93.777344 C 144.902344 91.515625 143.074219 89.6875 140.8125 89.6875 C 138.554688 89.6875 136.726562 91.515625 136.726562 93.777344 L 136.726562 118.183594 L 122.273438 118.183594 C 120.011719 118.183594 118.183594 120.015625 118.183594 122.277344 L 118.183594 136.726562 L 68.410156 136.726562 C 66.148438 136.726562 64.320312 138.558594 64.320312 140.816406 C 64.320312 143.078125 66.148438 144.90625 68.410156 144.90625 L 118.183594 144.90625 L 118.183594 167.980469 L 93.78125 167.980469 C 91.519531 167.980469 89.6875 169.8125 89.6875 172.074219 C 89.6875 174.332031 91.519531 176.164062 93.78125 176.164062 L 118.183594 176.164062 L 118.183594 199.242188 L 68.410156 199.242188 C 66.148438 199.242188 64.320312 201.074219 64.320312 203.335938 C 64.320312 205.59375 66.148438 207.421875 68.410156 207.421875 L 118.183594 207.421875 L 118.183594 230.5 L 93.78125 230.5 C 91.519531 230.5 89.6875 232.328125 89.6875 234.589844 C 89.6875 236.851562 91.519531 238.679688 93.78125 238.679688 L 118.183594 238.679688 L 118.183594 253.132812 C 118.183594 255.390625 120.011719 257.222656 122.273438 257.222656 L 136.726562 257.222656 L 136.726562 307 C 136.726562 309.261719 138.554688 311.089844 140.8125 311.089844 C 143.074219 311.089844 144.902344 309.261719 144.902344 307 L 144.902344 257.222656 L 167.984375 257.222656 L 167.984375 281.628906 C 167.984375 283.890625 169.8125 285.71875 172.074219 285.71875 C 174.335938 285.71875 176.164062 283.890625 176.164062 281.628906 L 176.164062 257.222656 L 199.242188 257.222656 L 199.242188 307 C 199.242188 309.261719 201.070312 311.089844 203.332031 311.089844 C 205.59375 311.089844 207.421875 309.261719 207.421875 307 L 207.421875 257.222656 L 230.503906 257.222656 L 230.503906 281.628906 C 230.503906 283.890625 232.332031 285.71875 234.59375 285.71875 C 236.851562 285.71875 238.679688 283.890625 238.679688 281.628906 L 238.679688 257.222656 L 253.132812 257.222656 C 255.394531 257.222656 257.222656 255.390625 257.222656 253.132812 L 257.222656 238.679688 L 306.996094 238.679688 C 309.257812 238.679688 311.085938 236.851562 311.085938 234.589844 C 311.085938 232.328125 309.257812 230.5 306.996094 230.5 " fill-opacity="1" fill-rule="nonzero"/></g></svg>