<svg xmlns="http://www.w3.org/2000/svg" xmlns:xlink="http://www.w3.org/1999/xlink" width="500" zoomAndPan="magnify" viewBox="0 0 375 374.999991" height="500" preserveAspectRatio="xMidYMid meet" version="1.0"><defs><clipPath id="a4849d0ad2"><path d="M 92 88.175781 L 283 88.175781 L 283 286.925781 L 92 286.925781 Z M 92 88.175781 " clip-rule="nonzero"/></clipPath><clipPath id="a02cdc5efd"><path d="M 62.761719 171 L 85 171 L 85 240 L 62.761719 240 Z M 62.761719 171 " clip-rule="nonzero"/></clipPath><clipPath id="cada6437c7"><path d="M 290 171 L 312.511719 171 L 312.511719 240 L 290 240 Z M 290 171 " clip-rule="nonzero"/></clipPath></defs><g clip-path="url(#a4849d0ad2)"><path fill="#000000" d="M 240.382812 286.910156 L 134.746094 286.910156 C 111.484375 286.910156 92.609375 268.046875 92.609375 244.945312 L 92.609375 176.511719 C 92.609375 153.261719 111.484375 134.402344 134.746094 134.402344 L 183.027344 134.402344 L 183.175781 118.316406 C 176.882812 116.414062 172.203125 110.566406 172.203125 103.546875 C 172.203125 95.066406 179.222656 88.195312 187.710938 88.195312 C 196.195312 88.195312 203.21875 95.066406 203.21875 103.546875 C 203.21875 110.566406 198.390625 116.5625 191.953125 118.460938 L 191.808594 134.402344 L 240.382812 134.402344 C 263.5 134.402344 282.371094 153.261719 282.371094 176.511719 L 282.371094 245.089844 C 282.371094 268.195312 263.5 286.910156 240.382812 286.910156 Z M 147.914062 220.527344 C 135.476562 220.527344 125.675781 210.730469 125.675781 198.445312 C 125.675781 186.015625 135.476562 176.21875 147.914062 176.21875 C 160.351562 176.21875 170.007812 186.015625 170.007812 198.445312 C 170.007812 210.730469 160.351562 220.527344 147.914062 220.527344 Z M 147.914062 184.992188 C 140.304688 184.992188 134.453125 190.84375 134.453125 198.445312 C 134.453125 205.902344 140.304688 211.753906 147.914062 211.753906 C 155.375 211.753906 161.375 205.902344 161.375 198.445312 C 161.375 190.84375 155.375 184.992188 147.914062 184.992188 Z M 227.359375 219.648438 C 214.925781 219.648438 204.976562 209.707031 204.976562 197.421875 C 204.976562 185.140625 214.925781 175.195312 227.359375 175.195312 C 239.503906 175.195312 249.453125 185.140625 249.453125 197.421875 C 249.453125 209.707031 239.503906 219.648438 227.359375 219.648438 Z M 227.359375 183.96875 C 219.753906 183.96875 213.753906 190.113281 213.753906 197.421875 C 213.753906 204.878906 219.753906 211.019531 227.359375 211.019531 C 234.820312 211.019531 240.675781 204.878906 240.675781 197.421875 C 240.675781 189.820312 234.675781 183.96875 227.359375 183.96875 Z M 185.953125 246.261719 C 177.613281 246.261719 170.300781 242.3125 166.203125 238.804688 C 164.300781 237.195312 164.15625 234.269531 165.765625 232.664062 C 167.375 230.90625 170.007812 230.613281 171.910156 232.371094 C 173.226562 233.539062 185.953125 243.628906 198.097656 232.515625 C 199.855469 230.90625 202.488281 230.90625 204.390625 232.664062 C 206 234.5625 206 237.195312 204.242188 238.949219 C 198.097656 244.214844 191.808594 246.261719 185.953125 246.261719 Z M 185.953125 246.261719 " fill-opacity="1" fill-rule="evenodd"/></g><g clip-path="url(#a02cdc5efd)"><path fill="#000000" d="M 83.832031 239.972656 L 82.074219 239.972656 C 71.539062 239.972656 62.761719 231.347656 62.761719 220.671875 L 62.761719 190.84375 C 62.761719 180.167969 71.539062 171.394531 82.074219 171.394531 L 84.125 171.394531 C 83.976562 173.003906 83.832031 174.757812 83.832031 176.511719 Z M 83.832031 239.972656 " fill-opacity="1" fill-rule="evenodd"/></g><g clip-path="url(#cada6437c7)"><path fill="#000000" d="M 292.90625 239.972656 L 291.152344 239.972656 L 291.152344 176.511719 C 291.152344 174.613281 291.003906 172.855469 290.859375 171.25 L 292.90625 171.25 C 303.734375 171.25 312.511719 179.875 312.511719 190.695312 L 312.511719 220.671875 C 312.511719 231.492188 303.734375 239.972656 292.90625 239.972656 Z M 292.90625 239.972656 " fill-opacity="1" fill-rule="evenodd"/></g></svg>