<svg xmlns="http://www.w3.org/2000/svg" xmlns:xlink="http://www.w3.org/1999/xlink" width="500" zoomAndPan="magnify" viewBox="0 0 375 374.999991" height="500" preserveAspectRatio="xMidYMid meet" version="1.0"><defs><clipPath id="01d7c673f6"><path d="M 76 116 L 299 116 L 299 295.390625 L 76 295.390625 Z M 76 116 " clip-rule="nonzero"/></clipPath><clipPath id="a9de9369b2"><path d="M 41.035156 159 L 87 159 L 87 241 L 41.035156 241 Z M 41.035156 159 " clip-rule="nonzero"/></clipPath><clipPath id="52fa20d1b7"><path d="M 288 159 L 334.285156 159 L 334.285156 241 L 288 241 Z M 288 159 " clip-rule="nonzero"/></clipPath><clipPath id="93aee7fe12"><path d="M 169 62.140625 L 206 62.140625 L 206 99 L 169 99 Z M 169 62.140625 " clip-rule="nonzero"/></clipPath></defs><g clip-path="url(#01d7c673f6)"><path fill="#000000" d="M 249.59375 295.375 L 125.558594 295.375 C 98.242188 295.375 76.082031 273.238281 76.082031 246.125 L 76.082031 165.808594 C 76.082031 138.523438 98.242188 116.386719 125.558594 116.386719 L 249.59375 116.386719 C 276.734375 116.386719 298.894531 138.523438 298.894531 165.808594 L 298.894531 246.292969 C 298.894531 273.410156 276.734375 295.375 249.59375 295.375 Z M 125.558594 126.855469 C 104.082031 126.855469 86.5625 144.359375 86.5625 165.808594 L 86.5625 246.292969 C 86.5625 267.746094 104.082031 285.078125 125.558594 285.078125 L 249.59375 285.078125 C 271.066406 285.078125 288.589844 267.746094 288.589844 246.292969 L 288.589844 165.808594 C 288.589844 144.359375 271.066406 126.855469 249.59375 126.855469 Z M 125.558594 126.855469 " fill-opacity="1" fill-rule="evenodd"/></g><g clip-path="url(#a9de9369b2)"><path fill="#000000" d="M 81.40625 240.289062 L 63.710938 240.289062 C 51.34375 240.289062 41.035156 230.164062 41.035156 217.636719 L 41.035156 182.628906 C 41.035156 170.101562 51.34375 159.804688 63.710938 159.804688 L 81.40625 159.804688 C 84.15625 159.804688 86.5625 162.207031 86.5625 164.953125 C 86.5625 167.871094 84.15625 170.273438 81.40625 170.273438 L 63.710938 170.273438 C 56.839844 170.273438 51.34375 175.933594 51.34375 182.972656 L 51.34375 218.152344 C 51.34375 225.015625 56.839844 230.507812 63.710938 230.507812 L 81.40625 230.507812 C 84.15625 230.507812 86.5625 232.910156 86.5625 235.828125 C 86.5625 238.742188 84.15625 240.289062 81.40625 240.289062 Z M 81.40625 240.289062 " fill-opacity="1" fill-rule="evenodd"/></g><g clip-path="url(#52fa20d1b7)"><path fill="#000000" d="M 311.265625 240.289062 L 293.914062 240.289062 C 290.992188 240.289062 288.589844 237.886719 288.589844 235.140625 C 288.589844 232.222656 290.992188 229.820312 293.914062 229.820312 L 311.265625 229.820312 C 318.308594 229.820312 323.976562 224.328125 323.976562 217.464844 L 323.976562 182.628906 C 323.976562 175.761719 318.308594 170.101562 311.265625 170.101562 L 293.914062 170.101562 C 290.992188 170.101562 288.589844 167.699219 288.589844 164.78125 C 288.589844 161.863281 290.992188 159.632812 293.914062 159.632812 L 311.265625 159.632812 C 323.976562 159.632812 334.285156 169.757812 334.285156 182.457031 L 334.285156 217.636719 C 334.285156 230.335938 323.976562 240.289062 311.265625 240.289062 Z M 311.265625 240.289062 " fill-opacity="1" fill-rule="evenodd"/></g><path fill="#000000" d="M 141.019531 217.464844 C 126.417969 217.464844 114.90625 205.964844 114.90625 191.550781 C 114.90625 176.964844 126.417969 165.46875 141.019531 165.46875 C 155.621094 165.46875 166.960938 176.964844 166.960938 191.550781 C 166.960938 205.964844 155.621094 217.464844 141.019531 217.464844 Z M 141.019531 175.761719 C 132.085938 175.761719 125.214844 182.628906 125.214844 191.550781 C 125.214844 200.304688 132.085938 207.167969 141.019531 207.167969 C 149.78125 207.167969 156.824219 200.304688 156.824219 191.550781 C 156.824219 182.628906 149.78125 175.761719 141.019531 175.761719 Z M 141.019531 175.761719 " fill-opacity="1" fill-rule="evenodd"/><path fill="#000000" d="M 234.300781 216.433594 C 219.699219 216.433594 208.019531 204.765625 208.019531 190.351562 C 208.019531 175.933594 219.699219 164.265625 234.300781 164.265625 C 248.5625 164.265625 260.242188 175.933594 260.242188 190.351562 C 260.242188 204.765625 248.5625 216.433594 234.300781 216.433594 Z M 234.300781 174.5625 C 225.371094 174.5625 218.324219 181.769531 218.324219 190.351562 C 218.324219 199.101562 225.371094 206.308594 234.300781 206.308594 C 243.0625 206.308594 249.933594 199.101562 249.933594 190.351562 C 249.933594 181.425781 242.890625 174.5625 234.300781 174.5625 Z M 234.300781 174.5625 " fill-opacity="1" fill-rule="evenodd"/><path fill="#000000" d="M 185.683594 247.667969 C 175.894531 247.667969 167.304688 243.035156 162.492188 238.914062 C 160.261719 237.027344 160.089844 233.597656 161.976562 231.707031 C 163.867188 229.648438 166.960938 229.304688 169.191406 231.363281 C 170.738281 232.738281 185.683594 244.578125 199.945312 231.535156 C 202.003906 229.648438 205.097656 229.648438 207.332031 231.707031 C 209.21875 233.9375 209.21875 237.027344 207.160156 239.085938 C 199.945312 245.265625 192.558594 247.667969 185.683594 247.667969 Z M 185.683594 247.667969 " fill-opacity="1" fill-rule="evenodd"/><path fill="#000000" d="M 187.574219 126.855469 C 184.65625 126.855469 182.25 124.453125 182.25 121.707031 L 182.421875 93.390625 C 182.421875 90.472656 184.824219 88.242188 187.746094 88.242188 C 190.667969 88.242188 193.070312 90.644531 192.730469 93.5625 L 192.558594 121.878906 C 192.730469 124.453125 190.324219 126.855469 187.574219 126.855469 Z M 187.574219 126.855469 " fill-opacity="1" fill-rule="evenodd"/><g clip-path="url(#93aee7fe12)"><path fill="#000000" d="M 187.746094 98.367188 C 177.78125 98.367188 169.535156 90.128906 169.535156 80.175781 C 169.535156 70.222656 177.78125 62.160156 187.746094 62.160156 C 197.710938 62.160156 205.957031 70.222656 205.957031 80.175781 C 205.957031 90.128906 197.710938 98.367188 187.746094 98.367188 Z M 187.746094 72.285156 C 183.453125 72.285156 179.84375 75.886719 179.84375 80.175781 C 179.84375 84.46875 183.453125 88.070312 187.746094 88.070312 C 192.042969 88.070312 195.648438 84.46875 195.648438 80.175781 C 195.648438 75.886719 192.042969 72.285156 187.746094 72.285156 Z M 187.746094 72.285156 " fill-opacity="1" fill-rule="evenodd"/></g></svg>