<svg xmlns="http://www.w3.org/2000/svg" xmlns:xlink="http://www.w3.org/1999/xlink" width="367" height="155"><defs><path id="a" d="M0 0h413v220H0z"/></defs><g transform="translate(-21 -33)" fill="none" fill-rule="evenodd"><mask id="b" fill="#fff"><use xlink:href="#a"/></mask><g mask="url(#b)"><path fill="#EE7D00" d="M167.151 157.944h10.389V76.123h-10.389z"/><path fill="#575756" d="M196.408 157.948V76.127h53.038v9.661h-42.627v25.338h36.879v9.656h-36.879v37.166zm51.849 0l30.19-81.82h11.203l32.175 81.82h-11.86l-9.166-24.785h-32.875l-8.617 24.785h-11.05zm22.675-33.6h26.66l-8.225-22.662c-2.478-6.868-4.349-12.525-5.559-16.96-.998 5.253-2.42 10.452-4.245 15.633l-8.63 23.99zm59.732 33.6V76.127h53.033v9.661h-42.626v25.338h36.874v9.656h-36.874v37.166zM21.187 76.207v110.231c60.872 0 110.236-49.359 110.236-110.23H67.686v31.152h28.45v17.93h-28.45v32.854H39.294V76.207H21.187z"/><path fill="#EE7D00" d="M21.211 61.543h18.044V33.164H21.211z"/><path fill="#575756" d="M64.438 57.013c0-1.376-.864-2.667-2.096-3.09v-.063c1.102-.575 1.718-1.718 1.718-2.99 0-2.497-1.992-3.68-5.082-3.68-1.781 0-4.133.041-5.572.122v14.275c2.42 0 4.11.045 4.978.045 4.084 0 6.054-2.038 6.054-4.62m-4.57-5.526c0 .823-.445 1.353-1.673 1.353-.341 0-.611 0-.85-.018v-2.415c.338-.022.554-.04.999-.04.93 0 1.524.378 1.524 1.12m.32 5.572c0 .886-.72 1.354-1.781 1.354-.342 0-.805-.023-1.062-.04v-2.605c.239-.027.873-.027 1.017-.027 1.228 0 1.826.576 1.826 1.318m15.916 4.527V58.18h-4.421v-2.311h4.192v-3.216h-4.192v-2.015h4.421v-3.346h-8.356v14.293zm17.248 0l-2.523-4.358a22.554 22.554 0 00-1.04-1.655c1.615-.594 2.569-2.222 2.569-3.917 0-3.175-2.033-4.466-5.676-4.466-1.799 0-3.562.018-4.893.103v14.293h3.944v-5.208h.185l2.653 5.208h4.78zm-5.145-9.633c0 1.06-.742 1.632-1.822 1.632-.211 0-.508-.022-.652-.045v-3.067c.126-.023.481-.045.738-.045 1.29 0 1.736.679 1.736 1.525zm17.12 9.633v-3.513h-3.94v-10.78h-3.935v14.293zm4.168-.002h3.944V47.29h-3.944zm22.094.002V47.292h-3.791v5.001c0 .886.045 1.988.148 2.964-.481-1.147-1.115-2.437-1.736-3.71l-2.073-4.255H119.1v14.293h3.787v-5.842c0-.931-.023-1.421-.104-2.262.355.949.868 2.09 1.417 3.215l2.392 4.889h4.997z"/></g></g></svg>
