<svg xmlns="http://www.w3.org/2000/svg" xmlns:xlink="http://www.w3.org/1999/xlink" width="500" zoomAndPan="magnify" viewBox="0 0 375 374.999991" height="500" preserveAspectRatio="xMidYMid meet" version="1.0"><defs><g/><clipPath id="19c01b9ecd"><path d="M 95.300781 33.359375 L 279.800781 33.359375 L 279.800781 217.859375 L 95.300781 217.859375 Z M 95.300781 33.359375 " clip-rule="nonzero"/></clipPath><clipPath id="855fa174a2"><path d="M 137.023438 93.273438 L 245.773438 93.273438 L 245.773438 103.773438 L 137.023438 103.773438 Z M 137.023438 93.273438 " clip-rule="nonzero"/></clipPath><clipPath id="da18c10a79"><path d="M 137.023438 103.613281 L 245.773438 103.613281 L 245.773438 114.113281 L 137.023438 114.113281 Z M 137.023438 103.613281 " clip-rule="nonzero"/></clipPath><clipPath id="31842a7734"><path d="M 129.136719 97.542969 L 244.636719 97.542969 L 244.636719 108.042969 L 129.136719 108.042969 Z M 129.136719 97.542969 " clip-rule="nonzero"/></clipPath></defs><g clip-path="url(#19c01b9ecd)"><path fill="#bdceff" d="M 279.695312 125.558594 C 279.695312 127.066406 279.660156 128.574219 279.585938 130.082031 C 279.511719 131.585938 279.398438 133.09375 279.253906 134.59375 C 279.105469 136.09375 278.917969 137.59375 278.699219 139.085938 C 278.476562 140.578125 278.21875 142.0625 277.925781 143.542969 C 277.628906 145.023438 277.300781 146.496094 276.933594 147.957031 C 276.566406 149.421875 276.164062 150.875 275.726562 152.320312 C 275.289062 153.765625 274.816406 155.195312 274.304688 156.617188 C 273.796875 158.039062 273.253906 159.445312 272.679688 160.839844 C 272.101562 162.234375 271.488281 163.613281 270.84375 164.976562 C 270.199219 166.339844 269.519531 167.6875 268.808594 169.019531 C 268.097656 170.347656 267.355469 171.660156 266.578125 172.957031 C 265.804688 174.25 264.996094 175.523438 264.15625 176.777344 C 263.320312 178.035156 262.449219 179.265625 261.550781 180.480469 C 260.652344 181.691406 259.726562 182.878906 258.769531 184.046875 C 257.8125 185.210938 256.824219 186.355469 255.8125 187.472656 C 254.800781 188.589844 253.757812 189.683594 252.691406 190.75 C 251.625 191.816406 250.53125 192.855469 249.414062 193.871094 C 248.296875 194.882812 247.15625 195.867188 245.988281 196.828125 C 244.820312 197.785156 243.632812 198.710938 242.421875 199.609375 C 241.207031 200.507812 239.976562 201.378906 238.71875 202.214844 C 237.464844 203.054688 236.191406 203.859375 234.898438 204.636719 C 233.601562 205.414062 232.289062 206.15625 230.960938 206.867188 C 229.628906 207.578125 228.28125 208.257812 226.917969 208.902344 C 225.554688 209.546875 224.175781 210.160156 222.78125 210.734375 C 221.386719 211.3125 219.980469 211.855469 218.558594 212.363281 C 217.136719 212.871094 215.707031 213.347656 214.261719 213.785156 C 212.816406 214.222656 211.363281 214.625 209.902344 214.992188 C 208.4375 215.359375 206.964844 215.6875 205.484375 215.984375 C 204.003906 216.277344 202.519531 216.535156 201.027344 216.757812 C 199.535156 216.976562 198.039062 217.164062 196.535156 217.308594 C 195.035156 217.457031 193.53125 217.570312 192.023438 217.644531 C 190.515625 217.71875 189.007812 217.753906 187.5 217.753906 C 185.988281 217.753906 184.480469 217.71875 182.976562 217.644531 C 181.46875 217.570312 179.964844 217.457031 178.460938 217.308594 C 176.960938 217.164062 175.464844 216.976562 173.96875 216.757812 C 172.476562 216.535156 170.992188 216.277344 169.511719 215.984375 C 168.03125 215.6875 166.558594 215.359375 165.097656 214.992188 C 163.632812 214.625 162.179688 214.222656 160.734375 213.785156 C 159.292969 213.347656 157.859375 212.871094 156.4375 212.363281 C 155.019531 211.855469 153.609375 211.3125 152.214844 210.734375 C 150.824219 210.160156 149.441406 209.546875 148.078125 208.902344 C 146.714844 208.257812 145.367188 207.578125 144.039062 206.867188 C 142.707031 206.15625 141.394531 205.414062 140.101562 204.636719 C 138.804688 203.859375 137.53125 203.054688 136.277344 202.214844 C 135.023438 201.378906 133.789062 200.507812 132.578125 199.609375 C 131.363281 198.710938 130.175781 197.785156 129.007812 196.828125 C 127.84375 195.867188 126.699219 194.882812 125.582031 193.871094 C 124.464844 192.855469 123.371094 191.816406 122.304688 190.75 C 121.238281 189.683594 120.199219 188.589844 119.183594 187.472656 C 118.171875 186.355469 117.1875 185.210938 116.230469 184.046875 C 115.273438 182.878906 114.34375 181.691406 113.445312 180.480469 C 112.546875 179.265625 111.679688 178.035156 110.839844 176.777344 C 110 175.523438 109.195312 174.25 108.417969 172.957031 C 107.644531 171.660156 106.898438 170.347656 106.1875 169.019531 C 105.476562 167.6875 104.796875 166.339844 104.152344 164.976562 C 103.507812 163.613281 102.898438 162.234375 102.320312 160.839844 C 101.742188 159.445312 101.199219 158.039062 100.691406 156.617188 C 100.183594 155.195312 99.710938 153.765625 99.269531 152.320312 C 98.832031 150.875 98.429688 149.421875 98.0625 147.957031 C 97.699219 146.496094 97.367188 145.023438 97.074219 143.542969 C 96.777344 142.0625 96.519531 140.578125 96.300781 139.085938 C 96.078125 137.59375 95.894531 136.09375 95.746094 134.59375 C 95.597656 133.09375 95.488281 131.585938 95.414062 130.082031 C 95.339844 128.574219 95.300781 127.066406 95.300781 125.558594 C 95.300781 124.046875 95.339844 122.539062 95.414062 121.03125 C 95.488281 119.527344 95.597656 118.023438 95.746094 116.519531 C 95.894531 115.019531 96.078125 113.519531 96.300781 112.027344 C 96.519531 110.535156 96.777344 109.050781 97.074219 107.570312 C 97.367188 106.089844 97.699219 104.617188 98.0625 103.15625 C 98.429688 101.691406 98.832031 100.238281 99.269531 98.792969 C 99.710938 97.347656 100.183594 95.917969 100.691406 94.496094 C 101.199219 93.074219 101.742188 91.667969 102.320312 90.273438 C 102.898438 88.878906 103.507812 87.5 104.152344 86.136719 C 104.796875 84.773438 105.476562 83.425781 106.1875 82.09375 C 106.898438 80.765625 107.644531 79.453125 108.417969 78.15625 C 109.195312 76.863281 110 75.589844 110.839844 74.335938 C 111.679688 73.082031 112.546875 71.847656 113.445312 70.636719 C 114.34375 69.421875 115.273438 68.234375 116.230469 67.066406 C 117.1875 65.902344 118.171875 64.757812 119.183594 63.640625 C 120.199219 62.523438 121.238281 61.429688 122.304688 60.363281 C 123.371094 59.296875 124.464844 58.257812 125.582031 57.242188 C 126.699219 56.230469 127.84375 55.246094 129.007812 54.289062 C 130.175781 53.332031 131.363281 52.402344 132.578125 51.503906 C 133.789062 50.605469 135.023438 49.734375 136.277344 48.898438 C 137.53125 48.058594 138.804688 47.253906 140.101562 46.476562 C 141.394531 45.699219 142.707031 44.957031 144.039062 44.246094 C 145.367188 43.535156 146.714844 42.855469 148.078125 42.210938 C 149.441406 41.566406 150.824219 40.957031 152.214844 40.378906 C 153.609375 39.800781 155.019531 39.257812 156.4375 38.75 C 157.859375 38.242188 159.292969 37.765625 160.734375 37.328125 C 162.179688 36.890625 163.632812 36.488281 165.097656 36.121094 C 166.558594 35.757812 168.03125 35.425781 169.511719 35.132812 C 170.992188 34.835938 172.476562 34.578125 173.96875 34.359375 C 175.464844 34.136719 176.960938 33.953125 178.460938 33.804688 C 179.964844 33.65625 181.46875 33.542969 182.976562 33.46875 C 184.480469 33.398438 185.988281 33.359375 187.5 33.359375 C 189.007812 33.359375 190.515625 33.398438 192.023438 33.46875 C 193.53125 33.542969 195.035156 33.65625 196.535156 33.804688 C 198.039062 33.953125 199.535156 34.136719 201.027344 34.359375 C 202.519531 34.578125 204.003906 34.835938 205.484375 35.132812 C 206.964844 35.425781 208.4375 35.757812 209.902344 36.121094 C 211.363281 36.488281 212.816406 36.890625 214.261719 37.328125 C 215.707031 37.765625 217.136719 38.242188 218.558594 38.75 C 219.980469 39.257812 221.386719 39.800781 222.78125 40.378906 C 224.175781 40.957031 225.554688 41.566406 226.917969 42.210938 C 228.28125 42.855469 229.628906 43.535156 230.960938 44.246094 C 232.289062 44.957031 233.601562 45.699219 234.898438 46.476562 C 236.191406 47.253906 237.464844 48.058594 238.71875 48.898438 C 239.976562 49.734375 241.207031 50.605469 242.421875 51.503906 C 243.632812 52.402344 244.820312 53.332031 245.988281 54.289062 C 247.15625 55.246094 248.296875 56.230469 249.414062 57.242188 C 250.53125 58.257812 251.625 59.296875 252.691406 60.363281 C 253.757812 61.429688 254.800781 62.523438 255.8125 63.640625 C 256.824219 64.757812 257.8125 65.902344 258.769531 67.066406 C 259.726562 68.234375 260.652344 69.421875 261.550781 70.636719 C 262.449219 71.847656 263.320312 73.082031 264.15625 74.335938 C 264.996094 75.589844 265.804688 76.863281 266.578125 78.15625 C 267.355469 79.453125 268.097656 80.765625 268.808594 82.09375 C 269.519531 83.425781 270.199219 84.773438 270.84375 86.136719 C 271.488281 87.5 272.101562 88.878906 272.679688 90.273438 C 273.253906 91.667969 273.796875 93.074219 274.304688 94.496094 C 274.816406 95.917969 275.289062 97.347656 275.726562 98.792969 C 276.164062 100.238281 276.566406 101.691406 276.933594 103.15625 C 277.300781 104.617188 277.628906 106.089844 277.925781 107.570312 C 278.21875 109.050781 278.476562 110.535156 278.699219 112.027344 C 278.917969 113.519531 279.105469 115.019531 279.253906 116.519531 C 279.398438 118.023438 279.511719 119.527344 279.585938 121.03125 C 279.660156 122.539062 279.695312 124.046875 279.695312 125.558594 Z M 279.695312 125.558594 " fill-opacity="1" fill-rule="nonzero"/></g><path fill="#ffffff" d="M 235.792969 78.582031 L 212.378906 78.582031 L 212.378906 40.96875 L 125.007812 40.96875 L 125.007812 203.851562 L 249.988281 203.851562 L 249.988281 78.582031 Z M 235.792969 78.582031 " fill-opacity="1" fill-rule="nonzero"/><path fill="#303c42" d="M 249.988281 207.070312 L 125.007812 207.070312 C 123.253906 207.070312 121.9375 205.753906 121.9375 203.996094 L 121.9375 40.96875 C 121.9375 39.214844 123.253906 37.894531 125.007812 37.894531 L 212.378906 37.894531 C 214.132812 37.894531 215.449219 39.214844 215.449219 40.96875 L 215.449219 75.507812 L 249.988281 75.507812 C 251.742188 75.507812 253.0625 76.824219 253.0625 78.582031 L 253.0625 203.851562 C 253.0625 205.609375 251.742188 207.070312 249.988281 207.070312 Z M 128.082031 200.777344 L 246.914062 200.777344 L 246.914062 81.652344 L 212.378906 81.652344 C 210.621094 81.652344 209.304688 80.335938 209.304688 78.582031 L 209.304688 44.042969 L 128.082031 44.042969 Z M 128.082031 200.777344 " fill-opacity="1" fill-rule="nonzero"/><path fill="#e6e6e5" d="M 212.378906 40.96875 L 212.378906 78.582031 L 249.988281 78.582031 Z M 212.378906 40.96875 " fill-opacity="1" fill-rule="nonzero"/><path fill="#303c42" d="M 249.988281 81.652344 L 212.378906 81.652344 C 210.621094 81.652344 209.304688 80.335938 209.304688 78.582031 L 209.304688 40.96875 C 209.304688 39.652344 210.035156 38.628906 211.207031 38.1875 C 212.378906 37.75 213.695312 37.894531 214.574219 38.773438 L 252.183594 76.386719 C 253.0625 77.261719 253.355469 78.582031 252.914062 79.75 C 252.328125 80.921875 251.304688 81.652344 249.988281 81.652344 Z M 215.449219 75.507812 L 242.523438 75.507812 L 215.449219 48.433594 Z M 215.449219 75.507812 " fill-opacity="1" fill-rule="nonzero"/><path fill="#303c42" d="M 219.839844 128.191406 L 156.035156 128.191406 C 154.277344 128.191406 152.960938 126.875 152.960938 125.117188 C 152.960938 123.363281 154.277344 122.042969 156.035156 122.042969 L 219.839844 122.042969 C 221.597656 122.042969 222.914062 123.363281 222.914062 125.117188 C 222.914062 126.875 221.449219 128.191406 219.839844 128.191406 Z M 219.839844 128.191406 " fill-opacity="1" fill-rule="nonzero"/><path fill="#303c42" d="M 219.402344 151.460938 L 155.59375 151.460938 C 153.839844 151.460938 152.523438 150.144531 152.523438 148.386719 C 152.523438 146.628906 153.839844 145.3125 155.59375 145.3125 L 219.402344 145.3125 C 221.15625 145.3125 222.476562 146.628906 222.476562 148.386719 C 222.476562 150.144531 221.15625 151.460938 219.402344 151.460938 Z M 219.402344 151.460938 " fill-opacity="1" fill-rule="nonzero"/><path fill="#303c42" d="M 219.402344 174.875 L 155.59375 174.875 C 153.839844 174.875 152.523438 173.558594 152.523438 171.800781 C 152.523438 170.046875 153.839844 168.730469 155.59375 168.730469 L 219.402344 168.730469 C 221.15625 168.730469 222.476562 170.046875 222.476562 171.800781 C 222.476562 173.558594 221.15625 174.875 219.402344 174.875 Z M 219.402344 174.875 " fill-opacity="1" fill-rule="nonzero"/><path fill="#303c42" d="M 152.960938 99.945312 C 152.816406 100.09375 152.667969 100.238281 152.667969 100.53125 C 152.667969 100.824219 152.816406 100.972656 152.960938 101.117188 C 153.253906 101.261719 153.691406 101.410156 154.570312 101.703125 C 155.449219 101.847656 156.035156 102.289062 156.472656 102.582031 C 156.914062 103.019531 157.207031 103.605469 157.207031 104.335938 C 157.207031 105.070312 156.914062 105.800781 156.328125 106.238281 C 155.742188 106.679688 155.011719 106.972656 153.984375 106.972656 C 152.523438 106.972656 151.351562 106.386719 150.179688 105.359375 L 151.351562 103.898438 C 152.375 104.777344 153.253906 105.214844 153.984375 105.214844 C 154.277344 105.214844 154.570312 105.070312 154.863281 104.921875 C 155.011719 104.777344 155.15625 104.484375 155.15625 104.335938 C 155.15625 104.042969 155.011719 103.898438 154.863281 103.75 C 154.71875 103.605469 154.277344 103.457031 153.546875 103.3125 C 152.523438 103.019531 151.789062 102.726562 151.351562 102.289062 C 150.914062 102.140625 150.621094 101.554688 150.621094 100.679688 C 150.621094 99.800781 150.914062 99.214844 151.496094 98.777344 C 152.082031 98.335938 152.816406 98.042969 153.691406 98.042969 C 154.277344 98.042969 154.863281 98.191406 155.449219 98.335938 C 156.035156 98.484375 156.621094 98.777344 157.058594 99.214844 L 156.035156 100.679688 C 155.304688 100.09375 154.425781 99.800781 153.691406 99.800781 C 153.398438 99.800781 153.109375 99.800781 152.960938 99.945312 Z M 152.960938 99.945312 " fill-opacity="1" fill-rule="nonzero"/><path fill="#303c42" d="M 165.984375 105.359375 C 167.011719 105.359375 167.742188 104.921875 168.328125 104.191406 L 169.644531 105.507812 C 168.621094 106.679688 167.449219 107.265625 166.132812 107.265625 C 164.816406 107.265625 163.644531 106.824219 162.765625 105.945312 C 161.886719 105.070312 161.449219 104.042969 161.449219 102.726562 C 161.449219 101.410156 161.886719 100.386719 162.765625 99.507812 C 163.644531 98.628906 164.816406 98.191406 165.984375 98.191406 C 167.449219 98.191406 168.621094 98.777344 169.644531 99.800781 L 168.472656 101.117188 C 167.886719 100.386719 167.011719 99.945312 166.132812 99.945312 C 165.402344 99.945312 164.816406 100.238281 164.230469 100.679688 C 163.644531 101.117188 163.5 101.847656 163.5 102.582031 C 163.5 103.3125 163.789062 104.042969 164.230469 104.628906 C 164.667969 105.070312 165.253906 105.359375 165.984375 105.359375 Z M 165.984375 105.359375 " fill-opacity="1" fill-rule="nonzero"/><path fill="#303c42" d="M 174.179688 98.191406 L 176.082031 98.191406 L 176.082031 106.972656 L 174.179688 106.972656 Z M 174.179688 98.191406 " fill-opacity="1" fill-rule="nonzero"/><path fill="#303c42" d="M 187.792969 98.191406 L 187.792969 99.945312 L 183.402344 99.945312 L 183.402344 101.703125 L 187.351562 101.703125 L 187.351562 103.3125 L 183.402344 103.3125 L 183.402344 105.214844 L 187.9375 105.214844 L 187.9375 106.972656 L 181.5 106.972656 L 181.5 98.191406 Z M 187.792969 98.191406 " fill-opacity="1" fill-rule="nonzero"/><path fill="#303c42" d="M 198.765625 98.191406 L 200.667969 98.191406 L 200.667969 106.972656 L 198.765625 106.972656 L 194.523438 101.410156 L 194.523438 106.972656 L 192.621094 106.972656 L 192.621094 98.191406 L 194.523438 98.191406 L 198.914062 103.898438 L 198.914062 98.191406 Z M 198.765625 98.191406 " fill-opacity="1" fill-rule="nonzero"/><path fill="#303c42" d="M 210.035156 105.359375 C 211.058594 105.359375 211.792969 104.921875 212.378906 104.191406 L 213.695312 105.507812 C 212.671875 106.679688 211.5 107.265625 210.183594 107.265625 C 208.863281 107.265625 207.695312 106.824219 206.816406 105.945312 C 205.9375 105.070312 205.5 104.042969 205.5 102.726562 C 205.5 101.410156 205.9375 100.386719 206.816406 99.507812 C 207.695312 98.628906 208.863281 98.191406 210.035156 98.191406 C 211.5 98.191406 212.671875 98.777344 213.695312 99.800781 L 212.523438 101.117188 C 211.9375 100.386719 211.058594 99.945312 210.183594 99.945312 C 209.449219 99.945312 208.863281 100.238281 208.28125 100.679688 C 207.695312 101.117188 207.546875 101.847656 207.546875 102.582031 C 207.546875 103.3125 207.839844 104.042969 208.28125 104.628906 C 208.71875 105.070312 209.304688 105.359375 210.035156 105.359375 Z M 210.035156 105.359375 " fill-opacity="1" fill-rule="nonzero"/><path fill="#303c42" d="M 224.671875 98.191406 L 224.671875 99.945312 L 220.28125 99.945312 L 220.28125 101.703125 L 224.230469 101.703125 L 224.230469 103.3125 L 220.28125 103.3125 L 220.28125 105.214844 L 224.816406 105.214844 L 224.816406 106.972656 L 218.230469 106.972656 L 218.230469 98.191406 Z M 224.671875 98.191406 " fill-opacity="1" fill-rule="nonzero"/><g clip-path="url(#855fa174a2)"><path fill="#f06b6b" d="M 280.398438 109.054688 C 280.398438 110.5625 280.363281 112.070312 280.289062 113.578125 C 280.214844 115.085938 280.101562 116.59375 279.953125 118.09375 C 279.804688 119.597656 279.621094 121.09375 279.398438 122.589844 C 279.179688 124.082031 278.921875 125.570312 278.625 127.050781 C 278.332031 128.53125 278 130.003906 277.632812 131.46875 C 277.265625 132.933594 276.863281 134.386719 276.425781 135.832031 C 275.988281 137.277344 275.515625 138.710938 275.007812 140.132812 C 274.496094 141.550781 273.953125 142.960938 273.375 144.355469 C 272.800781 145.75 272.1875 147.128906 271.542969 148.496094 C 270.894531 149.859375 270.21875 151.207031 269.507812 152.539062 C 268.792969 153.871094 268.050781 155.183594 267.273438 156.480469 C 266.496094 157.773438 265.691406 159.050781 264.851562 160.304688 C 264.011719 161.558594 263.144531 162.792969 262.246094 164.007812 C 261.34375 165.21875 260.417969 166.410156 259.457031 167.574219 C 258.5 168.742188 257.515625 169.886719 256.5 171.003906 C 255.488281 172.125 254.445312 173.214844 253.378906 174.285156 C 252.3125 175.351562 251.21875 176.390625 250.101562 177.40625 C 248.980469 178.417969 247.839844 179.40625 246.671875 180.363281 C 245.503906 181.320312 244.316406 182.25 243.101562 183.148438 C 241.890625 184.046875 240.65625 184.917969 239.398438 185.757812 C 238.144531 186.59375 236.871094 187.402344 235.574219 188.179688 C 234.28125 188.953125 232.964844 189.699219 231.636719 190.410156 C 230.304688 191.121094 228.957031 191.800781 227.589844 192.445312 C 226.226562 193.089844 224.847656 193.703125 223.453125 194.28125 C 222.054688 194.859375 220.648438 195.402344 219.226562 195.910156 C 217.804688 196.417969 216.371094 196.894531 214.925781 197.332031 C 213.484375 197.769531 212.027344 198.171875 210.5625 198.539062 C 209.097656 198.90625 207.625 199.234375 206.144531 199.53125 C 204.664062 199.824219 203.179688 200.082031 201.683594 200.304688 C 200.191406 200.527344 198.691406 200.710938 197.191406 200.859375 C 195.6875 201.007812 194.183594 201.117188 192.675781 201.191406 C 191.167969 201.265625 189.660156 201.304688 188.148438 201.304688 C 186.640625 201.304688 185.128906 201.265625 183.621094 201.191406 C 182.113281 201.117188 180.609375 201.007812 179.105469 200.859375 C 177.605469 200.710938 176.105469 200.527344 174.613281 200.304688 C 173.121094 200.082031 171.632812 199.824219 170.152344 199.53125 C 168.671875 199.234375 167.199219 198.90625 165.734375 198.539062 C 164.269531 198.171875 162.816406 197.769531 161.371094 197.332031 C 159.925781 196.894531 158.492188 196.417969 157.070312 195.910156 C 155.648438 195.402344 154.242188 194.859375 152.847656 194.28125 C 151.453125 193.703125 150.070312 193.089844 148.707031 192.445312 C 147.34375 191.800781 145.992188 191.121094 144.664062 190.410156 C 143.332031 189.699219 142.019531 188.953125 140.722656 188.179688 C 139.429688 187.402344 138.152344 186.59375 136.898438 185.757812 C 135.640625 184.917969 134.40625 184.046875 133.195312 183.148438 C 131.984375 182.25 130.792969 181.320312 129.625 180.363281 C 128.457031 179.40625 127.316406 178.417969 126.199219 177.40625 C 125.078125 176.390625 123.984375 175.351562 122.917969 174.285156 C 121.851562 173.214844 120.808594 172.125 119.796875 171.003906 C 118.78125 169.886719 117.796875 168.742188 116.839844 167.574219 C 115.878906 166.410156 114.953125 165.21875 114.054688 164.007812 C 113.152344 162.792969 112.285156 161.558594 111.445312 160.304688 C 110.605469 159.050781 109.800781 157.773438 109.023438 156.480469 C 108.246094 155.183594 107.503906 153.871094 106.792969 152.539062 C 106.078125 151.207031 105.402344 149.859375 104.753906 148.496094 C 104.109375 147.128906 103.5 145.75 102.921875 144.355469 C 102.34375 142.960938 101.800781 141.550781 101.292969 140.132812 C 100.78125 138.710938 100.308594 137.277344 99.871094 135.832031 C 99.433594 134.386719 99.03125 132.933594 98.664062 131.46875 C 98.296875 130.003906 97.964844 128.53125 97.671875 127.050781 C 97.375 125.570312 97.117188 124.082031 96.898438 122.589844 C 96.675781 121.09375 96.492188 119.597656 96.34375 118.09375 C 96.195312 116.59375 96.085938 115.085938 96.011719 113.578125 C 95.9375 112.070312 95.898438 110.5625 95.898438 109.054688 C 95.898438 107.542969 95.9375 106.035156 96.011719 104.527344 C 96.085938 103.019531 96.195312 101.511719 96.34375 100.011719 C 96.492188 98.507812 96.675781 97.011719 96.898438 95.515625 C 97.117188 94.023438 97.375 92.535156 97.671875 91.054688 C 97.964844 89.574219 98.296875 88.101562 98.664062 86.636719 C 99.03125 85.171875 99.433594 83.71875 99.871094 82.273438 C 100.308594 80.828125 100.78125 79.398438 101.292969 77.976562 C 101.800781 76.554688 102.34375 75.144531 102.921875 73.75 C 103.5 72.355469 104.109375 70.976562 104.753906 69.609375 C 105.402344 68.246094 106.078125 66.898438 106.792969 65.566406 C 107.503906 64.234375 108.246094 62.921875 109.023438 61.628906 C 109.800781 60.332031 110.605469 59.058594 111.445312 57.800781 C 112.285156 56.546875 113.152344 55.3125 114.054688 54.101562 C 114.953125 52.886719 115.878906 51.699219 116.839844 50.53125 C 117.796875 49.363281 118.78125 48.21875 119.796875 47.101562 C 120.808594 45.984375 121.851562 44.890625 122.917969 43.824219 C 123.984375 42.753906 125.078125 41.714844 126.199219 40.699219 C 127.316406 39.6875 128.457031 38.699219 129.625 37.742188 C 130.792969 36.785156 131.984375 35.855469 133.195312 34.957031 C 134.40625 34.058594 135.640625 33.1875 136.898438 32.351562 C 138.152344 31.511719 139.429688 30.703125 140.722656 29.925781 C 142.019531 29.152344 143.332031 28.40625 144.664062 27.695312 C 145.992188 26.984375 147.34375 26.304688 148.707031 25.660156 C 150.070312 25.015625 151.453125 24.402344 152.847656 23.824219 C 154.242188 23.246094 155.648438 22.703125 157.070312 22.195312 C 158.492188 21.6875 159.925781 21.214844 161.371094 20.777344 C 162.816406 20.335938 164.269531 19.933594 165.734375 19.566406 C 167.199219 19.199219 168.671875 18.871094 170.152344 18.574219 C 171.632812 18.28125 173.121094 18.023438 174.613281 17.800781 C 176.105469 17.582031 177.605469 17.394531 179.105469 17.246094 C 180.609375 17.097656 182.113281 16.988281 183.621094 16.914062 C 185.128906 16.839844 186.640625 16.804688 188.148438 16.804688 C 189.660156 16.804688 191.167969 16.839844 192.675781 16.914062 C 194.183594 16.988281 195.6875 17.097656 197.191406 17.246094 C 198.691406 17.394531 200.191406 17.582031 201.683594 17.800781 C 203.179688 18.023438 204.664062 18.28125 206.144531 18.574219 C 207.625 18.871094 209.097656 19.199219 210.5625 19.566406 C 212.027344 19.933594 213.484375 20.335938 214.925781 20.777344 C 216.371094 21.214844 217.804688 21.6875 219.226562 22.195312 C 220.648438 22.703125 222.054688 23.246094 223.453125 23.824219 C 224.847656 24.402344 226.226562 25.015625 227.589844 25.660156 C 228.957031 26.304688 230.304688 26.984375 231.636719 27.695312 C 232.964844 28.40625 234.28125 29.152344 235.574219 29.925781 C 236.871094 30.703125 238.144531 31.511719 239.398438 32.351562 C 240.65625 33.1875 241.890625 34.058594 243.101562 34.957031 C 244.316406 35.855469 245.503906 36.785156 246.671875 37.742188 C 247.839844 38.699219 248.980469 39.6875 250.101562 40.699219 C 251.21875 41.714844 252.3125 42.753906 253.378906 43.824219 C 254.445312 44.890625 255.488281 45.984375 256.5 47.101562 C 257.515625 48.21875 258.5 49.363281 259.457031 50.53125 C 260.417969 51.699219 261.34375 52.886719 262.246094 54.101562 C 263.144531 55.3125 264.011719 56.546875 264.851562 57.800781 C 265.691406 59.058594 266.496094 60.332031 267.273438 61.628906 C 268.050781 62.921875 268.792969 64.234375 269.507812 65.566406 C 270.21875 66.898438 270.894531 68.246094 271.542969 69.609375 C 272.1875 70.976562 272.800781 72.355469 273.375 73.75 C 273.953125 75.144531 274.496094 76.554688 275.007812 77.976562 C 275.515625 79.398438 275.988281 80.828125 276.425781 82.273438 C 276.863281 83.71875 277.265625 85.171875 277.632812 86.636719 C 278 88.101562 278.332031 89.574219 278.625 91.054688 C 278.921875 92.535156 279.179688 94.023438 279.398438 95.515625 C 279.621094 97.011719 279.804688 98.507812 279.953125 100.011719 C 280.101562 101.511719 280.214844 103.019531 280.289062 104.527344 C 280.363281 106.035156 280.398438 107.542969 280.398438 109.054688 Z M 280.398438 109.054688 " fill-opacity="1" fill-rule="nonzero"/><path fill="#ffffff" d="M 236.46875 62.050781 L 213.042969 62.050781 L 213.042969 24.417969 L 125.625 24.417969 L 125.625 187.390625 L 250.671875 187.390625 L 250.671875 62.050781 Z M 236.46875 62.050781 " fill-opacity="1" fill-rule="nonzero"/><path fill="#303c42" d="M 250.671875 190.613281 L 125.625 190.613281 C 123.867188 190.613281 122.546875 189.296875 122.546875 187.539062 L 122.546875 24.417969 C 122.546875 22.660156 123.867188 21.34375 125.625 21.34375 L 213.042969 21.34375 C 214.796875 21.34375 216.117188 22.660156 216.117188 24.417969 L 216.117188 58.972656 L 250.671875 58.972656 C 252.429688 58.972656 253.75 60.292969 253.75 62.050781 L 253.75 187.390625 C 253.75 189.148438 252.429688 190.613281 250.671875 190.613281 Z M 128.699219 184.316406 L 247.597656 184.316406 L 247.597656 65.125 L 213.042969 65.125 C 211.285156 65.125 209.964844 63.808594 209.964844 62.050781 L 209.964844 27.492188 L 128.699219 27.492188 Z M 128.699219 184.316406 " fill-opacity="1" fill-rule="nonzero"/></g><g clip-path="url(#da18c10a79)"><path fill="#f06b6b" d="M 280.398438 119.394531 C 280.398438 120.902344 280.363281 122.410156 280.289062 123.917969 C 280.214844 125.425781 280.101562 126.933594 279.953125 128.433594 C 279.804688 129.9375 279.621094 131.4375 279.398438 132.929688 C 279.179688 134.421875 278.921875 135.910156 278.625 137.390625 C 278.332031 138.871094 278 140.34375 277.632812 141.808594 C 277.265625 143.273438 276.863281 144.726562 276.425781 146.171875 C 275.988281 147.617188 275.515625 149.050781 275.007812 150.472656 C 274.496094 151.894531 273.953125 153.300781 273.375 154.695312 C 272.800781 156.089844 272.1875 157.46875 271.542969 158.835938 C 270.894531 160.199219 270.21875 161.546875 269.507812 162.878906 C 268.792969 164.210938 268.050781 165.523438 267.273438 166.820312 C 266.496094 168.113281 265.691406 169.390625 264.851562 170.644531 C 264.011719 171.898438 263.144531 173.132812 262.246094 174.347656 C 261.34375 175.558594 260.417969 176.75 259.457031 177.917969 C 258.5 179.082031 257.515625 180.226562 256.5 181.34375 C 255.488281 182.464844 254.445312 183.554688 253.378906 184.625 C 252.3125 185.691406 251.21875 186.730469 250.101562 187.746094 C 248.980469 188.761719 247.839844 189.746094 246.671875 190.703125 C 245.503906 191.660156 244.316406 192.589844 243.101562 193.488281 C 241.890625 194.386719 240.65625 195.257812 239.398438 196.097656 C 238.144531 196.933594 236.871094 197.742188 235.574219 198.519531 C 234.28125 199.292969 232.964844 200.039062 231.636719 200.75 C 230.304688 201.460938 228.957031 202.140625 227.589844 202.785156 C 226.226562 203.433594 224.847656 204.042969 223.453125 204.621094 C 222.054688 205.199219 220.648438 205.742188 219.226562 206.25 C 217.804688 206.757812 216.371094 207.234375 214.925781 207.671875 C 213.484375 208.109375 212.027344 208.511719 210.5625 208.878906 C 209.097656 209.246094 207.625 209.574219 206.144531 209.871094 C 204.664062 210.164062 203.179688 210.421875 201.683594 210.644531 C 200.191406 210.867188 198.691406 211.050781 197.191406 211.199219 C 195.6875 211.347656 194.183594 211.457031 192.675781 211.53125 C 191.167969 211.605469 189.660156 211.644531 188.148438 211.644531 C 186.640625 211.644531 185.128906 211.605469 183.621094 211.53125 C 182.113281 211.457031 180.609375 211.347656 179.105469 211.199219 C 177.605469 211.050781 176.105469 210.867188 174.613281 210.644531 C 173.121094 210.421875 171.632812 210.164062 170.152344 209.871094 C 168.671875 209.574219 167.199219 209.246094 165.734375 208.878906 C 164.269531 208.511719 162.816406 208.109375 161.371094 207.671875 C 159.925781 207.234375 158.492188 206.757812 157.070312 206.25 C 155.648438 205.742188 154.242188 205.199219 152.847656 204.621094 C 151.453125 204.042969 150.070312 203.433594 148.707031 202.785156 C 147.34375 202.140625 145.992188 201.460938 144.664062 200.75 C 143.332031 200.039062 142.019531 199.292969 140.722656 198.519531 C 139.429688 197.742188 138.152344 196.933594 136.898438 196.097656 C 135.640625 195.257812 134.40625 194.386719 133.195312 193.488281 C 131.984375 192.589844 130.792969 191.660156 129.625 190.703125 C 128.457031 189.746094 127.316406 188.761719 126.199219 187.746094 C 125.078125 186.730469 123.984375 185.691406 122.917969 184.625 C 121.851562 183.554688 120.808594 182.464844 119.796875 181.34375 C 118.78125 180.226562 117.796875 179.082031 116.839844 177.917969 C 115.878906 176.75 114.953125 175.558594 114.054688 174.347656 C 113.152344 173.132812 112.285156 171.898438 111.445312 170.644531 C 110.605469 169.390625 109.800781 168.113281 109.023438 166.820312 C 108.246094 165.523438 107.503906 164.210938 106.792969 162.878906 C 106.078125 161.546875 105.402344 160.199219 104.753906 158.835938 C 104.109375 157.46875 103.5 156.089844 102.921875 154.695312 C 102.34375 153.300781 101.800781 151.894531 101.292969 150.472656 C 100.78125 149.050781 100.308594 147.617188 99.871094 146.171875 C 99.433594 144.726562 99.03125 143.273438 98.664062 141.808594 C 98.296875 140.34375 97.964844 138.871094 97.671875 137.390625 C 97.375 135.910156 97.117188 134.421875 96.898438 132.929688 C 96.675781 131.4375 96.492188 129.9375 96.34375 128.433594 C 96.195312 126.933594 96.085938 125.425781 96.011719 123.917969 C 95.9375 122.410156 95.898438 120.902344 95.898438 119.394531 C 95.898438 117.882812 95.9375 116.375 96.011719 114.867188 C 96.085938 113.359375 96.195312 111.855469 96.34375 110.351562 C 96.492188 108.847656 96.675781 107.351562 96.898438 105.855469 C 97.117188 104.363281 97.375 102.875 97.671875 101.394531 C 97.964844 99.914062 98.296875 98.441406 98.664062 96.976562 C 99.03125 95.515625 99.433594 94.058594 99.871094 92.613281 C 100.308594 91.167969 100.78125 89.738281 101.292969 88.316406 C 101.800781 86.894531 102.34375 85.484375 102.921875 84.089844 C 103.5 82.695312 104.109375 81.316406 104.753906 79.953125 C 105.402344 78.585938 106.078125 77.238281 106.792969 75.90625 C 107.503906 74.574219 108.246094 73.261719 109.023438 71.96875 C 109.800781 70.671875 110.605469 69.398438 111.445312 68.140625 C 112.285156 66.886719 113.152344 65.652344 114.054688 64.441406 C 114.953125 63.226562 115.878906 62.039062 116.839844 60.871094 C 117.796875 59.703125 118.78125 58.5625 119.796875 57.441406 C 120.808594 56.324219 121.851562 55.230469 122.917969 54.164062 C 123.984375 53.09375 125.078125 52.054688 126.199219 51.039062 C 127.316406 50.027344 128.457031 49.039062 129.625 48.082031 C 130.792969 47.125 131.984375 46.195312 133.195312 45.296875 C 134.40625 44.398438 135.640625 43.527344 136.898438 42.691406 C 138.152344 41.851562 139.429688 41.042969 140.722656 40.269531 C 142.019531 39.492188 143.332031 38.746094 144.664062 38.035156 C 145.992188 37.324219 147.34375 36.644531 148.707031 36 C 150.070312 35.355469 151.453125 34.742188 152.847656 34.164062 C 154.242188 33.585938 155.648438 33.042969 157.070312 32.535156 C 158.492188 32.027344 159.925781 31.554688 161.371094 31.117188 C 162.816406 30.675781 164.269531 30.273438 165.734375 29.90625 C 167.199219 29.542969 168.671875 29.210938 170.152344 28.914062 C 171.632812 28.621094 173.121094 28.363281 174.613281 28.140625 C 176.105469 27.921875 177.605469 27.734375 179.105469 27.585938 C 180.609375 27.441406 182.113281 27.328125 183.621094 27.253906 C 185.128906 27.179688 186.640625 27.144531 188.148438 27.144531 C 189.660156 27.144531 191.167969 27.179688 192.675781 27.253906 C 194.183594 27.328125 195.6875 27.441406 197.191406 27.585938 C 198.691406 27.734375 200.191406 27.921875 201.683594 28.140625 C 203.179688 28.363281 204.664062 28.621094 206.144531 28.914062 C 207.625 29.210938 209.097656 29.542969 210.5625 29.90625 C 212.027344 30.273438 213.484375 30.675781 214.925781 31.117188 C 216.371094 31.554688 217.804688 32.027344 219.226562 32.535156 C 220.648438 33.042969 222.054688 33.585938 223.453125 34.164062 C 224.847656 34.742188 226.226562 35.355469 227.589844 36 C 228.957031 36.644531 230.304688 37.324219 231.636719 38.035156 C 232.964844 38.746094 234.28125 39.492188 235.574219 40.269531 C 236.871094 41.042969 238.144531 41.851562 239.398438 42.691406 C 240.65625 43.527344 241.890625 44.398438 243.101562 45.296875 C 244.316406 46.195312 245.503906 47.125 246.671875 48.082031 C 247.839844 49.039062 248.980469 50.027344 250.101562 51.039062 C 251.21875 52.054688 252.3125 53.09375 253.378906 54.164062 C 254.445312 55.230469 255.488281 56.324219 256.5 57.441406 C 257.515625 58.5625 258.5 59.703125 259.457031 60.871094 C 260.417969 62.039062 261.34375 63.226562 262.246094 64.441406 C 263.144531 65.652344 264.011719 66.886719 264.851562 68.140625 C 265.691406 69.398438 266.496094 70.671875 267.273438 71.96875 C 268.050781 73.261719 268.792969 74.574219 269.507812 75.90625 C 270.21875 77.238281 270.894531 78.585938 271.542969 79.953125 C 272.1875 81.316406 272.800781 82.695312 273.375 84.089844 C 273.953125 85.484375 274.496094 86.894531 275.007812 88.316406 C 275.515625 89.738281 275.988281 91.167969 276.425781 92.613281 C 276.863281 94.058594 277.265625 95.515625 277.632812 96.976562 C 278 98.441406 278.332031 99.914062 278.625 101.394531 C 278.921875 102.875 279.179688 104.363281 279.398438 105.855469 C 279.621094 107.351562 279.804688 108.847656 279.953125 110.351562 C 280.101562 111.855469 280.214844 113.359375 280.289062 114.867188 C 280.363281 116.375 280.398438 117.882812 280.398438 119.394531 Z M 280.398438 119.394531 " fill-opacity="1" fill-rule="nonzero"/><path fill="#ffffff" d="M 236.46875 72.390625 L 213.042969 72.390625 L 213.042969 34.757812 L 125.625 34.757812 L 125.625 197.734375 L 250.671875 197.734375 L 250.671875 72.390625 Z M 236.46875 72.390625 " fill-opacity="1" fill-rule="nonzero"/><path fill="#303c42" d="M 250.671875 200.953125 L 125.625 200.953125 C 123.867188 200.953125 122.546875 199.636719 122.546875 197.878906 L 122.546875 34.757812 C 122.546875 33 123.867188 31.683594 125.625 31.683594 L 213.042969 31.683594 C 214.796875 31.683594 216.117188 33 216.117188 34.757812 L 216.117188 69.316406 L 250.671875 69.316406 C 252.429688 69.316406 253.75 70.632812 253.75 72.390625 L 253.75 197.734375 C 253.75 199.488281 252.429688 200.953125 250.671875 200.953125 Z M 128.699219 194.65625 L 247.597656 194.65625 L 247.597656 75.464844 L 213.042969 75.464844 C 211.285156 75.464844 209.964844 74.148438 209.964844 72.390625 L 209.964844 37.832031 L 128.699219 37.832031 Z M 128.699219 194.65625 " fill-opacity="1" fill-rule="nonzero"/></g><g clip-path="url(#31842a7734)"><path fill="#f06b6b" d="M 279.550781 103.664062 C 279.550781 105.175781 279.515625 106.683594 279.441406 108.191406 C 279.367188 109.699219 279.253906 111.203125 279.105469 112.707031 C 278.957031 114.210938 278.773438 115.707031 278.550781 117.203125 C 278.332031 118.695312 278.074219 120.183594 277.777344 121.664062 C 277.484375 123.144531 277.152344 124.617188 276.785156 126.082031 C 276.417969 127.542969 276.015625 129 275.578125 130.445312 C 275.140625 131.890625 274.667969 133.320312 274.160156 134.742188 C 273.648438 136.164062 273.105469 137.574219 272.527344 138.96875 C 271.953125 140.363281 271.339844 141.742188 270.695312 143.105469 C 270.046875 144.472656 269.371094 145.820312 268.660156 147.152344 C 267.945312 148.484375 267.203125 149.796875 266.425781 151.089844 C 265.652344 152.386719 264.84375 153.660156 264.003906 154.917969 C 263.164062 156.171875 262.296875 157.40625 261.398438 158.617188 C 260.496094 159.832031 259.570312 161.019531 258.613281 162.1875 C 257.652344 163.355469 256.667969 164.5 255.652344 165.617188 C 254.640625 166.734375 253.597656 167.828125 252.53125 168.894531 C 251.464844 169.964844 250.371094 171.003906 249.253906 172.019531 C 248.132812 173.03125 246.992188 174.019531 245.824219 174.976562 C 244.65625 175.933594 243.46875 176.863281 242.253906 177.761719 C 241.042969 178.660156 239.808594 179.53125 238.550781 180.367188 C 237.296875 181.207031 236.023438 182.015625 234.726562 182.789062 C 233.433594 183.566406 232.117188 184.3125 230.789062 185.023438 C 229.457031 185.734375 228.109375 186.414062 226.742188 187.058594 C 225.378906 187.703125 224 188.316406 222.605469 188.894531 C 221.207031 189.472656 219.800781 190.015625 218.378906 190.523438 C 216.957031 191.03125 215.523438 191.503906 214.078125 191.941406 C 212.636719 192.382812 211.179688 192.785156 209.714844 193.152344 C 208.25 193.519531 206.777344 193.847656 205.296875 194.144531 C 203.816406 194.4375 202.332031 194.695312 200.835938 194.917969 C 199.34375 195.136719 197.847656 195.324219 196.34375 195.472656 C 194.839844 195.621094 193.335938 195.730469 191.828125 195.804688 C 190.320312 195.878906 188.8125 195.914062 187.300781 195.914062 C 185.792969 195.914062 184.28125 195.878906 182.773438 195.804688 C 181.265625 195.730469 179.761719 195.621094 178.257812 195.472656 C 176.757812 195.324219 175.257812 195.136719 173.765625 194.917969 C 172.273438 194.695312 170.785156 194.4375 169.304688 194.144531 C 167.824219 193.847656 166.351562 193.519531 164.886719 193.152344 C 163.421875 192.785156 161.96875 192.382812 160.523438 191.941406 C 159.078125 191.503906 157.644531 191.03125 156.222656 190.523438 C 154.800781 190.015625 153.394531 189.472656 152 188.894531 C 150.605469 188.316406 149.222656 187.703125 147.859375 187.058594 C 146.496094 186.414062 145.144531 185.734375 143.816406 185.023438 C 142.484375 184.3125 141.171875 183.566406 139.875 182.789062 C 138.582031 182.015625 137.304688 181.207031 136.050781 180.367188 C 134.792969 179.53125 133.558594 178.660156 132.347656 177.761719 C 131.136719 176.863281 129.945312 175.933594 128.777344 174.976562 C 127.613281 174.019531 126.46875 173.03125 125.351562 172.019531 C 124.230469 171.003906 123.136719 169.964844 122.070312 168.894531 C 121.003906 167.828125 119.960938 166.734375 118.949219 165.617188 C 117.933594 164.5 116.949219 163.355469 115.992188 162.1875 C 115.03125 161.019531 114.105469 159.832031 113.207031 158.617188 C 112.304688 157.40625 111.4375 156.171875 110.597656 154.917969 C 109.757812 153.660156 108.953125 152.386719 108.175781 151.089844 C 107.398438 149.796875 106.65625 148.484375 105.945312 147.152344 C 105.230469 145.820312 104.554688 144.472656 103.90625 143.105469 C 103.261719 141.742188 102.652344 140.363281 102.074219 138.96875 C 101.496094 137.574219 100.953125 136.164062 100.445312 134.742188 C 99.933594 133.320312 99.460938 131.890625 99.023438 130.445312 C 98.585938 129 98.183594 127.542969 97.816406 126.082031 C 97.449219 124.617188 97.117188 123.144531 96.824219 121.664062 C 96.527344 120.183594 96.269531 118.695312 96.050781 117.203125 C 95.828125 115.707031 95.644531 114.210938 95.496094 112.707031 C 95.347656 111.203125 95.238281 109.699219 95.164062 108.191406 C 95.089844 106.683594 95.050781 105.175781 95.050781 103.664062 C 95.050781 102.15625 95.089844 100.648438 95.164062 99.140625 C 95.238281 97.632812 95.347656 96.125 95.496094 94.625 C 95.644531 93.121094 95.828125 91.621094 96.050781 90.128906 C 96.269531 88.636719 96.527344 87.148438 96.824219 85.667969 C 97.117188 84.1875 97.449219 82.714844 97.816406 81.25 C 98.183594 79.785156 98.585938 78.332031 99.023438 76.886719 C 99.460938 75.441406 99.933594 74.007812 100.445312 72.585938 C 100.953125 71.164062 101.496094 69.757812 102.074219 68.363281 C 102.652344 66.96875 103.261719 65.589844 103.90625 64.222656 C 104.554688 62.859375 105.230469 61.511719 105.945312 60.179688 C 106.65625 58.847656 107.398438 57.535156 108.175781 56.238281 C 108.953125 54.945312 109.757812 53.667969 110.597656 52.414062 C 111.4375 51.160156 112.304688 49.925781 113.207031 48.710938 C 114.105469 47.5 115.03125 46.308594 115.992188 45.144531 C 116.949219 43.976562 117.933594 42.832031 118.949219 41.714844 C 119.960938 40.59375 121.003906 39.503906 122.070312 38.433594 C 123.136719 37.367188 124.230469 36.328125 125.351562 35.3125 C 126.46875 34.300781 127.613281 33.3125 128.777344 32.355469 C 129.945312 31.398438 131.136719 30.46875 132.347656 29.570312 C 133.558594 28.671875 134.792969 27.800781 136.050781 26.960938 C 137.304688 26.125 138.582031 25.316406 139.875 24.539062 C 141.171875 23.765625 142.484375 23.019531 143.816406 22.308594 C 145.144531 21.597656 146.496094 20.917969 147.859375 20.273438 C 149.222656 19.625 150.605469 19.015625 152 18.4375 C 153.394531 17.859375 154.800781 17.316406 156.222656 16.808594 C 157.644531 16.300781 159.078125 15.824219 160.523438 15.386719 C 161.96875 14.949219 163.421875 14.546875 164.886719 14.179688 C 166.351562 13.8125 167.824219 13.484375 169.304688 13.1875 C 170.785156 12.894531 172.273438 12.636719 173.765625 12.414062 C 175.257812 12.191406 176.757812 12.007812 178.257812 11.859375 C 179.761719 11.710938 181.265625 11.601562 182.773438 11.527344 C 184.28125 11.453125 185.792969 11.414062 187.300781 11.414062 C 188.8125 11.414062 190.320312 11.453125 191.828125 11.527344 C 193.335938 11.601562 194.839844 11.710938 196.34375 11.859375 C 197.847656 12.007812 199.34375 12.191406 200.835938 12.414062 C 202.332031 12.636719 203.816406 12.894531 205.296875 13.1875 C 206.777344 13.484375 208.25 13.8125 209.714844 14.179688 C 211.179688 14.546875 212.636719 14.949219 214.078125 15.386719 C 215.523438 15.824219 216.957031 16.300781 218.378906 16.808594 C 219.800781 17.316406 221.207031 17.859375 222.605469 18.4375 C 224 19.015625 225.378906 19.625 226.742188 20.273438 C 228.109375 20.917969 229.457031 21.597656 230.789062 22.308594 C 232.117188 23.019531 233.433594 23.765625 234.726562 24.539062 C 236.023438 25.316406 237.296875 26.125 238.550781 26.960938 C 239.808594 27.800781 241.042969 28.671875 242.253906 29.570312 C 243.46875 30.46875 244.65625 31.398438 245.824219 32.355469 C 246.992188 33.3125 248.132812 34.300781 249.253906 35.3125 C 250.371094 36.328125 251.464844 37.367188 252.53125 38.433594 C 253.597656 39.503906 254.640625 40.59375 255.652344 41.714844 C 256.667969 42.832031 257.652344 43.976562 258.613281 45.144531 C 259.570312 46.308594 260.496094 47.5 261.398438 48.710938 C 262.296875 49.925781 263.164062 51.160156 264.003906 52.414062 C 264.84375 53.667969 265.652344 54.945312 266.425781 56.238281 C 267.203125 57.535156 267.945312 58.847656 268.660156 60.179688 C 269.371094 61.511719 270.046875 62.859375 270.695312 64.222656 C 271.339844 65.589844 271.953125 66.96875 272.527344 68.363281 C 273.105469 69.757812 273.648438 71.164062 274.160156 72.585938 C 274.667969 74.007812 275.140625 75.441406 275.578125 76.886719 C 276.015625 78.332031 276.417969 79.785156 276.785156 81.25 C 277.152344 82.714844 277.484375 84.1875 277.777344 85.667969 C 278.074219 87.148438 278.332031 88.636719 278.550781 90.128906 C 278.773438 91.621094 278.957031 93.121094 279.105469 94.625 C 279.253906 96.125 279.367188 97.632812 279.441406 99.140625 C 279.515625 100.648438 279.550781 102.15625 279.550781 103.664062 Z M 279.550781 103.664062 " fill-opacity="1" fill-rule="nonzero"/><path fill="#ffffff" d="M 235.621094 56.660156 L 212.195312 56.660156 L 212.195312 19.03125 L 124.777344 19.03125 L 124.777344 182.003906 L 249.824219 182.003906 L 249.824219 56.660156 Z M 235.621094 56.660156 " fill-opacity="1" fill-rule="nonzero"/><path fill="#303c42" d="M 249.824219 185.226562 L 124.777344 185.226562 C 123.019531 185.226562 121.699219 183.910156 121.699219 182.152344 L 121.699219 19.03125 C 121.699219 17.273438 123.019531 15.953125 124.777344 15.953125 L 212.195312 15.953125 C 213.949219 15.953125 215.269531 17.273438 215.269531 19.03125 L 215.269531 53.585938 L 249.824219 53.585938 C 251.582031 53.585938 252.902344 54.90625 252.902344 56.660156 L 252.902344 182.003906 C 252.902344 183.761719 251.582031 185.226562 249.824219 185.226562 Z M 127.851562 178.929688 L 246.75 178.929688 L 246.75 59.738281 L 212.195312 59.738281 C 210.4375 59.738281 209.117188 58.417969 209.117188 56.660156 L 209.117188 22.105469 L 127.851562 22.105469 Z M 127.851562 178.929688 " fill-opacity="1" fill-rule="nonzero"/></g><path fill="#303c42" d="M 219.660156 106.300781 L 155.820312 106.300781 C 154.0625 106.300781 152.742188 104.984375 152.742188 103.226562 C 152.742188 101.46875 154.0625 100.152344 155.820312 100.152344 L 219.660156 100.152344 C 221.417969 100.152344 222.738281 101.46875 222.738281 103.226562 C 222.738281 104.984375 221.273438 106.300781 219.660156 106.300781 Z M 219.660156 106.300781 " fill-opacity="1" fill-rule="nonzero"/><g fill="#303c42" fill-opacity="1"><g transform="translate(120.319435, 267.221584)"><g><path d="M 17.015625 -14.953125 C 16.523438 -15.859375 15.847656 -16.546875 14.984375 -17.015625 C 14.128906 -17.484375 13.128906 -17.71875 11.984375 -17.71875 C 10.710938 -17.71875 9.585938 -17.429688 8.609375 -16.859375 C 7.628906 -16.285156 6.863281 -15.46875 6.3125 -14.40625 C 5.757812 -13.34375 5.484375 -12.117188 5.484375 -10.734375 C 5.484375 -9.296875 5.765625 -8.046875 6.328125 -6.984375 C 6.890625 -5.921875 7.671875 -5.101562 8.671875 -4.53125 C 9.671875 -3.957031 10.835938 -3.671875 12.171875 -3.671875 C 13.804688 -3.671875 15.144531 -4.101562 16.1875 -4.96875 C 17.226562 -5.84375 17.910156 -7.054688 18.234375 -8.609375 L 10.890625 -8.609375 L 10.890625 -11.890625 L 22.46875 -11.890625 L 22.46875 -8.15625 C 22.1875 -6.664062 21.570312 -5.285156 20.625 -4.015625 C 19.6875 -2.742188 18.476562 -1.722656 17 -0.953125 C 15.519531 -0.191406 13.859375 0.1875 12.015625 0.1875 C 9.953125 0.1875 8.085938 -0.273438 6.421875 -1.203125 C 4.753906 -2.140625 3.445312 -3.4375 2.5 -5.09375 C 1.550781 -6.75 1.078125 -8.628906 1.078125 -10.734375 C 1.078125 -12.835938 1.550781 -14.722656 2.5 -16.390625 C 3.445312 -18.054688 4.753906 -19.351562 6.421875 -20.28125 C 8.085938 -21.207031 9.941406 -21.671875 11.984375 -21.671875 C 14.398438 -21.671875 16.492188 -21.082031 18.265625 -19.90625 C 20.046875 -18.738281 21.273438 -17.085938 21.953125 -14.953125 Z M 17.015625 -14.953125 "/></g></g></g><g fill="#303c42" fill-opacity="1"><g transform="translate(148.554359, 267.221584)"><g><path d="M 15.234375 -4.078125 L 6.71875 -4.078125 L 5.296875 0 L 0.796875 0 L 8.484375 -21.421875 L 13.484375 -21.421875 L 21.1875 0 L 16.640625 0 Z M 14.078125 -7.515625 L 10.96875 -16.46875 L 7.875 -7.515625 Z M 14.078125 -7.515625 "/></g></g></g><g fill="#303c42" fill-opacity="1"><g transform="translate(175.195205, 267.221584)"><g><path d="M 11.828125 -28.328125 L 11.828125 -24.828125 L 8.1875 -24.828125 L 8.1875 2.484375 L 11.828125 2.484375 L 11.828125 6.046875 L 4.140625 6.046875 L 4.140625 -28.328125 Z M 11.828125 -28.328125 "/></g></g></g><g fill="#303c42" fill-opacity="1"><g transform="translate(195.122488, 267.221584)"><g><path d="M 11.0625 6.046875 L 3.375 6.046875 L 3.375 2.484375 L 7.015625 2.484375 L 7.015625 -24.828125 L 3.375 -24.828125 L 3.375 -28.328125 L 11.0625 -28.328125 Z M 11.0625 6.046875 "/></g></g></g><g fill="#303c42" fill-opacity="1"><g transform="translate(215.019114, 267.221584)"><g><path d="M 6.40625 -17.9375 L 6.40625 -12.5625 L 13.609375 -12.5625 L 13.609375 -9.171875 L 6.40625 -9.171875 L 6.40625 -3.5 L 14.53125 -3.5 L 14.53125 0 L 2.109375 0 L 2.109375 -21.421875 L 14.53125 -21.421875 L 14.53125 -17.9375 Z M 6.40625 -17.9375 "/></g></g></g><g fill="#303c42" fill-opacity="1"><g transform="translate(236.019344, 267.221584)"><g><path d="M 17.71875 -14.78125 C 17.71875 -13.632812 17.445312 -12.5625 16.90625 -11.5625 C 16.363281 -10.5625 15.515625 -9.753906 14.359375 -9.140625 C 13.203125 -8.523438 11.75 -8.21875 10 -8.21875 L 6.40625 -8.21875 L 6.40625 0 L 2.109375 0 L 2.109375 -21.390625 L 10 -21.390625 C 11.65625 -21.390625 13.0625 -21.101562 14.21875 -20.53125 C 15.382812 -19.96875 16.257812 -19.179688 16.84375 -18.171875 C 17.425781 -17.171875 17.71875 -16.039062 17.71875 -14.78125 Z M 9.8125 -11.6875 C 11 -11.6875 11.878906 -11.957031 12.453125 -12.5 C 13.023438 -13.039062 13.3125 -13.800781 13.3125 -14.78125 C 13.3125 -16.863281 12.144531 -17.90625 9.8125 -17.90625 L 6.40625 -17.90625 L 6.40625 -11.6875 Z M 9.8125 -11.6875 "/></g></g></g><g fill="#333333" fill-opacity="1"><g transform="translate(57.36529, 308.369376)"><g><path d="M 10.875 -8.890625 C 10.519531 -9.617188 10.015625 -10.179688 9.359375 -10.578125 C 8.703125 -10.984375 7.9375 -11.1875 7.0625 -11.1875 C 6.1875 -11.1875 5.394531 -10.984375 4.6875 -10.578125 C 3.988281 -10.179688 3.4375 -9.609375 3.03125 -8.859375 C 2.632812 -8.117188 2.4375 -7.253906 2.4375 -6.265625 C 2.4375 -5.285156 2.632812 -4.421875 3.03125 -3.671875 C 3.4375 -2.929688 3.988281 -2.359375 4.6875 -1.953125 C 5.394531 -1.554688 6.1875 -1.359375 7.0625 -1.359375 C 8.28125 -1.359375 9.285156 -1.722656 10.078125 -2.453125 C 10.867188 -3.191406 11.332031 -4.179688 11.46875 -5.421875 L 6.46875 -5.421875 L 6.46875 -6.75 L 13.203125 -6.75 L 13.203125 -5.5 C 13.109375 -4.46875 12.785156 -3.523438 12.234375 -2.671875 C 11.679688 -1.816406 10.957031 -1.140625 10.0625 -0.640625 C 9.164062 -0.140625 8.164062 0.109375 7.0625 0.109375 C 5.894531 0.109375 4.832031 -0.160156 3.875 -0.703125 C 2.914062 -1.253906 2.15625 -2.015625 1.59375 -2.984375 C 1.039062 -3.953125 0.765625 -5.046875 0.765625 -6.265625 C 0.765625 -7.492188 1.039062 -8.59375 1.59375 -9.5625 C 2.15625 -10.539062 2.914062 -11.300781 3.875 -11.84375 C 4.832031 -12.394531 5.894531 -12.671875 7.0625 -12.671875 C 8.394531 -12.671875 9.570312 -12.335938 10.59375 -11.671875 C 11.613281 -11.015625 12.359375 -10.085938 12.828125 -8.890625 Z M 10.875 -8.890625 "/></g></g></g><g fill="#333333" fill-opacity="1"><g transform="translate(74.093844, 308.369376)"><g><path d="M 10.109375 -9.84375 L 10.109375 0 L 8.484375 0 L 8.484375 -1.453125 C 8.171875 -0.953125 7.734375 -0.5625 7.171875 -0.28125 C 6.617188 0 6.007812 0.140625 5.34375 0.140625 C 4.570312 0.140625 3.878906 -0.015625 3.265625 -0.328125 C 2.660156 -0.648438 2.179688 -1.128906 1.828125 -1.765625 C 1.472656 -2.398438 1.296875 -3.171875 1.296875 -4.078125 L 1.296875 -9.84375 L 2.90625 -9.84375 L 2.90625 -4.296875 C 2.90625 -3.328125 3.148438 -2.582031 3.640625 -2.0625 C 4.140625 -1.539062 4.8125 -1.28125 5.65625 -1.28125 C 6.53125 -1.28125 7.21875 -1.546875 7.71875 -2.078125 C 8.226562 -2.617188 8.484375 -3.40625 8.484375 -4.4375 L 8.484375 -9.84375 Z M 10.109375 -9.84375 "/></g></g></g><g fill="#333333" fill-opacity="1"><g transform="translate(88.342949, 308.369376)"><g><path d="M 2.234375 -11.453125 C 1.921875 -11.453125 1.65625 -11.554688 1.4375 -11.765625 C 1.21875 -11.984375 1.109375 -12.25 1.109375 -12.5625 C 1.109375 -12.875 1.21875 -13.132812 1.4375 -13.34375 C 1.65625 -13.5625 1.921875 -13.671875 2.234375 -13.671875 C 2.523438 -13.671875 2.773438 -13.5625 2.984375 -13.34375 C 3.203125 -13.132812 3.3125 -12.875 3.3125 -12.5625 C 3.3125 -12.25 3.203125 -11.984375 2.984375 -11.765625 C 2.773438 -11.554688 2.523438 -11.453125 2.234375 -11.453125 Z M 3.015625 -9.84375 L 3.015625 0 L 1.390625 0 L 1.390625 -9.84375 Z M 3.015625 -9.84375 "/></g></g></g><g fill="#333333" fill-opacity="1"><g transform="translate(95.513051, 308.369376)"><g><path d="M 0.765625 -4.953125 C 0.765625 -5.960938 0.96875 -6.847656 1.375 -7.609375 C 1.789062 -8.367188 2.351562 -8.957031 3.0625 -9.375 C 3.769531 -9.800781 4.570312 -10.015625 5.46875 -10.015625 C 6.226562 -10.015625 6.9375 -9.835938 7.59375 -9.484375 C 8.257812 -9.128906 8.765625 -8.660156 9.109375 -8.078125 L 9.109375 -13.296875 L 10.765625 -13.296875 L 10.765625 0 L 9.109375 0 L 9.109375 -1.84375 C 8.785156 -1.257812 8.304688 -0.78125 7.671875 -0.40625 C 7.035156 -0.03125 6.289062 0.15625 5.4375 0.15625 C 4.5625 0.15625 3.769531 -0.0546875 3.0625 -0.484375 C 2.351562 -0.910156 1.789062 -1.515625 1.375 -2.296875 C 0.96875 -3.078125 0.765625 -3.960938 0.765625 -4.953125 Z M 9.109375 -4.9375 C 9.109375 -5.6875 8.957031 -6.332031 8.65625 -6.875 C 8.363281 -7.425781 7.960938 -7.847656 7.453125 -8.140625 C 6.941406 -8.441406 6.378906 -8.59375 5.765625 -8.59375 C 5.148438 -8.59375 4.59375 -8.445312 4.09375 -8.15625 C 3.59375 -7.863281 3.191406 -7.441406 2.890625 -6.890625 C 2.585938 -6.347656 2.4375 -5.703125 2.4375 -4.953125 C 2.4375 -4.203125 2.585938 -3.546875 2.890625 -2.984375 C 3.191406 -2.429688 3.59375 -2.007812 4.09375 -1.71875 C 4.59375 -1.425781 5.148438 -1.28125 5.765625 -1.28125 C 6.378906 -1.28125 6.941406 -1.425781 7.453125 -1.71875 C 7.960938 -2.007812 8.363281 -2.429688 8.65625 -2.984375 C 8.957031 -3.546875 9.109375 -4.195312 9.109375 -4.9375 Z M 9.109375 -4.9375 "/></g></g></g><g fill="#333333" fill-opacity="1"><g transform="translate(110.408972, 308.369376)"><g><path d="M 10.375 -5.296875 C 10.375 -4.984375 10.351562 -4.65625 10.3125 -4.3125 L 2.4375 -4.3125 C 2.5 -3.34375 2.832031 -2.582031 3.4375 -2.03125 C 4.039062 -1.488281 4.773438 -1.21875 5.640625 -1.21875 C 6.347656 -1.21875 6.9375 -1.378906 7.40625 -1.703125 C 7.882812 -2.035156 8.21875 -2.476562 8.40625 -3.03125 L 10.171875 -3.03125 C 9.910156 -2.082031 9.382812 -1.3125 8.59375 -0.71875 C 7.800781 -0.132812 6.816406 0.15625 5.640625 0.15625 C 4.703125 0.15625 3.863281 -0.0507812 3.125 -0.46875 C 2.394531 -0.882812 1.816406 -1.476562 1.390625 -2.25 C 0.972656 -3.019531 0.765625 -3.914062 0.765625 -4.9375 C 0.765625 -5.957031 0.96875 -6.847656 1.375 -7.609375 C 1.789062 -8.378906 2.363281 -8.972656 3.09375 -9.390625 C 3.832031 -9.804688 4.679688 -10.015625 5.640625 -10.015625 C 6.578125 -10.015625 7.40625 -9.804688 8.125 -9.390625 C 8.84375 -8.984375 9.394531 -8.421875 9.78125 -7.703125 C 10.175781 -6.992188 10.375 -6.191406 10.375 -5.296875 Z M 8.671875 -5.640625 C 8.671875 -6.265625 8.535156 -6.800781 8.265625 -7.25 C 7.992188 -7.695312 7.617188 -8.035156 7.140625 -8.265625 C 6.671875 -8.503906 6.144531 -8.625 5.5625 -8.625 C 4.738281 -8.625 4.035156 -8.359375 3.453125 -7.828125 C 2.878906 -7.304688 2.550781 -6.578125 2.46875 -5.640625 Z M 8.671875 -5.640625 "/></g></g></g><g fill="#333333" fill-opacity="1"><g transform="translate(124.298735, 308.369376)"><g><path d="M 3.015625 -13.296875 L 3.015625 0 L 1.390625 0 L 1.390625 -13.296875 Z M 3.015625 -13.296875 "/></g></g></g><g fill="#333333" fill-opacity="1"><g transform="translate(131.468834, 308.369376)"><g><path d="M 2.234375 -11.453125 C 1.921875 -11.453125 1.65625 -11.554688 1.4375 -11.765625 C 1.21875 -11.984375 1.109375 -12.25 1.109375 -12.5625 C 1.109375 -12.875 1.21875 -13.132812 1.4375 -13.34375 C 1.65625 -13.5625 1.921875 -13.671875 2.234375 -13.671875 C 2.523438 -13.671875 2.773438 -13.5625 2.984375 -13.34375 C 3.203125 -13.132812 3.3125 -12.875 3.3125 -12.5625 C 3.3125 -12.25 3.203125 -11.984375 2.984375 -11.765625 C 2.773438 -11.554688 2.523438 -11.453125 2.234375 -11.453125 Z M 3.015625 -9.84375 L 3.015625 0 L 1.390625 0 L 1.390625 -9.84375 Z M 3.015625 -9.84375 "/></g></g></g><g fill="#333333" fill-opacity="1"><g transform="translate(138.638933, 308.369376)"><g><path d="M 6.1875 -10.03125 C 7.382812 -10.03125 8.351562 -9.664062 9.09375 -8.9375 C 9.832031 -8.21875 10.203125 -7.171875 10.203125 -5.796875 L 10.203125 0 L 8.59375 0 L 8.59375 -5.5625 C 8.59375 -6.550781 8.34375 -7.304688 7.84375 -7.828125 C 7.351562 -8.347656 6.6875 -8.609375 5.84375 -8.609375 C 4.976562 -8.609375 4.289062 -8.335938 3.78125 -7.796875 C 3.269531 -7.253906 3.015625 -6.46875 3.015625 -5.4375 L 3.015625 0 L 1.390625 0 L 1.390625 -9.84375 L 3.015625 -9.84375 L 3.015625 -8.4375 C 3.335938 -8.945312 3.773438 -9.335938 4.328125 -9.609375 C 4.890625 -9.890625 5.507812 -10.03125 6.1875 -10.03125 Z M 6.1875 -10.03125 "/></g></g></g><g fill="#333333" fill-opacity="1"><g transform="translate(152.888038, 308.369376)"><g><path d="M 10.375 -5.296875 C 10.375 -4.984375 10.351562 -4.65625 10.3125 -4.3125 L 2.4375 -4.3125 C 2.5 -3.34375 2.832031 -2.582031 3.4375 -2.03125 C 4.039062 -1.488281 4.773438 -1.21875 5.640625 -1.21875 C 6.347656 -1.21875 6.9375 -1.378906 7.40625 -1.703125 C 7.882812 -2.035156 8.21875 -2.476562 8.40625 -3.03125 L 10.171875 -3.03125 C 9.910156 -2.082031 9.382812 -1.3125 8.59375 -0.71875 C 7.800781 -0.132812 6.816406 0.15625 5.640625 0.15625 C 4.703125 0.15625 3.863281 -0.0507812 3.125 -0.46875 C 2.394531 -0.882812 1.816406 -1.476562 1.390625 -2.25 C 0.972656 -3.019531 0.765625 -3.914062 0.765625 -4.9375 C 0.765625 -5.957031 0.96875 -6.847656 1.375 -7.609375 C 1.789062 -8.378906 2.363281 -8.972656 3.09375 -9.390625 C 3.832031 -9.804688 4.679688 -10.015625 5.640625 -10.015625 C 6.578125 -10.015625 7.40625 -9.804688 8.125 -9.390625 C 8.84375 -8.984375 9.394531 -8.421875 9.78125 -7.703125 C 10.175781 -6.992188 10.375 -6.191406 10.375 -5.296875 Z M 8.671875 -5.640625 C 8.671875 -6.265625 8.535156 -6.800781 8.265625 -7.25 C 7.992188 -7.695312 7.617188 -8.035156 7.140625 -8.265625 C 6.671875 -8.503906 6.144531 -8.625 5.5625 -8.625 C 4.738281 -8.625 4.035156 -8.359375 3.453125 -7.828125 C 2.878906 -7.304688 2.550781 -6.578125 2.46875 -5.640625 Z M 8.671875 -5.640625 "/></g></g></g><g fill="#333333" fill-opacity="1"><g transform="translate(166.777807, 308.369376)"><g/></g></g><g fill="#333333" fill-opacity="1"><g transform="translate(174.325216, 308.369376)"><g><path d="M 8.78125 -2.78125 L 3.328125 -2.78125 L 2.3125 0 L 0.59375 0 L 5.125 -12.453125 L 7 -12.453125 L 11.515625 0 L 9.796875 0 Z M 8.3125 -4.109375 L 6.0625 -10.4375 L 3.796875 -4.109375 Z M 8.3125 -4.109375 "/></g></g></g><g fill="#333333" fill-opacity="1"><g transform="translate(189.185198, 308.369376)"><g><path d="M 4.875 0.15625 C 4.113281 0.15625 3.429688 0.03125 2.828125 -0.21875 C 2.234375 -0.476562 1.757812 -0.835938 1.40625 -1.296875 C 1.0625 -1.765625 0.875 -2.296875 0.84375 -2.890625 L 2.53125 -2.890625 C 2.582031 -2.398438 2.8125 -2 3.21875 -1.6875 C 3.632812 -1.375 4.175781 -1.21875 4.84375 -1.21875 C 5.46875 -1.21875 5.957031 -1.351562 6.3125 -1.625 C 6.675781 -1.90625 6.859375 -2.253906 6.859375 -2.671875 C 6.859375 -3.109375 6.664062 -3.429688 6.28125 -3.640625 C 5.90625 -3.847656 5.316406 -4.054688 4.515625 -4.265625 C 3.773438 -4.453125 3.175781 -4.644531 2.71875 -4.84375 C 2.257812 -5.039062 1.863281 -5.332031 1.53125 -5.71875 C 1.207031 -6.113281 1.046875 -6.628906 1.046875 -7.265625 C 1.046875 -7.765625 1.191406 -8.222656 1.484375 -8.640625 C 1.785156 -9.054688 2.210938 -9.390625 2.765625 -9.640625 C 3.316406 -9.890625 3.945312 -10.015625 4.65625 -10.015625 C 5.738281 -10.015625 6.613281 -9.738281 7.28125 -9.1875 C 7.957031 -8.632812 8.320312 -7.878906 8.375 -6.921875 L 6.734375 -6.921875 C 6.703125 -7.429688 6.492188 -7.84375 6.109375 -8.15625 C 5.734375 -8.46875 5.226562 -8.625 4.59375 -8.625 C 4.007812 -8.625 3.539062 -8.5 3.1875 -8.25 C 2.84375 -8 2.671875 -7.671875 2.671875 -7.265625 C 2.671875 -6.941406 2.773438 -6.671875 2.984375 -6.453125 C 3.203125 -6.242188 3.46875 -6.078125 3.78125 -5.953125 C 4.101562 -5.828125 4.546875 -5.6875 5.109375 -5.53125 C 5.804688 -5.34375 6.378906 -5.15625 6.828125 -4.96875 C 7.273438 -4.78125 7.65625 -4.5 7.96875 -4.125 C 8.28125 -3.757812 8.445312 -3.273438 8.46875 -2.671875 C 8.46875 -2.140625 8.316406 -1.65625 8.015625 -1.21875 C 7.710938 -0.789062 7.285156 -0.453125 6.734375 -0.203125 C 6.191406 0.0351562 5.570312 0.15625 4.875 0.15625 Z M 4.875 0.15625 "/></g></g></g><g fill="#333333" fill-opacity="1"><g transform="translate(201.314194, 308.369376)"><g><path d="M 4.875 0.15625 C 4.113281 0.15625 3.429688 0.03125 2.828125 -0.21875 C 2.234375 -0.476562 1.757812 -0.835938 1.40625 -1.296875 C 1.0625 -1.765625 0.875 -2.296875 0.84375 -2.890625 L 2.53125 -2.890625 C 2.582031 -2.398438 2.8125 -2 3.21875 -1.6875 C 3.632812 -1.375 4.175781 -1.21875 4.84375 -1.21875 C 5.46875 -1.21875 5.957031 -1.351562 6.3125 -1.625 C 6.675781 -1.90625 6.859375 -2.253906 6.859375 -2.671875 C 6.859375 -3.109375 6.664062 -3.429688 6.28125 -3.640625 C 5.90625 -3.847656 5.316406 -4.054688 4.515625 -4.265625 C 3.773438 -4.453125 3.175781 -4.644531 2.71875 -4.84375 C 2.257812 -5.039062 1.863281 -5.332031 1.53125 -5.71875 C 1.207031 -6.113281 1.046875 -6.628906 1.046875 -7.265625 C 1.046875 -7.765625 1.191406 -8.222656 1.484375 -8.640625 C 1.785156 -9.054688 2.210938 -9.390625 2.765625 -9.640625 C 3.316406 -9.890625 3.945312 -10.015625 4.65625 -10.015625 C 5.738281 -10.015625 6.613281 -9.738281 7.28125 -9.1875 C 7.957031 -8.632812 8.320312 -7.878906 8.375 -6.921875 L 6.734375 -6.921875 C 6.703125 -7.429688 6.492188 -7.84375 6.109375 -8.15625 C 5.734375 -8.46875 5.226562 -8.625 4.59375 -8.625 C 4.007812 -8.625 3.539062 -8.5 3.1875 -8.25 C 2.84375 -8 2.671875 -7.671875 2.671875 -7.265625 C 2.671875 -6.941406 2.773438 -6.671875 2.984375 -6.453125 C 3.203125 -6.242188 3.46875 -6.078125 3.78125 -5.953125 C 4.101562 -5.828125 4.546875 -5.6875 5.109375 -5.53125 C 5.804688 -5.34375 6.378906 -5.15625 6.828125 -4.96875 C 7.273438 -4.78125 7.65625 -4.5 7.96875 -4.125 C 8.28125 -3.757812 8.445312 -3.273438 8.46875 -2.671875 C 8.46875 -2.140625 8.316406 -1.65625 8.015625 -1.21875 C 7.710938 -0.789062 7.285156 -0.453125 6.734375 -0.203125 C 6.191406 0.0351562 5.570312 0.15625 4.875 0.15625 Z M 4.875 0.15625 "/></g></g></g><g fill="#333333" fill-opacity="1"><g transform="translate(213.44319, 308.369376)"><g><path d="M 2.234375 -11.453125 C 1.921875 -11.453125 1.65625 -11.554688 1.4375 -11.765625 C 1.21875 -11.984375 1.109375 -12.25 1.109375 -12.5625 C 1.109375 -12.875 1.21875 -13.132812 1.4375 -13.34375 C 1.65625 -13.5625 1.921875 -13.671875 2.234375 -13.671875 C 2.523438 -13.671875 2.773438 -13.5625 2.984375 -13.34375 C 3.203125 -13.132812 3.3125 -12.875 3.3125 -12.5625 C 3.3125 -12.25 3.203125 -11.984375 2.984375 -11.765625 C 2.773438 -11.554688 2.523438 -11.453125 2.234375 -11.453125 Z M 3.015625 -9.84375 L 3.015625 0 L 1.390625 0 L 1.390625 -9.84375 Z M 3.015625 -9.84375 "/></g></g></g><g fill="#333333" fill-opacity="1"><g transform="translate(220.613289, 308.369376)"><g><path d="M 4.875 0.15625 C 4.113281 0.15625 3.429688 0.03125 2.828125 -0.21875 C 2.234375 -0.476562 1.757812 -0.835938 1.40625 -1.296875 C 1.0625 -1.765625 0.875 -2.296875 0.84375 -2.890625 L 2.53125 -2.890625 C 2.582031 -2.398438 2.8125 -2 3.21875 -1.6875 C 3.632812 -1.375 4.175781 -1.21875 4.84375 -1.21875 C 5.46875 -1.21875 5.957031 -1.351562 6.3125 -1.625 C 6.675781 -1.90625 6.859375 -2.253906 6.859375 -2.671875 C 6.859375 -3.109375 6.664062 -3.429688 6.28125 -3.640625 C 5.90625 -3.847656 5.316406 -4.054688 4.515625 -4.265625 C 3.773438 -4.453125 3.175781 -4.644531 2.71875 -4.84375 C 2.257812 -5.039062 1.863281 -5.332031 1.53125 -5.71875 C 1.207031 -6.113281 1.046875 -6.628906 1.046875 -7.265625 C 1.046875 -7.765625 1.191406 -8.222656 1.484375 -8.640625 C 1.785156 -9.054688 2.210938 -9.390625 2.765625 -9.640625 C 3.316406 -9.890625 3.945312 -10.015625 4.65625 -10.015625 C 5.738281 -10.015625 6.613281 -9.738281 7.28125 -9.1875 C 7.957031 -8.632812 8.320312 -7.878906 8.375 -6.921875 L 6.734375 -6.921875 C 6.703125 -7.429688 6.492188 -7.84375 6.109375 -8.15625 C 5.734375 -8.46875 5.226562 -8.625 4.59375 -8.625 C 4.007812 -8.625 3.539062 -8.5 3.1875 -8.25 C 2.84375 -8 2.671875 -7.671875 2.671875 -7.265625 C 2.671875 -6.941406 2.773438 -6.671875 2.984375 -6.453125 C 3.203125 -6.242188 3.46875 -6.078125 3.78125 -5.953125 C 4.101562 -5.828125 4.546875 -5.6875 5.109375 -5.53125 C 5.804688 -5.34375 6.378906 -5.15625 6.828125 -4.96875 C 7.273438 -4.78125 7.65625 -4.5 7.96875 -4.125 C 8.28125 -3.757812 8.445312 -3.273438 8.46875 -2.671875 C 8.46875 -2.140625 8.316406 -1.65625 8.015625 -1.21875 C 7.710938 -0.789062 7.285156 -0.453125 6.734375 -0.203125 C 6.191406 0.0351562 5.570312 0.15625 4.875 0.15625 Z M 4.875 0.15625 "/></g></g></g><g fill="#333333" fill-opacity="1"><g transform="translate(232.742286, 308.369376)"><g><path d="M 3.375 -8.5 L 3.375 -2.6875 C 3.375 -2.207031 3.472656 -1.867188 3.671875 -1.671875 C 3.878906 -1.484375 4.238281 -1.390625 4.75 -1.390625 L 5.953125 -1.390625 L 5.953125 0 L 4.46875 0 C 3.5625 0 2.878906 -0.207031 2.421875 -0.625 C 1.972656 -1.039062 1.75 -1.726562 1.75 -2.6875 L 1.75 -8.5 L 0.46875 -8.5 L 0.46875 -9.84375 L 1.75 -9.84375 L 1.75 -12.328125 L 3.375 -12.328125 L 3.375 -9.84375 L 5.953125 -9.84375 L 5.953125 -8.5 Z M 3.375 -8.5 "/></g></g></g><g fill="#333333" fill-opacity="1"><g transform="translate(242.032492, 308.369376)"><g><path d="M 0.765625 -4.953125 C 0.765625 -5.960938 0.96875 -6.847656 1.375 -7.609375 C 1.789062 -8.367188 2.351562 -8.957031 3.0625 -9.375 C 3.769531 -9.800781 4.5625 -10.015625 5.4375 -10.015625 C 6.300781 -10.015625 7.050781 -9.828125 7.6875 -9.453125 C 8.320312 -9.078125 8.796875 -8.609375 9.109375 -8.046875 L 9.109375 -9.84375 L 10.765625 -9.84375 L 10.765625 0 L 9.109375 0 L 9.109375 -1.828125 C 8.785156 -1.253906 8.300781 -0.78125 7.65625 -0.40625 C 7.019531 -0.03125 6.273438 0.15625 5.421875 0.15625 C 4.546875 0.15625 3.753906 -0.0546875 3.046875 -0.484375 C 2.347656 -0.910156 1.789062 -1.515625 1.375 -2.296875 C 0.96875 -3.078125 0.765625 -3.960938 0.765625 -4.953125 Z M 9.109375 -4.9375 C 9.109375 -5.6875 8.957031 -6.332031 8.65625 -6.875 C 8.363281 -7.425781 7.960938 -7.847656 7.453125 -8.140625 C 6.941406 -8.441406 6.378906 -8.59375 5.765625 -8.59375 C 5.148438 -8.59375 4.59375 -8.445312 4.09375 -8.15625 C 3.59375 -7.863281 3.191406 -7.441406 2.890625 -6.890625 C 2.585938 -6.347656 2.4375 -5.703125 2.4375 -4.953125 C 2.4375 -4.203125 2.585938 -3.546875 2.890625 -2.984375 C 3.191406 -2.429688 3.59375 -2.007812 4.09375 -1.71875 C 4.59375 -1.425781 5.148438 -1.28125 5.765625 -1.28125 C 6.378906 -1.28125 6.941406 -1.425781 7.453125 -1.71875 C 7.960938 -2.007812 8.363281 -2.429688 8.65625 -2.984375 C 8.957031 -3.546875 9.109375 -4.195312 9.109375 -4.9375 Z M 9.109375 -4.9375 "/></g></g></g><g fill="#333333" fill-opacity="1"><g transform="translate(256.928413, 308.369376)"><g><path d="M 6.1875 -10.03125 C 7.382812 -10.03125 8.351562 -9.664062 9.09375 -8.9375 C 9.832031 -8.21875 10.203125 -7.171875 10.203125 -5.796875 L 10.203125 0 L 8.59375 0 L 8.59375 -5.5625 C 8.59375 -6.550781 8.34375 -7.304688 7.84375 -7.828125 C 7.351562 -8.347656 6.6875 -8.609375 5.84375 -8.609375 C 4.976562 -8.609375 4.289062 -8.335938 3.78125 -7.796875 C 3.269531 -7.253906 3.015625 -6.46875 3.015625 -5.4375 L 3.015625 0 L 1.390625 0 L 1.390625 -9.84375 L 3.015625 -9.84375 L 3.015625 -8.4375 C 3.335938 -8.945312 3.773438 -9.335938 4.328125 -9.609375 C 4.890625 -9.890625 5.507812 -10.03125 6.1875 -10.03125 Z M 6.1875 -10.03125 "/></g></g></g><g fill="#333333" fill-opacity="1"><g transform="translate(271.177529, 308.369376)"><g><path d="M 3.375 -8.5 L 3.375 -2.6875 C 3.375 -2.207031 3.472656 -1.867188 3.671875 -1.671875 C 3.878906 -1.484375 4.238281 -1.390625 4.75 -1.390625 L 5.953125 -1.390625 L 5.953125 0 L 4.46875 0 C 3.5625 0 2.878906 -0.207031 2.421875 -0.625 C 1.972656 -1.039062 1.75 -1.726562 1.75 -2.6875 L 1.75 -8.5 L 0.46875 -8.5 L 0.46875 -9.84375 L 1.75 -9.84375 L 1.75 -12.328125 L 3.375 -12.328125 L 3.375 -9.84375 L 5.953125 -9.84375 L 5.953125 -8.5 Z M 3.375 -8.5 "/></g></g></g><g fill="#333333" fill-opacity="1"><g transform="translate(280.467736, 308.369376)"><g/></g></g><g fill="#333333" fill-opacity="1"><g transform="translate(288.015158, 308.369376)"><g><path d="M 5.390625 -8.5 L 3.328125 -8.5 L 3.328125 0 L 1.6875 0 L 1.6875 -8.5 L 0.40625 -8.5 L 0.40625 -9.84375 L 1.6875 -9.84375 L 1.6875 -10.546875 C 1.6875 -11.648438 1.96875 -12.457031 2.53125 -12.96875 C 3.101562 -13.476562 4.019531 -13.734375 5.28125 -13.734375 L 5.28125 -12.359375 C 4.5625 -12.359375 4.054688 -12.21875 3.765625 -11.9375 C 3.472656 -11.65625 3.328125 -11.191406 3.328125 -10.546875 L 3.328125 -9.84375 L 5.390625 -9.84375 Z M 5.390625 -8.5 "/></g></g></g><g fill="#333333" fill-opacity="1"><g transform="translate(296.676517, 308.369376)"><g><path d="M 5.671875 0.15625 C 4.753906 0.15625 3.921875 -0.0507812 3.171875 -0.46875 C 2.421875 -0.882812 1.832031 -1.476562 1.40625 -2.25 C 0.976562 -3.019531 0.765625 -3.914062 0.765625 -4.9375 C 0.765625 -5.945312 0.984375 -6.835938 1.421875 -7.609375 C 1.859375 -8.378906 2.453125 -8.972656 3.203125 -9.390625 C 3.960938 -9.804688 4.8125 -10.015625 5.75 -10.015625 C 6.6875 -10.015625 7.53125 -9.804688 8.28125 -9.390625 C 9.039062 -8.972656 9.640625 -8.378906 10.078125 -7.609375 C 10.515625 -6.847656 10.734375 -5.957031 10.734375 -4.9375 C 10.734375 -3.914062 10.503906 -3.019531 10.046875 -2.25 C 9.597656 -1.476562 8.988281 -0.882812 8.21875 -0.46875 C 7.457031 -0.0507812 6.609375 0.15625 5.671875 0.15625 Z M 5.671875 -1.28125 C 6.265625 -1.28125 6.816406 -1.414062 7.328125 -1.6875 C 7.847656 -1.96875 8.265625 -2.378906 8.578125 -2.921875 C 8.898438 -3.472656 9.0625 -4.144531 9.0625 -4.9375 C 9.0625 -5.726562 8.90625 -6.398438 8.59375 -6.953125 C 8.28125 -7.503906 7.867188 -7.914062 7.359375 -8.1875 C 6.859375 -8.457031 6.316406 -8.59375 5.734375 -8.59375 C 5.128906 -8.59375 4.578125 -8.457031 4.078125 -8.1875 C 3.585938 -7.914062 3.191406 -7.503906 2.890625 -6.953125 C 2.585938 -6.398438 2.4375 -5.726562 2.4375 -4.9375 C 2.4375 -4.132812 2.582031 -3.457031 2.875 -2.90625 C 3.175781 -2.351562 3.570312 -1.941406 4.0625 -1.671875 C 4.550781 -1.410156 5.085938 -1.28125 5.671875 -1.28125 Z M 5.671875 -1.28125 "/></g></g></g><g fill="#333333" fill-opacity="1"><g transform="translate(310.925622, 308.369376)"><g><path d="M 3.015625 -8.25 C 3.304688 -8.8125 3.71875 -9.25 4.25 -9.5625 C 4.78125 -9.875 5.429688 -10.03125 6.203125 -10.03125 L 6.203125 -8.34375 L 5.765625 -8.34375 C 3.929688 -8.34375 3.015625 -7.347656 3.015625 -5.359375 L 3.015625 0 L 1.390625 0 L 1.390625 -9.84375 L 3.015625 -9.84375 Z M 3.015625 -8.25 "/></g></g></g><g fill="#333333" fill-opacity="1"><g transform="translate(13.57524, 332.953263)"><g><path d="M 3.015625 -11.1875 L 3.015625 -7 L 7.578125 -7 L 7.578125 -5.65625 L 3.015625 -5.65625 L 3.015625 -1.34375 L 8.125 -1.34375 L 8.125 0 L 1.390625 0 L 1.390625 -12.546875 L 8.125 -12.546875 L 8.125 -11.1875 Z M 3.015625 -11.1875 "/></g></g></g><g fill="#333333" fill-opacity="1"><g transform="translate(25.542537, 332.953263)"><g><path d="M 5.046875 -1.515625 L 8.109375 -9.84375 L 9.84375 -9.84375 L 5.984375 0 L 4.078125 0 L 0.21875 -9.84375 L 1.96875 -9.84375 Z M 5.046875 -1.515625 "/></g></g></g><g fill="#333333" fill-opacity="1"><g transform="translate(38.372246, 332.953263)"><g><path d="M 2.234375 -11.453125 C 1.921875 -11.453125 1.65625 -11.554688 1.4375 -11.765625 C 1.21875 -11.984375 1.109375 -12.25 1.109375 -12.5625 C 1.109375 -12.875 1.21875 -13.132812 1.4375 -13.34375 C 1.65625 -13.5625 1.921875 -13.671875 2.234375 -13.671875 C 2.523438 -13.671875 2.773438 -13.5625 2.984375 -13.34375 C 3.203125 -13.132812 3.3125 -12.875 3.3125 -12.5625 C 3.3125 -12.25 3.203125 -11.984375 2.984375 -11.765625 C 2.773438 -11.554688 2.523438 -11.453125 2.234375 -11.453125 Z M 3.015625 -9.84375 L 3.015625 0 L 1.390625 0 L 1.390625 -9.84375 Z M 3.015625 -9.84375 "/></g></g></g><g fill="#333333" fill-opacity="1"><g transform="translate(45.542348, 332.953263)"><g><path d="M 0.765625 -4.953125 C 0.765625 -5.960938 0.96875 -6.847656 1.375 -7.609375 C 1.789062 -8.367188 2.351562 -8.957031 3.0625 -9.375 C 3.769531 -9.800781 4.570312 -10.015625 5.46875 -10.015625 C 6.226562 -10.015625 6.9375 -9.835938 7.59375 -9.484375 C 8.257812 -9.128906 8.765625 -8.660156 9.109375 -8.078125 L 9.109375 -13.296875 L 10.765625 -13.296875 L 10.765625 0 L 9.109375 0 L 9.109375 -1.84375 C 8.785156 -1.257812 8.304688 -0.78125 7.671875 -0.40625 C 7.035156 -0.03125 6.289062 0.15625 5.4375 0.15625 C 4.5625 0.15625 3.769531 -0.0546875 3.0625 -0.484375 C 2.351562 -0.910156 1.789062 -1.515625 1.375 -2.296875 C 0.96875 -3.078125 0.765625 -3.960938 0.765625 -4.953125 Z M 9.109375 -4.9375 C 9.109375 -5.6875 8.957031 -6.332031 8.65625 -6.875 C 8.363281 -7.425781 7.960938 -7.847656 7.453125 -8.140625 C 6.941406 -8.441406 6.378906 -8.59375 5.765625 -8.59375 C 5.148438 -8.59375 4.59375 -8.445312 4.09375 -8.15625 C 3.59375 -7.863281 3.191406 -7.441406 2.890625 -6.890625 C 2.585938 -6.347656 2.4375 -5.703125 2.4375 -4.953125 C 2.4375 -4.203125 2.585938 -3.546875 2.890625 -2.984375 C 3.191406 -2.429688 3.59375 -2.007812 4.09375 -1.71875 C 4.59375 -1.425781 5.148438 -1.28125 5.765625 -1.28125 C 6.378906 -1.28125 6.941406 -1.425781 7.453125 -1.71875 C 7.960938 -2.007812 8.363281 -2.429688 8.65625 -2.984375 C 8.957031 -3.546875 9.109375 -4.195312 9.109375 -4.9375 Z M 9.109375 -4.9375 "/></g></g></g><g fill="#333333" fill-opacity="1"><g transform="translate(60.438269, 332.953263)"><g><path d="M 10.375 -5.296875 C 10.375 -4.984375 10.351562 -4.65625 10.3125 -4.3125 L 2.4375 -4.3125 C 2.5 -3.34375 2.832031 -2.582031 3.4375 -2.03125 C 4.039062 -1.488281 4.773438 -1.21875 5.640625 -1.21875 C 6.347656 -1.21875 6.9375 -1.378906 7.40625 -1.703125 C 7.882812 -2.035156 8.21875 -2.476562 8.40625 -3.03125 L 10.171875 -3.03125 C 9.910156 -2.082031 9.382812 -1.3125 8.59375 -0.71875 C 7.800781 -0.132812 6.816406 0.15625 5.640625 0.15625 C 4.703125 0.15625 3.863281 -0.0507812 3.125 -0.46875 C 2.394531 -0.882812 1.816406 -1.476562 1.390625 -2.25 C 0.972656 -3.019531 0.765625 -3.914062 0.765625 -4.9375 C 0.765625 -5.957031 0.96875 -6.847656 1.375 -7.609375 C 1.789062 -8.378906 2.363281 -8.972656 3.09375 -9.390625 C 3.832031 -9.804688 4.679688 -10.015625 5.640625 -10.015625 C 6.578125 -10.015625 7.40625 -9.804688 8.125 -9.390625 C 8.84375 -8.984375 9.394531 -8.421875 9.78125 -7.703125 C 10.175781 -6.992188 10.375 -6.191406 10.375 -5.296875 Z M 8.671875 -5.640625 C 8.671875 -6.265625 8.535156 -6.800781 8.265625 -7.25 C 7.992188 -7.695312 7.617188 -8.035156 7.140625 -8.265625 C 6.671875 -8.503906 6.144531 -8.625 5.5625 -8.625 C 4.738281 -8.625 4.035156 -8.359375 3.453125 -7.828125 C 2.878906 -7.304688 2.550781 -6.578125 2.46875 -5.640625 Z M 8.671875 -5.640625 "/></g></g></g><g fill="#333333" fill-opacity="1"><g transform="translate(74.328032, 332.953263)"><g><path d="M 6.1875 -10.03125 C 7.382812 -10.03125 8.351562 -9.664062 9.09375 -8.9375 C 9.832031 -8.21875 10.203125 -7.171875 10.203125 -5.796875 L 10.203125 0 L 8.59375 0 L 8.59375 -5.5625 C 8.59375 -6.550781 8.34375 -7.304688 7.84375 -7.828125 C 7.351562 -8.347656 6.6875 -8.609375 5.84375 -8.609375 C 4.976562 -8.609375 4.289062 -8.335938 3.78125 -7.796875 C 3.269531 -7.253906 3.015625 -6.46875 3.015625 -5.4375 L 3.015625 0 L 1.390625 0 L 1.390625 -9.84375 L 3.015625 -9.84375 L 3.015625 -8.4375 C 3.335938 -8.945312 3.773438 -9.335938 4.328125 -9.609375 C 4.890625 -9.890625 5.507812 -10.03125 6.1875 -10.03125 Z M 6.1875 -10.03125 "/></g></g></g><g fill="#333333" fill-opacity="1"><g transform="translate(88.577137, 332.953263)"><g><path d="M 0.765625 -4.9375 C 0.765625 -5.957031 0.96875 -6.847656 1.375 -7.609375 C 1.789062 -8.367188 2.359375 -8.957031 3.078125 -9.375 C 3.804688 -9.800781 4.632812 -10.015625 5.5625 -10.015625 C 6.78125 -10.015625 7.78125 -9.71875 8.5625 -9.125 C 9.34375 -8.539062 9.859375 -7.726562 10.109375 -6.6875 L 8.359375 -6.6875 C 8.191406 -7.28125 7.863281 -7.75 7.375 -8.09375 C 6.882812 -8.445312 6.28125 -8.625 5.5625 -8.625 C 4.632812 -8.625 3.878906 -8.300781 3.296875 -7.65625 C 2.722656 -7.019531 2.4375 -6.113281 2.4375 -4.9375 C 2.4375 -3.75 2.722656 -2.832031 3.296875 -2.1875 C 3.878906 -1.539062 4.632812 -1.21875 5.5625 -1.21875 C 6.28125 -1.21875 6.878906 -1.382812 7.359375 -1.71875 C 7.835938 -2.0625 8.171875 -2.539062 8.359375 -3.15625 L 10.109375 -3.15625 C 9.847656 -2.15625 9.320312 -1.351562 8.53125 -0.75 C 7.738281 -0.144531 6.75 0.15625 5.5625 0.15625 C 4.632812 0.15625 3.804688 -0.0507812 3.078125 -0.46875 C 2.359375 -0.882812 1.789062 -1.472656 1.375 -2.234375 C 0.96875 -3.003906 0.765625 -3.90625 0.765625 -4.9375 Z M 0.765625 -4.9375 "/></g></g></g><g fill="#333333" fill-opacity="1"><g transform="translate(102.233333, 332.953263)"><g><path d="M 10.375 -5.296875 C 10.375 -4.984375 10.351562 -4.65625 10.3125 -4.3125 L 2.4375 -4.3125 C 2.5 -3.34375 2.832031 -2.582031 3.4375 -2.03125 C 4.039062 -1.488281 4.773438 -1.21875 5.640625 -1.21875 C 6.347656 -1.21875 6.9375 -1.378906 7.40625 -1.703125 C 7.882812 -2.035156 8.21875 -2.476562 8.40625 -3.03125 L 10.171875 -3.03125 C 9.910156 -2.082031 9.382812 -1.3125 8.59375 -0.71875 C 7.800781 -0.132812 6.816406 0.15625 5.640625 0.15625 C 4.703125 0.15625 3.863281 -0.0507812 3.125 -0.46875 C 2.394531 -0.882812 1.816406 -1.476562 1.390625 -2.25 C 0.972656 -3.019531 0.765625 -3.914062 0.765625 -4.9375 C 0.765625 -5.957031 0.96875 -6.847656 1.375 -7.609375 C 1.789062 -8.378906 2.363281 -8.972656 3.09375 -9.390625 C 3.832031 -9.804688 4.679688 -10.015625 5.640625 -10.015625 C 6.578125 -10.015625 7.40625 -9.804688 8.125 -9.390625 C 8.84375 -8.984375 9.394531 -8.421875 9.78125 -7.703125 C 10.175781 -6.992188 10.375 -6.191406 10.375 -5.296875 Z M 8.671875 -5.640625 C 8.671875 -6.265625 8.535156 -6.800781 8.265625 -7.25 C 7.992188 -7.695312 7.617188 -8.035156 7.140625 -8.265625 C 6.671875 -8.503906 6.144531 -8.625 5.5625 -8.625 C 4.738281 -8.625 4.035156 -8.359375 3.453125 -7.828125 C 2.878906 -7.304688 2.550781 -6.578125 2.46875 -5.640625 Z M 8.671875 -5.640625 "/></g></g></g><g fill="#333333" fill-opacity="1"><g transform="translate(116.123101, 332.953263)"><g/></g></g><g fill="#333333" fill-opacity="1"><g transform="translate(123.670511, 332.953263)"><g><path d="M 7.65625 -6.453125 C 8.113281 -6.378906 8.53125 -6.191406 8.90625 -5.890625 C 9.28125 -5.585938 9.578125 -5.210938 9.796875 -4.765625 C 10.023438 -4.328125 10.140625 -3.859375 10.140625 -3.359375 C 10.140625 -2.722656 9.972656 -2.148438 9.640625 -1.640625 C 9.316406 -1.128906 8.847656 -0.726562 8.234375 -0.4375 C 7.617188 -0.144531 6.894531 0 6.0625 0 L 1.390625 0 L 1.390625 -12.53125 L 5.875 -12.53125 C 6.726562 -12.53125 7.453125 -12.382812 8.046875 -12.09375 C 8.648438 -11.8125 9.097656 -11.429688 9.390625 -10.953125 C 9.691406 -10.472656 9.84375 -9.9375 9.84375 -9.34375 C 9.84375 -8.601562 9.640625 -7.988281 9.234375 -7.5 C 8.835938 -7.019531 8.3125 -6.671875 7.65625 -6.453125 Z M 3.015625 -7.109375 L 5.765625 -7.109375 C 6.535156 -7.109375 7.128906 -7.285156 7.546875 -7.640625 C 7.960938 -8.003906 8.171875 -8.503906 8.171875 -9.140625 C 8.171875 -9.773438 7.960938 -10.269531 7.546875 -10.625 C 7.128906 -10.988281 6.523438 -11.171875 5.734375 -11.171875 L 3.015625 -11.171875 Z M 5.90625 -1.34375 C 6.726562 -1.34375 7.363281 -1.535156 7.8125 -1.921875 C 8.269531 -2.304688 8.5 -2.835938 8.5 -3.515625 C 8.5 -4.210938 8.257812 -4.757812 7.78125 -5.15625 C 7.300781 -5.5625 6.660156 -5.765625 5.859375 -5.765625 L 3.015625 -5.765625 L 3.015625 -1.34375 Z M 5.90625 -1.34375 "/></g></g></g><g fill="#333333" fill-opacity="1"><g transform="translate(137.4345, 332.953263)"><g><path d="M 0.765625 -4.953125 C 0.765625 -5.960938 0.96875 -6.847656 1.375 -7.609375 C 1.789062 -8.367188 2.351562 -8.957031 3.0625 -9.375 C 3.769531 -9.800781 4.5625 -10.015625 5.4375 -10.015625 C 6.300781 -10.015625 7.050781 -9.828125 7.6875 -9.453125 C 8.320312 -9.078125 8.796875 -8.609375 9.109375 -8.046875 L 9.109375 -9.84375 L 10.765625 -9.84375 L 10.765625 0 L 9.109375 0 L 9.109375 -1.828125 C 8.785156 -1.253906 8.300781 -0.78125 7.65625 -0.40625 C 7.019531 -0.03125 6.273438 0.15625 5.421875 0.15625 C 4.546875 0.15625 3.753906 -0.0546875 3.046875 -0.484375 C 2.347656 -0.910156 1.789062 -1.515625 1.375 -2.296875 C 0.96875 -3.078125 0.765625 -3.960938 0.765625 -4.953125 Z M 9.109375 -4.9375 C 9.109375 -5.6875 8.957031 -6.332031 8.65625 -6.875 C 8.363281 -7.425781 7.960938 -7.847656 7.453125 -8.140625 C 6.941406 -8.441406 6.378906 -8.59375 5.765625 -8.59375 C 5.148438 -8.59375 4.59375 -8.445312 4.09375 -8.15625 C 3.59375 -7.863281 3.191406 -7.441406 2.890625 -6.890625 C 2.585938 -6.347656 2.4375 -5.703125 2.4375 -4.953125 C 2.4375 -4.203125 2.585938 -3.546875 2.890625 -2.984375 C 3.191406 -2.429688 3.59375 -2.007812 4.09375 -1.71875 C 4.59375 -1.425781 5.148438 -1.28125 5.765625 -1.28125 C 6.378906 -1.28125 6.941406 -1.425781 7.453125 -1.71875 C 7.960938 -2.007812 8.363281 -2.429688 8.65625 -2.984375 C 8.957031 -3.546875 9.109375 -4.195312 9.109375 -4.9375 Z M 9.109375 -4.9375 "/></g></g></g><g fill="#333333" fill-opacity="1"><g transform="translate(152.330421, 332.953263)"><g><path d="M 4.875 0.15625 C 4.113281 0.15625 3.429688 0.03125 2.828125 -0.21875 C 2.234375 -0.476562 1.757812 -0.835938 1.40625 -1.296875 C 1.0625 -1.765625 0.875 -2.296875 0.84375 -2.890625 L 2.53125 -2.890625 C 2.582031 -2.398438 2.8125 -2 3.21875 -1.6875 C 3.632812 -1.375 4.175781 -1.21875 4.84375 -1.21875 C 5.46875 -1.21875 5.957031 -1.351562 6.3125 -1.625 C 6.675781 -1.90625 6.859375 -2.253906 6.859375 -2.671875 C 6.859375 -3.109375 6.664062 -3.429688 6.28125 -3.640625 C 5.90625 -3.847656 5.316406 -4.054688 4.515625 -4.265625 C 3.773438 -4.453125 3.175781 -4.644531 2.71875 -4.84375 C 2.257812 -5.039062 1.863281 -5.332031 1.53125 -5.71875 C 1.207031 -6.113281 1.046875 -6.628906 1.046875 -7.265625 C 1.046875 -7.765625 1.191406 -8.222656 1.484375 -8.640625 C 1.785156 -9.054688 2.210938 -9.390625 2.765625 -9.640625 C 3.316406 -9.890625 3.945312 -10.015625 4.65625 -10.015625 C 5.738281 -10.015625 6.613281 -9.738281 7.28125 -9.1875 C 7.957031 -8.632812 8.320312 -7.878906 8.375 -6.921875 L 6.734375 -6.921875 C 6.703125 -7.429688 6.492188 -7.84375 6.109375 -8.15625 C 5.734375 -8.46875 5.226562 -8.625 4.59375 -8.625 C 4.007812 -8.625 3.539062 -8.5 3.1875 -8.25 C 2.84375 -8 2.671875 -7.671875 2.671875 -7.265625 C 2.671875 -6.941406 2.773438 -6.671875 2.984375 -6.453125 C 3.203125 -6.242188 3.46875 -6.078125 3.78125 -5.953125 C 4.101562 -5.828125 4.546875 -5.6875 5.109375 -5.53125 C 5.804688 -5.34375 6.378906 -5.15625 6.828125 -4.96875 C 7.273438 -4.78125 7.65625 -4.5 7.96875 -4.125 C 8.28125 -3.757812 8.445312 -3.273438 8.46875 -2.671875 C 8.46875 -2.140625 8.316406 -1.65625 8.015625 -1.21875 C 7.710938 -0.789062 7.285156 -0.453125 6.734375 -0.203125 C 6.191406 0.0351562 5.570312 0.15625 4.875 0.15625 Z M 4.875 0.15625 "/></g></g></g><g fill="#333333" fill-opacity="1"><g transform="translate(164.459417, 332.953263)"><g><path d="M 10.375 -5.296875 C 10.375 -4.984375 10.351562 -4.65625 10.3125 -4.3125 L 2.4375 -4.3125 C 2.5 -3.34375 2.832031 -2.582031 3.4375 -2.03125 C 4.039062 -1.488281 4.773438 -1.21875 5.640625 -1.21875 C 6.347656 -1.21875 6.9375 -1.378906 7.40625 -1.703125 C 7.882812 -2.035156 8.21875 -2.476562 8.40625 -3.03125 L 10.171875 -3.03125 C 9.910156 -2.082031 9.382812 -1.3125 8.59375 -0.71875 C 7.800781 -0.132812 6.816406 0.15625 5.640625 0.15625 C 4.703125 0.15625 3.863281 -0.0507812 3.125 -0.46875 C 2.394531 -0.882812 1.816406 -1.476562 1.390625 -2.25 C 0.972656 -3.019531 0.765625 -3.914062 0.765625 -4.9375 C 0.765625 -5.957031 0.96875 -6.847656 1.375 -7.609375 C 1.789062 -8.378906 2.363281 -8.972656 3.09375 -9.390625 C 3.832031 -9.804688 4.679688 -10.015625 5.640625 -10.015625 C 6.578125 -10.015625 7.40625 -9.804688 8.125 -9.390625 C 8.84375 -8.984375 9.394531 -8.421875 9.78125 -7.703125 C 10.175781 -6.992188 10.375 -6.191406 10.375 -5.296875 Z M 8.671875 -5.640625 C 8.671875 -6.265625 8.535156 -6.800781 8.265625 -7.25 C 7.992188 -7.695312 7.617188 -8.035156 7.140625 -8.265625 C 6.671875 -8.503906 6.144531 -8.625 5.5625 -8.625 C 4.738281 -8.625 4.035156 -8.359375 3.453125 -7.828125 C 2.878906 -7.304688 2.550781 -6.578125 2.46875 -5.640625 Z M 8.671875 -5.640625 "/></g></g></g><g fill="#333333" fill-opacity="1"><g transform="translate(178.34918, 332.953263)"><g><path d="M 0.765625 -4.953125 C 0.765625 -5.960938 0.96875 -6.847656 1.375 -7.609375 C 1.789062 -8.367188 2.351562 -8.957031 3.0625 -9.375 C 3.769531 -9.800781 4.570312 -10.015625 5.46875 -10.015625 C 6.226562 -10.015625 6.9375 -9.835938 7.59375 -9.484375 C 8.257812 -9.128906 8.765625 -8.660156 9.109375 -8.078125 L 9.109375 -13.296875 L 10.765625 -13.296875 L 10.765625 0 L 9.109375 0 L 9.109375 -1.84375 C 8.785156 -1.257812 8.304688 -0.78125 7.671875 -0.40625 C 7.035156 -0.03125 6.289062 0.15625 5.4375 0.15625 C 4.5625 0.15625 3.769531 -0.0546875 3.0625 -0.484375 C 2.351562 -0.910156 1.789062 -1.515625 1.375 -2.296875 C 0.96875 -3.078125 0.765625 -3.960938 0.765625 -4.953125 Z M 9.109375 -4.9375 C 9.109375 -5.6875 8.957031 -6.332031 8.65625 -6.875 C 8.363281 -7.425781 7.960938 -7.847656 7.453125 -8.140625 C 6.941406 -8.441406 6.378906 -8.59375 5.765625 -8.59375 C 5.148438 -8.59375 4.59375 -8.445312 4.09375 -8.15625 C 3.59375 -7.863281 3.191406 -7.441406 2.890625 -6.890625 C 2.585938 -6.347656 2.4375 -5.703125 2.4375 -4.953125 C 2.4375 -4.203125 2.585938 -3.546875 2.890625 -2.984375 C 3.191406 -2.429688 3.59375 -2.007812 4.09375 -1.71875 C 4.59375 -1.425781 5.148438 -1.28125 5.765625 -1.28125 C 6.378906 -1.28125 6.941406 -1.425781 7.453125 -1.71875 C 7.960938 -2.007812 8.363281 -2.429688 8.65625 -2.984375 C 8.957031 -3.546875 9.109375 -4.195312 9.109375 -4.9375 Z M 9.109375 -4.9375 "/></g></g></g><g fill="#333333" fill-opacity="1"><g transform="translate(193.245101, 332.953263)"><g/></g></g><g fill="#333333" fill-opacity="1"><g transform="translate(200.792511, 332.953263)"><g><path d="M 9.75 -8.859375 C 9.75 -7.816406 9.394531 -6.953125 8.6875 -6.265625 C 7.976562 -5.578125 6.890625 -5.234375 5.421875 -5.234375 L 3.015625 -5.234375 L 3.015625 0 L 1.390625 0 L 1.390625 -12.53125 L 5.421875 -12.53125 C 6.835938 -12.53125 7.910156 -12.1875 8.640625 -11.5 C 9.378906 -10.8125 9.75 -9.929688 9.75 -8.859375 Z M 5.421875 -6.578125 C 6.335938 -6.578125 7.007812 -6.773438 7.4375 -7.171875 C 7.863281 -7.566406 8.078125 -8.128906 8.078125 -8.859375 C 8.078125 -10.398438 7.191406 -11.171875 5.421875 -11.171875 L 3.015625 -11.171875 L 3.015625 -6.578125 Z M 5.421875 -6.578125 "/></g></g></g><g fill="#333333" fill-opacity="1"><g transform="translate(213.945622, 332.953263)"><g><path d="M 6.265625 -10.03125 C 7.015625 -10.03125 7.6875 -9.867188 8.28125 -9.546875 C 8.882812 -9.234375 9.351562 -8.757812 9.6875 -8.125 C 10.03125 -7.488281 10.203125 -6.710938 10.203125 -5.796875 L 10.203125 0 L 8.59375 0 L 8.59375 -5.5625 C 8.59375 -6.550781 8.34375 -7.304688 7.84375 -7.828125 C 7.351562 -8.347656 6.6875 -8.609375 5.84375 -8.609375 C 4.976562 -8.609375 4.289062 -8.335938 3.78125 -7.796875 C 3.269531 -7.253906 3.015625 -6.46875 3.015625 -5.4375 L 3.015625 0 L 1.390625 0 L 1.390625 -13.296875 L 3.015625 -13.296875 L 3.015625 -8.4375 C 3.335938 -8.945312 3.78125 -9.335938 4.34375 -9.609375 C 4.914062 -9.890625 5.554688 -10.03125 6.265625 -10.03125 Z M 6.265625 -10.03125 "/></g></g></g><g fill="#333333" fill-opacity="1"><g transform="translate(228.194738, 332.953263)"><g><path d="M 9.859375 -9.84375 L 3.9375 4.640625 L 2.25 4.640625 L 4.1875 -0.109375 L 0.21875 -9.84375 L 2.03125 -9.84375 L 5.125 -1.875 L 8.171875 -9.84375 Z M 9.859375 -9.84375 "/></g></g></g><g fill="#333333" fill-opacity="1"><g transform="translate(241.060399, 332.953263)"><g><path d="M 4.875 0.15625 C 4.113281 0.15625 3.429688 0.03125 2.828125 -0.21875 C 2.234375 -0.476562 1.757812 -0.835938 1.40625 -1.296875 C 1.0625 -1.765625 0.875 -2.296875 0.84375 -2.890625 L 2.53125 -2.890625 C 2.582031 -2.398438 2.8125 -2 3.21875 -1.6875 C 3.632812 -1.375 4.175781 -1.21875 4.84375 -1.21875 C 5.46875 -1.21875 5.957031 -1.351562 6.3125 -1.625 C 6.675781 -1.90625 6.859375 -2.253906 6.859375 -2.671875 C 6.859375 -3.109375 6.664062 -3.429688 6.28125 -3.640625 C 5.90625 -3.847656 5.316406 -4.054688 4.515625 -4.265625 C 3.773438 -4.453125 3.175781 -4.644531 2.71875 -4.84375 C 2.257812 -5.039062 1.863281 -5.332031 1.53125 -5.71875 C 1.207031 -6.113281 1.046875 -6.628906 1.046875 -7.265625 C 1.046875 -7.765625 1.191406 -8.222656 1.484375 -8.640625 C 1.785156 -9.054688 2.210938 -9.390625 2.765625 -9.640625 C 3.316406 -9.890625 3.945312 -10.015625 4.65625 -10.015625 C 5.738281 -10.015625 6.613281 -9.738281 7.28125 -9.1875 C 7.957031 -8.632812 8.320312 -7.878906 8.375 -6.921875 L 6.734375 -6.921875 C 6.703125 -7.429688 6.492188 -7.84375 6.109375 -8.15625 C 5.734375 -8.46875 5.226562 -8.625 4.59375 -8.625 C 4.007812 -8.625 3.539062 -8.5 3.1875 -8.25 C 2.84375 -8 2.671875 -7.671875 2.671875 -7.265625 C 2.671875 -6.941406 2.773438 -6.671875 2.984375 -6.453125 C 3.203125 -6.242188 3.46875 -6.078125 3.78125 -5.953125 C 4.101562 -5.828125 4.546875 -5.6875 5.109375 -5.53125 C 5.804688 -5.34375 6.378906 -5.15625 6.828125 -4.96875 C 7.273438 -4.78125 7.65625 -4.5 7.96875 -4.125 C 8.28125 -3.757812 8.445312 -3.273438 8.46875 -2.671875 C 8.46875 -2.140625 8.316406 -1.65625 8.015625 -1.21875 C 7.710938 -0.789062 7.285156 -0.453125 6.734375 -0.203125 C 6.191406 0.0351562 5.570312 0.15625 4.875 0.15625 Z M 4.875 0.15625 "/></g></g></g><g fill="#333333" fill-opacity="1"><g transform="translate(253.189395, 332.953263)"><g><path d="M 2.234375 -11.453125 C 1.921875 -11.453125 1.65625 -11.554688 1.4375 -11.765625 C 1.21875 -11.984375 1.109375 -12.25 1.109375 -12.5625 C 1.109375 -12.875 1.21875 -13.132812 1.4375 -13.34375 C 1.65625 -13.5625 1.921875 -13.671875 2.234375 -13.671875 C 2.523438 -13.671875 2.773438 -13.5625 2.984375 -13.34375 C 3.203125 -13.132812 3.3125 -12.875 3.3125 -12.5625 C 3.3125 -12.25 3.203125 -11.984375 2.984375 -11.765625 C 2.773438 -11.554688 2.523438 -11.453125 2.234375 -11.453125 Z M 3.015625 -9.84375 L 3.015625 0 L 1.390625 0 L 1.390625 -9.84375 Z M 3.015625 -9.84375 "/></g></g></g><g fill="#333333" fill-opacity="1"><g transform="translate(260.359494, 332.953263)"><g><path d="M 5.671875 0.15625 C 4.753906 0.15625 3.921875 -0.0507812 3.171875 -0.46875 C 2.421875 -0.882812 1.832031 -1.476562 1.40625 -2.25 C 0.976562 -3.019531 0.765625 -3.914062 0.765625 -4.9375 C 0.765625 -5.945312 0.984375 -6.835938 1.421875 -7.609375 C 1.859375 -8.378906 2.453125 -8.972656 3.203125 -9.390625 C 3.960938 -9.804688 4.8125 -10.015625 5.75 -10.015625 C 6.6875 -10.015625 7.53125 -9.804688 8.28125 -9.390625 C 9.039062 -8.972656 9.640625 -8.378906 10.078125 -7.609375 C 10.515625 -6.847656 10.734375 -5.957031 10.734375 -4.9375 C 10.734375 -3.914062 10.503906 -3.019531 10.046875 -2.25 C 9.597656 -1.476562 8.988281 -0.882812 8.21875 -0.46875 C 7.457031 -0.0507812 6.609375 0.15625 5.671875 0.15625 Z M 5.671875 -1.28125 C 6.265625 -1.28125 6.816406 -1.414062 7.328125 -1.6875 C 7.847656 -1.96875 8.265625 -2.378906 8.578125 -2.921875 C 8.898438 -3.472656 9.0625 -4.144531 9.0625 -4.9375 C 9.0625 -5.726562 8.90625 -6.398438 8.59375 -6.953125 C 8.28125 -7.503906 7.867188 -7.914062 7.359375 -8.1875 C 6.859375 -8.457031 6.316406 -8.59375 5.734375 -8.59375 C 5.128906 -8.59375 4.578125 -8.457031 4.078125 -8.1875 C 3.585938 -7.914062 3.191406 -7.503906 2.890625 -6.953125 C 2.585938 -6.398438 2.4375 -5.726562 2.4375 -4.9375 C 2.4375 -4.132812 2.582031 -3.457031 2.875 -2.90625 C 3.175781 -2.351562 3.570312 -1.941406 4.0625 -1.671875 C 4.550781 -1.410156 5.085938 -1.28125 5.671875 -1.28125 Z M 5.671875 -1.28125 "/></g></g></g><g fill="#333333" fill-opacity="1"><g transform="translate(274.608598, 332.953263)"><g><path d="M 3.375 -8.5 L 3.375 -2.6875 C 3.375 -2.207031 3.472656 -1.867188 3.671875 -1.671875 C 3.878906 -1.484375 4.238281 -1.390625 4.75 -1.390625 L 5.953125 -1.390625 L 5.953125 0 L 4.46875 0 C 3.5625 0 2.878906 -0.207031 2.421875 -0.625 C 1.972656 -1.039062 1.75 -1.726562 1.75 -2.6875 L 1.75 -8.5 L 0.46875 -8.5 L 0.46875 -9.84375 L 1.75 -9.84375 L 1.75 -12.328125 L 3.375 -12.328125 L 3.375 -9.84375 L 5.953125 -9.84375 L 5.953125 -8.5 Z M 3.375 -8.5 "/></g></g></g><g fill="#333333" fill-opacity="1"><g transform="translate(283.898805, 332.953263)"><g><path d="M 6.265625 -10.03125 C 7.015625 -10.03125 7.6875 -9.867188 8.28125 -9.546875 C 8.882812 -9.234375 9.351562 -8.757812 9.6875 -8.125 C 10.03125 -7.488281 10.203125 -6.710938 10.203125 -5.796875 L 10.203125 0 L 8.59375 0 L 8.59375 -5.5625 C 8.59375 -6.550781 8.34375 -7.304688 7.84375 -7.828125 C 7.351562 -8.347656 6.6875 -8.609375 5.84375 -8.609375 C 4.976562 -8.609375 4.289062 -8.335938 3.78125 -7.796875 C 3.269531 -7.253906 3.015625 -6.46875 3.015625 -5.4375 L 3.015625 0 L 1.390625 0 L 1.390625 -13.296875 L 3.015625 -13.296875 L 3.015625 -8.4375 C 3.335938 -8.945312 3.78125 -9.335938 4.34375 -9.609375 C 4.914062 -9.890625 5.554688 -10.03125 6.265625 -10.03125 Z M 6.265625 -10.03125 "/></g></g></g><g fill="#333333" fill-opacity="1"><g transform="translate(298.147909, 332.953263)"><g><path d="M 10.375 -5.296875 C 10.375 -4.984375 10.351562 -4.65625 10.3125 -4.3125 L 2.4375 -4.3125 C 2.5 -3.34375 2.832031 -2.582031 3.4375 -2.03125 C 4.039062 -1.488281 4.773438 -1.21875 5.640625 -1.21875 C 6.347656 -1.21875 6.9375 -1.378906 7.40625 -1.703125 C 7.882812 -2.035156 8.21875 -2.476562 8.40625 -3.03125 L 10.171875 -3.03125 C 9.910156 -2.082031 9.382812 -1.3125 8.59375 -0.71875 C 7.800781 -0.132812 6.816406 0.15625 5.640625 0.15625 C 4.703125 0.15625 3.863281 -0.0507812 3.125 -0.46875 C 2.394531 -0.882812 1.816406 -1.476562 1.390625 -2.25 C 0.972656 -3.019531 0.765625 -3.914062 0.765625 -4.9375 C 0.765625 -5.957031 0.96875 -6.847656 1.375 -7.609375 C 1.789062 -8.378906 2.363281 -8.972656 3.09375 -9.390625 C 3.832031 -9.804688 4.679688 -10.015625 5.640625 -10.015625 C 6.578125 -10.015625 7.40625 -9.804688 8.125 -9.390625 C 8.84375 -8.984375 9.394531 -8.421875 9.78125 -7.703125 C 10.175781 -6.992188 10.375 -6.191406 10.375 -5.296875 Z M 8.671875 -5.640625 C 8.671875 -6.265625 8.535156 -6.800781 8.265625 -7.25 C 7.992188 -7.695312 7.617188 -8.035156 7.140625 -8.265625 C 6.671875 -8.503906 6.144531 -8.625 5.5625 -8.625 C 4.738281 -8.625 4.035156 -8.359375 3.453125 -7.828125 C 2.878906 -7.304688 2.550781 -6.578125 2.46875 -5.640625 Z M 8.671875 -5.640625 "/></g></g></g><g fill="#333333" fill-opacity="1"><g transform="translate(312.037673, 332.953263)"><g><path d="M 3.015625 -8.25 C 3.304688 -8.8125 3.71875 -9.25 4.25 -9.5625 C 4.78125 -9.875 5.429688 -10.03125 6.203125 -10.03125 L 6.203125 -8.34375 L 5.765625 -8.34375 C 3.929688 -8.34375 3.015625 -7.347656 3.015625 -5.359375 L 3.015625 0 L 1.390625 0 L 1.390625 -9.84375 L 3.015625 -9.84375 Z M 3.015625 -8.25 "/></g></g></g><g fill="#333333" fill-opacity="1"><g transform="translate(321.489592, 332.953263)"><g><path d="M 0.765625 -4.953125 C 0.765625 -5.960938 0.96875 -6.847656 1.375 -7.609375 C 1.789062 -8.367188 2.351562 -8.957031 3.0625 -9.375 C 3.769531 -9.800781 4.5625 -10.015625 5.4375 -10.015625 C 6.300781 -10.015625 7.050781 -9.828125 7.6875 -9.453125 C 8.320312 -9.078125 8.796875 -8.609375 9.109375 -8.046875 L 9.109375 -9.84375 L 10.765625 -9.84375 L 10.765625 0 L 9.109375 0 L 9.109375 -1.828125 C 8.785156 -1.253906 8.300781 -0.78125 7.65625 -0.40625 C 7.019531 -0.03125 6.273438 0.15625 5.421875 0.15625 C 4.546875 0.15625 3.753906 -0.0546875 3.046875 -0.484375 C 2.347656 -0.910156 1.789062 -1.515625 1.375 -2.296875 C 0.96875 -3.078125 0.765625 -3.960938 0.765625 -4.953125 Z M 9.109375 -4.9375 C 9.109375 -5.6875 8.957031 -6.332031 8.65625 -6.875 C 8.363281 -7.425781 7.960938 -7.847656 7.453125 -8.140625 C 6.941406 -8.441406 6.378906 -8.59375 5.765625 -8.59375 C 5.148438 -8.59375 4.59375 -8.445312 4.09375 -8.15625 C 3.59375 -7.863281 3.191406 -7.441406 2.890625 -6.890625 C 2.585938 -6.347656 2.4375 -5.703125 2.4375 -4.953125 C 2.4375 -4.203125 2.585938 -3.546875 2.890625 -2.984375 C 3.191406 -2.429688 3.59375 -2.007812 4.09375 -1.71875 C 4.59375 -1.425781 5.148438 -1.28125 5.765625 -1.28125 C 6.378906 -1.28125 6.941406 -1.425781 7.453125 -1.71875 C 7.960938 -2.007812 8.363281 -2.429688 8.65625 -2.984375 C 8.957031 -3.546875 9.109375 -4.195312 9.109375 -4.9375 Z M 9.109375 -4.9375 "/></g></g></g><g fill="#333333" fill-opacity="1"><g transform="translate(336.385525, 332.953263)"><g><path d="M 3.015625 -8.03125 C 3.335938 -8.59375 3.816406 -9.0625 4.453125 -9.4375 C 5.097656 -9.820312 5.847656 -10.015625 6.703125 -10.015625 C 7.578125 -10.015625 8.367188 -9.800781 9.078125 -9.375 C 9.796875 -8.957031 10.359375 -8.367188 10.765625 -7.609375 C 11.171875 -6.847656 11.375 -5.960938 11.375 -4.953125 C 11.375 -3.960938 11.171875 -3.078125 10.765625 -2.296875 C 10.359375 -1.515625 9.796875 -0.910156 9.078125 -0.484375 C 8.367188 -0.0546875 7.578125 0.15625 6.703125 0.15625 C 5.859375 0.15625 5.113281 -0.03125 4.46875 -0.40625 C 3.832031 -0.78125 3.347656 -1.25 3.015625 -1.8125 L 3.015625 4.671875 L 1.390625 4.671875 L 1.390625 -9.84375 L 3.015625 -9.84375 Z M 9.703125 -4.953125 C 9.703125 -5.703125 9.550781 -6.347656 9.25 -6.890625 C 8.945312 -7.441406 8.539062 -7.863281 8.03125 -8.15625 C 7.53125 -8.445312 6.972656 -8.59375 6.359375 -8.59375 C 5.765625 -8.59375 5.210938 -8.441406 4.703125 -8.140625 C 4.191406 -7.847656 3.78125 -7.421875 3.46875 -6.859375 C 3.164062 -6.304688 3.015625 -5.664062 3.015625 -4.9375 C 3.015625 -4.195312 3.164062 -3.546875 3.46875 -2.984375 C 3.78125 -2.429688 4.191406 -2.007812 4.703125 -1.71875 C 5.210938 -1.425781 5.765625 -1.28125 6.359375 -1.28125 C 6.972656 -1.28125 7.53125 -1.425781 8.03125 -1.71875 C 8.539062 -2.007812 8.945312 -2.429688 9.25 -2.984375 C 9.550781 -3.546875 9.703125 -4.203125 9.703125 -4.953125 Z M 9.703125 -4.953125 "/></g></g></g><g fill="#333333" fill-opacity="1"><g transform="translate(351.281458, 332.953263)"><g><path d="M 9.859375 -9.84375 L 3.9375 4.640625 L 2.25 4.640625 L 4.1875 -0.109375 L 0.21875 -9.84375 L 2.03125 -9.84375 L 5.125 -1.875 L 8.171875 -9.84375 Z M 9.859375 -9.84375 "/></g></g></g></svg>