<svg xmlns="http://www.w3.org/2000/svg" xmlns:xlink="http://www.w3.org/1999/xlink" width="500" zoomAndPan="magnify" viewBox="0 0 375 374.999991" height="500" preserveAspectRatio="xMidYMid meet" version="1.0"><defs><clipPath id="8a0ef835f0"><path d="M 89.347656 51.496094 L 285.296875 51.496094 L 285.296875 323.511719 L 89.347656 323.511719 Z M 89.347656 51.496094 " clip-rule="nonzero"/></clipPath><clipPath id="78a4f23668"><path d="M 237 51.496094 L 286 51.496094 L 286 100 L 237 100 Z M 237 51.496094 " clip-rule="nonzero"/></clipPath><clipPath id="9ab0889833"><path d="M 63.265625 169.207031 L 311.75 169.207031 L 311.75 286 L 63.265625 286 Z M 63.265625 169.207031 " clip-rule="nonzero"/></clipPath></defs><path fill="#bdceff" d="M 119.820312 253.492188 L 119.820312 201.96875 L 136.507812 201.96875 C 142.832031 201.96875 146.953125 202.230469 148.871094 202.742188 C 151.824219 203.511719 154.304688 205.1875 156.300781 207.78125 C 158.292969 210.375 159.289062 213.726562 159.289062 217.8125 C 159.289062 220.976562 158.710938 223.640625 157.5625 225.792969 C 156.40625 227.949219 154.960938 229.640625 153.183594 230.875 C 151.414062 232.101562 149.617188 232.917969 147.792969 233.3125 C 145.3125 233.804688 141.710938 234.054688 137 234.054688 L 130.21875 234.054688 L 130.21875 253.492188 Z M 130.21875 210.6875 L 130.21875 225.296875 L 135.902344 225.296875 C 140.011719 225.296875 142.753906 225.039062 144.132812 224.496094 C 145.515625 223.960938 146.59375 223.113281 147.382812 221.964844 C 148.167969 220.808594 148.5625 219.476562 148.5625 217.953125 C 148.5625 216.085938 148.011719 214.535156 146.90625 213.316406 C 145.8125 212.105469 144.410156 211.335938 142.730469 211.03125 C 141.484375 210.792969 138.988281 210.6875 135.246094 210.6875 Z M 167.796875 201.96875 L 186.804688 201.96875 C 191.089844 201.96875 194.355469 202.292969 196.609375 202.949219 C 199.628906 203.835938 202.222656 205.421875 204.371094 207.699219 C 206.527344 209.96875 208.175781 212.753906 209.296875 216.035156 C 210.417969 219.335938 210.984375 223.394531 210.984375 228.222656 C 210.984375 232.460938 210.453125 236.117188 209.398438 239.191406 C 208.113281 242.933594 206.273438 245.972656 203.878906 248.285156 C 202.082031 250.046875 199.640625 251.414062 196.570312 252.398438 C 194.285156 253.132812 191.210938 253.492188 187.355469 253.492188 L 167.796875 253.492188 Z M 178.191406 210.6875 L 178.191406 244.800781 L 185.953125 244.800781 C 188.855469 244.800781 190.957031 244.648438 192.253906 244.316406 C 193.933594 243.894531 195.335938 243.1875 196.449219 242.179688 C 197.570312 241.171875 198.472656 239.5 199.175781 237.195312 C 199.867188 234.898438 200.234375 231.742188 200.234375 227.757812 C 200.234375 223.777344 199.867188 220.730469 199.175781 218.59375 C 198.472656 216.460938 197.484375 214.789062 196.222656 213.597656 C 194.953125 212.40625 193.347656 211.597656 191.402344 211.179688 C 189.949219 210.84375 187.109375 210.6875 182.859375 210.6875 Z M 219.871094 253.492188 L 219.871094 201.96875 L 255.199219 201.96875 L 255.199219 210.6875 L 230.28125 210.6875 L 230.28125 222.875 L 251.792969 222.875 L 251.792969 231.601562 L 230.28125 231.601562 L 230.28125 253.492188 L 219.871094 253.492188 " fill-opacity="1" fill-rule="nonzero"/><g clip-path="url(#8a0ef835f0)"><path fill="#bdceff" d="M 89.738281 173.824219 C 89.738281 176.0625 91.558594 177.882812 93.800781 177.882812 C 96.042969 177.882812 97.859375 176.0625 97.859375 173.824219 L 97.859375 59.613281 L 240.035156 59.613281 L 277.152344 96.738281 L 277.152344 173.820312 C 277.152344 176.0625 278.980469 177.882812 281.214844 177.882812 C 283.453125 177.882812 285.28125 176.0625 285.28125 173.820312 L 285.28125 95.054688 L 285.273438 95.054688 C 285.273438 94.015625 284.878906 92.976562 284.089844 92.183594 L 244.601562 52.699219 C 243.871094 51.957031 242.847656 51.492188 241.714844 51.492188 L 93.800781 51.492188 C 91.554688 51.492188 89.738281 53.3125 89.738281 55.554688 Z M 285.28125 281.628906 C 285.28125 279.390625 283.457031 277.578125 281.214844 277.578125 C 278.980469 277.578125 277.152344 279.390625 277.152344 281.628906 L 277.152344 315.394531 L 97.859375 315.394531 L 97.859375 281.628906 C 97.859375 279.390625 96.042969 277.578125 93.800781 277.578125 C 91.554688 277.578125 89.738281 279.390625 89.738281 281.628906 L 89.738281 319.453125 C 89.738281 321.695312 91.554688 323.511719 93.800781 323.511719 L 281.214844 323.511719 C 283.457031 323.511719 285.28125 321.695312 285.28125 319.453125 L 285.28125 281.628906 " fill-opacity="1" fill-rule="nonzero"/></g><g clip-path="url(#78a4f23668)"><path fill="#bdceff" d="M 245.773438 55.554688 C 245.773438 53.3125 243.964844 51.496094 241.714844 51.496094 C 239.472656 51.496094 237.65625 53.3125 237.65625 55.554688 L 237.65625 75.304688 C 237.65625 81.855469 240.332031 87.8125 244.648438 92.125 C 248.960938 96.4375 254.917969 99.117188 261.472656 99.117188 L 281.214844 99.117188 C 283.457031 99.117188 285.273438 97.296875 285.273438 95.054688 C 285.273438 92.8125 283.457031 90.996094 281.214844 90.996094 L 261.472656 90.996094 C 257.15625 90.996094 253.238281 89.230469 250.390625 86.382812 C 247.542969 83.539062 245.773438 79.613281 245.773438 75.304688 L 245.773438 55.554688 " fill-opacity="1" fill-rule="nonzero"/></g><g clip-path="url(#9ab0889833)"><path fill="#bdceff" d="M 71.386719 277.578125 L 303.636719 277.578125 L 303.636719 177.882812 L 71.386719 177.882812 Z M 307.6875 285.699219 L 67.324219 285.699219 C 65.082031 285.699219 63.265625 283.878906 63.265625 281.628906 L 63.265625 173.824219 C 63.265625 171.582031 65.082031 169.761719 67.328125 169.761719 L 307.691406 169.761719 C 309.933594 169.761719 311.757812 171.582031 311.757812 173.824219 L 311.757812 281.628906 C 311.757812 283.878906 309.933594 285.699219 307.691406 285.699219 " fill-opacity="1" fill-rule="nonzero"/></g><path fill="#bdceff" d="M 125.925781 98.03125 C 123.683594 98.03125 121.867188 99.851562 121.867188 102.089844 C 121.867188 104.332031 123.683594 106.148438 125.925781 106.148438 L 213.398438 106.148438 C 215.640625 106.148438 217.460938 104.332031 217.460938 102.089844 C 217.460938 99.851562 215.640625 98.03125 213.398438 98.03125 L 125.925781 98.03125 " fill-opacity="1" fill-rule="nonzero"/><path fill="#bdceff" d="M 125.925781 120.425781 C 123.683594 120.425781 121.867188 122.242188 121.867188 124.484375 C 121.867188 126.722656 123.683594 128.542969 125.925781 128.542969 L 249.09375 128.542969 C 251.335938 128.542969 253.152344 126.722656 253.152344 124.484375 C 253.152344 122.242188 251.335938 120.425781 249.09375 120.425781 L 125.925781 120.425781 " fill-opacity="1" fill-rule="nonzero"/><path fill="#bdceff" d="M 125.925781 142.816406 C 123.683594 142.816406 121.867188 144.636719 121.867188 146.875 C 121.867188 149.117188 123.683594 150.9375 125.925781 150.9375 L 249.09375 150.9375 C 251.335938 150.9375 253.152344 149.117188 253.152344 146.875 C 253.152344 144.636719 251.335938 142.816406 249.09375 142.816406 L 125.925781 142.816406 " fill-opacity="1" fill-rule="nonzero"/></svg>