<svg xmlns="http://www.w3.org/2000/svg" xmlns:xlink="http://www.w3.org/1999/xlink" width="500" zoomAndPan="magnify" viewBox="0 0 375 374.999991" height="500" preserveAspectRatio="xMidYMid meet" version="1.0"><defs><clipPath id="ae2d2fa0d8"><path d="M 79.449219 79.449219 L 295.449219 79.449219 L 295.449219 295.449219 L 79.449219 295.449219 Z M 79.449219 79.449219 " clip-rule="nonzero"/></clipPath></defs><path fill="#000000" d="M 219.808594 199.828125 C 217.363281 199.828125 215.035156 200.566406 213.054688 201.914062 C 211.007812 200.402344 208.558594 199.550781 205.964844 199.550781 C 202.753906 199.550781 199.738281 200.800781 197.46875 203.070312 C 196.414062 204.125 196.414062 205.835938 197.46875 206.886719 C 198.523438 207.941406 200.234375 207.941406 201.285156 206.886719 C 203.785156 204.390625 208.140625 204.386719 210.644531 206.886719 C 211.890625 208.136719 212.582031 209.800781 212.582031 211.566406 C 212.582031 213.332031 211.890625 214.996094 210.644531 216.246094 C 209.589844 217.300781 209.589844 219.007812 210.644531 220.0625 C 211.171875 220.589844 211.859375 220.851562 212.550781 220.851562 C 213.242188 220.851562 213.933594 220.589844 214.460938 220.0625 C 216.730469 217.792969 217.980469 214.777344 217.980469 211.566406 C 217.980469 209.628906 217.472656 207.785156 216.613281 206.109375 C 219.117188 204.773438 222.425781 205.109375 224.488281 207.167969 C 225.015625 207.695312 225.703125 207.957031 226.394531 207.957031 C 227.085938 207.957031 227.777344 207.695312 228.304688 207.167969 C 229.359375 206.113281 229.359375 204.402344 228.304688 203.347656 C 226.035156 201.078125 223.019531 199.828125 219.808594 199.828125 Z M 219.808594 199.828125 " fill-opacity="1" fill-rule="nonzero"/><path fill="#000000" d="M 241.375 192.050781 C 240.714844 191.359375 240 190.714844 239.242188 190.125 C 242.59375 187.726562 244.757812 183.808594 244.757812 179.5 C 244.757812 173.597656 240.820312 168.582031 235.433594 166.953125 C 236.675781 162.703125 236.457031 158.132812 234.761719 153.765625 C 232.78125 148.667969 228.53125 144.550781 223.394531 142.746094 C 219.183594 141.269531 214.878906 141.132812 210.910156 142.261719 C 211.089844 140.152344 210.757812 137.972656 209.886719 135.859375 C 208.542969 132.597656 205.871094 130.054688 202.550781 128.875 C 198.3125 127.367188 193.847656 127.941406 190.304688 130.445312 C 189.199219 131.226562 188.25 132.175781 187.449219 133.230469 C 186.648438 132.175781 185.703125 131.226562 184.597656 130.445312 C 181.054688 127.941406 176.589844 127.367188 172.351562 128.875 C 169.03125 130.054688 166.355469 132.597656 165.015625 135.859375 C 164.144531 137.972656 163.8125 140.152344 163.988281 142.261719 C 160.023438 141.128906 155.71875 141.269531 151.507812 142.746094 C 146.367188 144.550781 142.117188 148.667969 140.136719 153.765625 C 138.441406 158.132812 138.226562 162.703125 139.46875 166.953125 C 134.082031 168.582031 130.140625 173.597656 130.140625 179.5 C 130.140625 183.808594 132.308594 187.726562 135.65625 190.125 C 134.898438 190.714844 134.1875 191.359375 133.523438 192.050781 C 129.96875 195.761719 128.007812 200.640625 128.007812 205.777344 C 128.007812 214.398438 133.503906 221.875 141.449219 224.578125 C 140.699219 227.882812 141.0625 231.316406 142.53125 234.648438 C 144.066406 238.132812 146.992188 240.972656 150.554688 242.441406 C 154.761719 244.179688 159.128906 244.152344 163.078125 242.410156 C 166.09375 245.300781 169.996094 246.839844 174.089844 246.839844 C 176.160156 246.839844 178.273438 246.449219 180.347656 245.640625 C 183.28125 244.496094 185.730469 242.429688 187.449219 239.824219 C 189.167969 242.429688 191.621094 244.496094 194.554688 245.640625 C 196.625 246.449219 198.742188 246.839844 200.808594 246.839844 C 204.902344 246.839844 208.808594 245.300781 211.824219 242.410156 C 215.773438 244.152344 220.144531 244.175781 224.34375 242.441406 C 227.910156 240.972656 230.835938 238.132812 232.371094 234.648438 C 233.835938 231.316406 234.199219 227.882812 233.453125 224.578125 C 241.394531 221.875 246.890625 214.398438 246.890625 205.777344 C 246.890625 200.640625 244.933594 195.761719 241.378906 192.050781 C 241.378906 192.050781 241.378906 192.050781 241.375 192.050781 Z M 178.386719 240.609375 C 172.730469 242.8125 168.167969 240.382812 165.78125 237.375 C 165.25 236.707031 164.464844 236.351562 163.664062 236.351562 C 163.179688 236.351562 162.691406 236.484375 162.25 236.753906 C 160.179688 238.03125 156.832031 239.1875 152.609375 237.449219 C 150.324219 236.507812 148.449219 234.691406 147.472656 232.472656 C 145.847656 228.78125 146.523438 225.707031 147.378906 223.777344 C 147.714844 223.019531 147.683594 222.144531 147.292969 221.414062 C 146.902344 220.679688 146.195312 220.167969 145.375 220.023438 C 138.441406 218.808594 133.40625 212.820312 133.40625 205.777344 C 133.40625 202.039062 134.832031 198.488281 137.421875 195.789062 C 138.894531 194.25 140.722656 193.035156 142.699219 192.273438 C 143.84375 191.832031 144.546875 190.675781 144.414062 189.457031 C 144.277344 188.238281 143.335938 187.261719 142.125 187.082031 C 138.308594 186.519531 135.542969 183.328125 135.542969 179.5 C 135.542969 175.269531 138.984375 171.8125 143.214844 171.796875 C 144.152344 171.792969 145.015625 171.304688 145.507812 170.507812 C 145.996094 169.710938 146.035156 168.71875 145.617188 167.882812 C 144.285156 165.234375 143.128906 160.976562 145.171875 155.722656 C 146.585938 152.074219 149.625 149.128906 153.292969 147.839844 C 158.332031 146.070312 163.519531 146.882812 167.523438 150.050781 C 168.617188 150.917969 170.191406 150.808594 171.152344 149.804688 C 172.113281 148.796875 172.15625 147.222656 171.242188 146.167969 C 169.25 143.859375 168.796875 140.851562 170.007812 137.914062 C 170.753906 136.097656 172.304688 134.621094 174.15625 133.964844 C 176.722656 133.050781 179.386719 133.378906 181.480469 134.855469 C 183.527344 136.300781 184.75 138.65625 184.75 141.160156 L 184.75 214.03125 C 182.371094 212.160156 179.410156 210.996094 176.15625 210.996094 C 168.4375 210.996094 162.160156 217.273438 162.160156 224.992188 C 162.160156 226.480469 163.367188 227.691406 164.859375 227.691406 C 166.351562 227.691406 167.558594 226.480469 167.558594 224.992188 C 167.558594 220.25 171.414062 216.394531 176.15625 216.394531 C 180.894531 216.394531 184.75 220.25 184.75 224.992188 L 184.75 230.777344 C 184.75 235.175781 182.191406 239.125 178.386719 240.609375 Z M 229.523438 220.023438 C 228.707031 220.167969 228 220.679688 227.605469 221.414062 C 227.214844 222.144531 227.183594 223.019531 227.523438 223.777344 C 228.375 225.707031 229.054688 228.78125 227.429688 232.472656 C 226.449219 234.691406 224.578125 236.507812 222.289062 237.449219 C 218.070312 239.1875 214.71875 238.03125 212.652344 236.753906 C 211.488281 236.039062 209.96875 236.304688 209.117188 237.375 C 206.734375 240.382812 202.171875 242.8125 196.511719 240.609375 C 192.707031 239.125 190.148438 235.175781 190.148438 230.777344 L 190.148438 176.816406 C 192.53125 178.6875 195.492188 179.851562 198.746094 179.851562 C 206.464844 179.851562 212.742188 173.574219 212.742188 165.855469 C 212.742188 164.363281 211.53125 163.15625 210.042969 163.15625 C 208.550781 163.15625 207.339844 164.363281 207.339844 165.855469 C 207.339844 170.59375 203.484375 174.449219 198.746094 174.449219 C 194.007812 174.449219 190.148438 170.59375 190.148438 165.855469 L 190.148438 141.160156 C 190.148438 138.65625 191.371094 136.300781 193.417969 134.855469 C 194.730469 133.929688 196.265625 133.457031 197.863281 133.457031 C 198.8125 133.457031 199.785156 133.625 200.742188 133.964844 C 202.59375 134.621094 204.144531 136.097656 204.890625 137.914062 C 206.101562 140.851562 205.652344 143.859375 203.65625 146.167969 C 202.746094 147.222656 202.785156 148.796875 203.75 149.804688 C 204.710938 150.808594 206.285156 150.917969 207.375 150.050781 C 211.378906 146.878906 216.566406 146.074219 221.605469 147.839844 C 225.273438 149.128906 228.3125 152.074219 229.730469 155.722656 C 231.769531 160.976562 230.613281 165.234375 229.28125 167.882812 C 228.863281 168.71875 228.90625 169.710938 229.394531 170.507812 C 229.882812 171.304688 230.75 171.792969 231.683594 171.796875 C 235.914062 171.8125 239.359375 175.269531 239.359375 179.5 C 239.359375 183.328125 236.589844 186.519531 232.777344 187.082031 C 231.5625 187.261719 230.625 188.238281 230.488281 189.457031 C 230.351562 190.675781 231.058594 191.832031 232.203125 192.273438 C 234.179688 193.035156 236.003906 194.25 237.480469 195.789062 C 240.066406 198.488281 241.492188 202.039062 241.492188 205.777344 C 241.492188 212.820312 236.457031 218.808594 229.523438 220.023438 Z M 229.523438 220.023438 " fill-opacity="1" fill-rule="nonzero"/><path fill="#000000" d="M 167.351562 187.582031 C 167.351562 189.074219 168.5625 190.28125 170.050781 190.28125 C 171.542969 190.28125 172.75 189.074219 172.75 187.582031 C 172.75 183.351562 170.542969 179.644531 167.230469 177.503906 C 167.246094 177.488281 167.261719 177.480469 167.273438 177.46875 C 171.960938 172.78125 171.960938 165.160156 167.273438 160.472656 C 166.21875 159.417969 164.511719 159.417969 163.457031 160.472656 C 162.402344 161.527344 162.402344 163.238281 163.457031 164.292969 C 166.035156 166.871094 166.035156 171.070312 163.457031 173.648438 C 160.878906 176.226562 156.679688 176.226562 154.097656 173.648438 C 153.042969 172.59375 151.332031 172.59375 150.28125 173.648438 C 149.226562 174.703125 149.226562 176.414062 150.28125 177.46875 C 152.625 179.808594 155.703125 180.980469 158.777344 180.980469 C 159.242188 180.980469 159.699219 180.902344 160.160156 180.847656 C 160.351562 180.890625 160.53125 180.964844 160.734375 180.964844 C 164.382812 180.964844 167.351562 183.933594 167.351562 187.582031 Z M 167.351562 187.582031 " fill-opacity="1" fill-rule="nonzero"/><g clip-path="url(#ae2d2fa0d8)"><path fill="#000000" d="M 292.75 190.148438 C 294.242188 190.148438 295.449219 188.941406 295.449219 187.449219 C 295.449219 185.960938 294.242188 184.75 292.75 184.75 L 268.449219 184.75 L 268.449219 146.949219 L 282.519531 146.949219 C 283.5625 149.332031 285.933594 151 288.699219 151 C 292.429688 151 295.449219 147.976562 295.449219 144.25 C 295.449219 140.523438 292.429688 137.5 288.699219 137.5 C 285.933594 137.5 283.5625 139.167969 282.519531 141.550781 L 268.449219 141.550781 L 268.449219 119.949219 C 268.449219 112.507812 262.394531 106.449219 254.949219 106.449219 L 233.363281 106.449219 L 233.363281 82.148438 C 233.363281 80.660156 232.152344 79.449219 230.660156 79.449219 C 229.171875 79.449219 227.960938 80.660156 227.960938 82.148438 L 227.960938 106.449219 L 190.160156 106.449219 L 190.160156 82.148438 C 190.160156 80.660156 188.953125 79.449219 187.460938 79.449219 C 185.972656 79.449219 184.761719 80.660156 184.761719 82.148438 L 184.761719 106.449219 L 146.960938 106.449219 L 146.960938 92.378906 C 149.34375 91.339844 151.011719 88.964844 151.011719 86.199219 C 151.011719 82.472656 147.988281 79.449219 144.261719 79.449219 C 140.535156 79.449219 137.511719 82.472656 137.511719 86.199219 C 137.511719 88.964844 139.179688 91.335938 141.5625 92.378906 L 141.5625 106.449219 L 119.949219 106.449219 C 112.507812 106.449219 106.449219 112.507812 106.449219 119.949219 L 106.449219 141.550781 L 82.148438 141.550781 C 80.660156 141.550781 79.449219 142.757812 79.449219 144.25 C 79.449219 145.742188 80.660156 146.949219 82.148438 146.949219 L 106.449219 146.949219 L 106.449219 184.75 L 82.148438 184.75 C 80.660156 184.75 79.449219 185.960938 79.449219 187.449219 C 79.449219 188.941406 80.660156 190.148438 82.148438 190.148438 L 106.449219 190.148438 L 106.449219 227.949219 L 92.378906 227.949219 C 91.339844 225.566406 88.964844 223.898438 86.199219 223.898438 C 82.472656 223.898438 79.449219 226.921875 79.449219 230.648438 C 79.449219 234.378906 82.472656 237.398438 86.199219 237.398438 C 88.964844 237.398438 91.335938 235.730469 92.378906 233.351562 L 106.449219 233.351562 L 106.449219 254.949219 C 106.449219 262.394531 112.507812 268.449219 119.949219 268.449219 L 141.550781 268.449219 L 141.550781 282.550781 C 139.175781 283.59375 137.511719 285.960938 137.511719 288.722656 C 137.511719 292.449219 140.535156 295.472656 144.261719 295.472656 C 147.988281 295.472656 151.011719 292.449219 151.011719 288.722656 C 151.011719 285.953125 149.339844 283.574219 146.949219 282.535156 L 146.949219 268.449219 L 184.75 268.449219 L 184.75 292.75 C 184.75 294.242188 185.960938 295.449219 187.449219 295.449219 C 188.941406 295.449219 190.148438 294.242188 190.148438 292.75 L 190.148438 268.449219 L 227.949219 268.449219 L 227.949219 292.75 C 227.949219 294.242188 229.160156 295.449219 230.648438 295.449219 C 232.140625 295.449219 233.351562 294.242188 233.351562 292.75 L 233.351562 268.449219 L 254.949219 268.449219 C 262.394531 268.449219 268.449219 262.394531 268.449219 254.949219 L 268.449219 233.351562 L 292.75 233.351562 C 294.242188 233.351562 295.449219 232.140625 295.449219 230.648438 C 295.449219 229.160156 294.242188 227.949219 292.75 227.949219 L 268.449219 227.949219 L 268.449219 190.148438 Z M 263.050781 254.949219 C 263.050781 259.417969 259.417969 263.050781 254.949219 263.050781 L 119.949219 263.050781 C 115.484375 263.050781 111.851562 259.417969 111.851562 254.949219 L 111.851562 119.949219 C 111.851562 115.484375 115.484375 111.851562 119.949219 111.851562 L 254.949219 111.851562 C 259.417969 111.851562 263.050781 115.484375 263.050781 119.949219 Z M 263.050781 254.949219 " fill-opacity="1" fill-rule="nonzero"/></g></svg>