<svg xmlns="http://www.w3.org/2000/svg" xmlns:xlink="http://www.w3.org/1999/xlink" width="500" zoomAndPan="magnify" viewBox="0 0 375 374.999991" height="500" preserveAspectRatio="xMidYMid meet" version="1.0"><defs><clipPath id="7779601f9f"><path d="M 87 126 L 288 126 L 288 285 L 87 285 Z M 87 126 " clip-rule="nonzero"/></clipPath><clipPath id="d07632692d"><path d="M 87.011719 235.101562 L 87.011719 245.5 C 87.011719 266.816406 104.398438 284.039062 125.710938 284.039062 L 248.792969 284.039062 C 270.101562 284.039062 287.488281 266.816406 287.488281 245.5 L 287.488281 234.417969 C 287.488281 234.417969 287.488281 234.25 287.488281 234.25 L 287.488281 165.53125 C 287.488281 144.21875 270.101562 126.824219 248.792969 126.824219 L 125.710938 126.824219 C 125.367188 126.824219 125.027344 126.824219 124.6875 126.824219 C 124.34375 126.824219 124.003906 126.824219 123.664062 126.996094 C 123.324219 126.996094 122.980469 126.996094 122.640625 126.996094 L 122.46875 126.996094 C 122.300781 126.996094 121.957031 126.996094 121.617188 126.996094 C 121.449219 127.167969 121.105469 127.167969 120.765625 127.167969 L 120.425781 127.167969 C 120.253906 127.335938 119.914062 127.335938 119.742188 127.335938 C 119.402344 127.335938 119.230469 127.335938 118.890625 127.507812 C 118.71875 127.507812 118.550781 127.507812 118.207031 127.507812 L 117.867188 127.679688 L 117.355469 127.847656 L 117.015625 127.847656 L 116.675781 128.019531 C 116.332031 128.019531 116.164062 128.019531 115.992188 128.019531 L 115.820312 128.191406 C 115.652344 128.191406 115.308594 128.191406 115.140625 128.359375 L 114.800781 128.359375 C 114.628906 128.53125 114.457031 128.53125 114.289062 128.53125 L 113.777344 128.703125 L 113.265625 128.871094 L 112.921875 129.042969 C 112.753906 129.042969 112.582031 129.214844 112.414062 129.214844 L 112.070312 129.382812 C 111.902344 129.382812 111.730469 129.382812 111.558594 129.554688 L 111.046875 129.722656 L 110.707031 129.894531 L 110.195312 130.066406 L 109.855469 130.234375 L 109.515625 130.40625 C 109.34375 130.578125 109.171875 130.578125 109.003906 130.578125 L 108.660156 130.917969 C 108.492188 130.917969 108.320312 130.917969 108.152344 131.089844 L 107.808594 131.257812 L 107.296875 131.429688 L 106.957031 131.769531 L 106.445312 131.941406 L 106.105469 132.113281 C 105.933594 132.28125 105.933594 132.28125 105.765625 132.453125 L 105.421875 132.625 L 104.910156 132.964844 L 104.570312 133.132812 L 104.230469 133.476562 L 103.886719 133.644531 C 103.71875 133.816406 103.546875 133.816406 103.378906 133.988281 L 103.035156 134.15625 L 102.695312 134.5 L 102.355469 134.667969 L 101.84375 135.011719 L 101.671875 135.351562 L 101.160156 135.691406 L 100.820312 135.863281 L 99.796875 136.886719 L 99.457031 137.054688 L 99.117188 137.398438 L 98.773438 137.738281 L 98.433594 138.078125 L 98.261719 138.421875 L 97.75 138.761719 L 97.582031 138.933594 L 97.238281 139.445312 L 95.707031 140.976562 L 95.363281 141.488281 L 95.195312 141.832031 C 95.023438 142 94.851562 142.171875 94.683594 142.34375 L 94.683594 142.511719 C 94.511719 142.683594 94.34375 142.855469 94.171875 143.023438 L 94.171875 143.195312 C 94 143.367188 93.832031 143.707031 93.660156 143.875 L 93.660156 144.046875 C 93.488281 144.21875 93.320312 144.386719 93.148438 144.558594 L 93.148438 144.730469 C 92.976562 144.898438 92.808594 145.242188 92.636719 145.410156 L 92.636719 145.582031 C 92.46875 145.753906 92.296875 145.921875 92.125 146.265625 C 91.957031 146.605469 91.785156 146.777344 91.785156 147.117188 L 91.613281 147.117188 C 91.613281 147.289062 91.445312 147.628906 91.273438 147.796875 L 91.273438 147.96875 C 91.101562 148.140625 90.933594 148.480469 90.933594 148.652344 L 90.933594 148.820312 C 90.761719 148.992188 90.589844 149.332031 90.421875 149.503906 L 90.421875 149.675781 C 90.25 149.84375 90.25 150.1875 90.082031 150.355469 L 90.082031 150.527344 C 89.910156 150.699219 89.910156 151.039062 89.738281 151.378906 C 88.035156 155.640625 87.011719 160.246094 87.011719 165.191406 Z M 141.050781 165.191406 C 155.542969 165.191406 166.792969 176.613281 166.792969 191.109375 C 166.792969 205.429688 155.542969 216.855469 141.050781 216.855469 C 126.5625 216.855469 115.140625 205.429688 115.140625 191.109375 C 115.140625 176.613281 126.5625 165.191406 141.050781 165.191406 Z M 233.621094 215.832031 C 219.128906 215.832031 207.539062 204.238281 207.539062 189.914062 C 207.539062 175.59375 219.128906 163.996094 233.621094 163.996094 C 247.769531 163.996094 259.363281 175.59375 259.363281 189.914062 C 259.363281 204.238281 247.769531 215.832031 233.621094 215.832031 Z M 169.011719 230.667969 C 170.542969 232.03125 185.375 243.796875 199.523438 230.835938 C 201.570312 228.960938 204.640625 228.960938 206.855469 231.007812 C 208.730469 233.226562 208.730469 236.292969 206.683594 238.339844 C 199.523438 244.480469 192.195312 246.867188 185.375 246.867188 C 175.660156 246.867188 167.132812 242.261719 162.363281 238.167969 C 160.144531 236.292969 159.976562 232.882812 161.851562 231.007812 C 163.726562 228.960938 166.792969 228.621094 169.011719 230.667969 Z M 169.011719 230.667969 " clip-rule="evenodd"/></clipPath><linearGradient x1="265.000012" gradientTransform="matrix(0.170475, 0, 0, 0.170512, 41.835906, 32.873959)" y1="1012.33002" x2="1441.000065" gradientUnits="userSpaceOnUse" y2="1012.33002" id="dd911ea6af"><stop stop-opacity="1" stop-color="rgb(59.999084%, 64.299011%, 67.498779%)" offset="0"/><stop stop-opacity="1" stop-color="rgb(60.163879%, 64.44397%, 67.637634%)" offset="0.03125"/><stop stop-opacity="1" stop-color="rgb(60.493469%, 64.736938%, 67.918396%)" offset="0.0625"/><stop stop-opacity="1" stop-color="rgb(60.824585%, 65.031433%, 68.200684%)" offset="0.09375"/><stop stop-opacity="1" stop-color="rgb(61.155701%, 65.324402%, 68.481445%)" offset="0.125"/><stop stop-opacity="1" stop-color="rgb(61.486816%, 65.618896%, 68.762207%)" offset="0.15625"/><stop stop-opacity="1" stop-color="rgb(61.817932%, 65.911865%, 69.044495%)" offset="0.1875"/><stop stop-opacity="1" stop-color="rgb(62.149048%, 66.20636%, 69.325256%)" offset="0.21875"/><stop stop-opacity="1" stop-color="rgb(62.480164%, 66.499329%, 69.606018%)" offset="0.25"/><stop stop-opacity="1" stop-color="rgb(62.811279%, 66.793823%, 69.88678%)" offset="0.28125"/><stop stop-opacity="1" stop-color="rgb(63.142395%, 67.086792%, 70.169067%)" offset="0.3125"/><stop stop-opacity="1" stop-color="rgb(63.473511%, 67.381287%, 70.449829%)" offset="0.34375"/><stop stop-opacity="1" stop-color="rgb(63.804626%, 67.674255%, 70.730591%)" offset="0.375"/><stop stop-opacity="1" stop-color="rgb(64.135742%, 67.96875%, 71.012878%)" offset="0.40625"/><stop stop-opacity="1" stop-color="rgb(64.466858%, 68.261719%, 71.29364%)" offset="0.4375"/><stop stop-opacity="1" stop-color="rgb(64.797974%, 68.556213%, 71.574402%)" offset="0.46875"/><stop stop-opacity="1" stop-color="rgb(65.130615%, 68.849182%, 71.855164%)" offset="0.5"/><stop stop-opacity="1" stop-color="rgb(65.461731%, 69.143677%, 72.137451%)" offset="0.53125"/><stop stop-opacity="1" stop-color="rgb(65.792847%, 69.436646%, 72.418213%)" offset="0.5625"/><stop stop-opacity="1" stop-color="rgb(66.123962%, 69.73114%, 72.698975%)" offset="0.59375"/><stop stop-opacity="1" stop-color="rgb(66.455078%, 70.024109%, 72.981262%)" offset="0.625"/><stop stop-opacity="1" stop-color="rgb(66.786194%, 70.318604%, 73.262024%)" offset="0.65625"/><stop stop-opacity="1" stop-color="rgb(67.11731%, 70.611572%, 73.542786%)" offset="0.6875"/><stop stop-opacity="1" stop-color="rgb(67.448425%, 70.904541%, 73.823547%)" offset="0.71875"/><stop stop-opacity="1" stop-color="rgb(67.779541%, 71.199036%, 74.105835%)" offset="0.75"/><stop stop-opacity="1" stop-color="rgb(68.110657%, 71.492004%, 74.386597%)" offset="0.78125"/><stop stop-opacity="1" stop-color="rgb(68.441772%, 71.786499%, 74.667358%)" offset="0.8125"/><stop stop-opacity="1" stop-color="rgb(68.772888%, 72.079468%, 74.949646%)" offset="0.84375"/><stop stop-opacity="1" stop-color="rgb(69.104004%, 72.373962%, 75.230408%)" offset="0.875"/><stop stop-opacity="1" stop-color="rgb(69.43512%, 72.666931%, 75.511169%)" offset="0.90625"/><stop stop-opacity="1" stop-color="rgb(69.766235%, 72.961426%, 75.793457%)" offset="0.9375"/><stop stop-opacity="1" stop-color="rgb(70.097351%, 73.254395%, 76.074219%)" offset="0.96875"/><stop stop-opacity="1" stop-color="rgb(70.428467%, 73.548889%, 76.35498%)" offset="1"/></linearGradient><clipPath id="c77ad401ad"><path d="M 76 116 L 298 116 L 298 294.28125 L 76 294.28125 Z M 76 116 " clip-rule="nonzero"/></clipPath><clipPath id="4d95bbcd89"><path d="M 287 159 L 332.835938 159 L 332.835938 240 L 287 240 Z M 287 159 " clip-rule="nonzero"/></clipPath><clipPath id="b6ab69d36d"><path d="M 169 62.53125 L 206 62.53125 L 206 99 L 169 99 Z M 169 62.53125 " clip-rule="nonzero"/></clipPath><clipPath id="23a82b1cc8"><path d="M 297 169 L 323 169 L 323 230 L 297 230 Z M 297 169 " clip-rule="nonzero"/></clipPath><clipPath id="d0f4467e79"><path d="M 297.71875 169.792969 L 297.71875 229.132812 L 309.992188 229.132812 C 316.980469 229.132812 322.609375 223.675781 322.609375 216.855469 L 322.609375 182.242188 C 322.609375 175.421875 316.980469 169.792969 309.992188 169.792969 Z M 297.71875 169.792969 " clip-rule="evenodd"/></clipPath><linearGradient x1="0.000000567308" gradientTransform="matrix(24.889277, 0, 0, 59.338012, 297.718137, 169.794726)" y1="0.49999" x2="1.000001" gradientUnits="userSpaceOnUse" y2="0.49999" id="966389ca98"><stop stop-opacity="1" stop-color="rgb(59.999084%, 64.299011%, 67.498779%)" offset="0"/><stop stop-opacity="1" stop-color="rgb(60.163879%, 64.445496%, 67.63916%)" offset="0.03125"/><stop stop-opacity="1" stop-color="rgb(60.494995%, 64.73999%, 67.921448%)" offset="0.0625"/><stop stop-opacity="1" stop-color="rgb(60.826111%, 65.032959%, 68.202209%)" offset="0.09375"/><stop stop-opacity="1" stop-color="rgb(61.157227%, 65.327454%, 68.482971%)" offset="0.125"/><stop stop-opacity="1" stop-color="rgb(61.489868%, 65.620422%, 68.765259%)" offset="0.15625"/><stop stop-opacity="1" stop-color="rgb(61.820984%, 65.914917%, 69.046021%)" offset="0.1875"/><stop stop-opacity="1" stop-color="rgb(62.1521%, 66.207886%, 69.326782%)" offset="0.21875"/><stop stop-opacity="1" stop-color="rgb(62.483215%, 66.50238%, 69.60907%)" offset="0.25"/><stop stop-opacity="1" stop-color="rgb(62.814331%, 66.795349%, 69.889832%)" offset="0.28125"/><stop stop-opacity="1" stop-color="rgb(63.145447%, 67.089844%, 70.170593%)" offset="0.3125"/><stop stop-opacity="1" stop-color="rgb(63.476562%, 67.382812%, 70.452881%)" offset="0.34375"/><stop stop-opacity="1" stop-color="rgb(63.807678%, 67.677307%, 70.733643%)" offset="0.375"/><stop stop-opacity="1" stop-color="rgb(64.138794%, 67.970276%, 71.014404%)" offset="0.40625"/><stop stop-opacity="1" stop-color="rgb(64.46991%, 68.264771%, 71.295166%)" offset="0.4375"/><stop stop-opacity="1" stop-color="rgb(64.801025%, 68.557739%, 71.577454%)" offset="0.46875"/><stop stop-opacity="1" stop-color="rgb(65.133667%, 68.852234%, 71.858215%)" offset="0.5"/><stop stop-opacity="1" stop-color="rgb(65.464783%, 69.145203%, 72.138977%)" offset="0.53125"/><stop stop-opacity="1" stop-color="rgb(65.795898%, 69.439697%, 72.421265%)" offset="0.5625"/><stop stop-opacity="1" stop-color="rgb(66.127014%, 69.732666%, 72.702026%)" offset="0.59375"/><stop stop-opacity="1" stop-color="rgb(66.45813%, 70.027161%, 72.982788%)" offset="0.625"/><stop stop-opacity="1" stop-color="rgb(66.789246%, 70.320129%, 73.265076%)" offset="0.65625"/><stop stop-opacity="1" stop-color="rgb(67.120361%, 70.614624%, 73.545837%)" offset="0.6875"/><stop stop-opacity="1" stop-color="rgb(67.451477%, 70.907593%, 73.826599%)" offset="0.71875"/><stop stop-opacity="1" stop-color="rgb(67.782593%, 71.202087%, 74.108887%)" offset="0.75"/><stop stop-opacity="1" stop-color="rgb(68.113708%, 71.495056%, 74.389648%)" offset="0.78125"/><stop stop-opacity="1" stop-color="rgb(68.444824%, 71.789551%, 74.67041%)" offset="0.8125"/><stop stop-opacity="1" stop-color="rgb(68.77594%, 72.08252%, 74.952698%)" offset="0.84375"/><stop stop-opacity="1" stop-color="rgb(69.108582%, 72.377014%, 75.233459%)" offset="0.875"/><stop stop-opacity="1" stop-color="rgb(69.439697%, 72.669983%, 75.514221%)" offset="0.90625"/><stop stop-opacity="1" stop-color="rgb(69.770813%, 72.964478%, 75.796509%)" offset="0.9375"/><stop stop-opacity="1" stop-color="rgb(70.101929%, 73.258972%, 76.077271%)" offset="0.96875"/><stop stop-opacity="1" stop-color="rgb(70.433044%, 73.551941%, 76.358032%)" offset="1"/></linearGradient><clipPath id="93cd7578f1"><path d="M 41.835938 159 L 88 159 L 88 240 L 41.835938 240 Z M 41.835938 159 " clip-rule="nonzero"/></clipPath><clipPath id="5cb0fc2ecb"><path d="M 52 169 L 77 169 L 77 230 L 52 230 Z M 52 169 " clip-rule="nonzero"/></clipPath><clipPath id="8cfbb228af"><path d="M 76.613281 229.816406 L 76.613281 169.964844 L 64.339844 169.964844 C 57.519531 169.964844 52.0625 175.59375 52.0625 182.582031 L 52.0625 217.539062 C 52.0625 224.359375 57.519531 229.816406 64.339844 229.816406 Z M 76.613281 229.816406 " clip-rule="evenodd"/></clipPath><linearGradient x1="0.0000000455693" gradientTransform="matrix(24.548329, 0, 0, 59.849547, 52.064376, 169.965226)" y1="0.49999" x2="1" gradientUnits="userSpaceOnUse" y2="0.49999" id="77709af11d"><stop stop-opacity="1" stop-color="rgb(59.999084%, 64.299011%, 67.498779%)" offset="0"/><stop stop-opacity="1" stop-color="rgb(60.163879%, 64.445496%, 67.63916%)" offset="0.03125"/><stop stop-opacity="1" stop-color="rgb(60.494995%, 64.73999%, 67.921448%)" offset="0.0625"/><stop stop-opacity="1" stop-color="rgb(60.826111%, 65.032959%, 68.202209%)" offset="0.09375"/><stop stop-opacity="1" stop-color="rgb(61.157227%, 65.327454%, 68.482971%)" offset="0.125"/><stop stop-opacity="1" stop-color="rgb(61.489868%, 65.620422%, 68.765259%)" offset="0.15625"/><stop stop-opacity="1" stop-color="rgb(61.820984%, 65.914917%, 69.046021%)" offset="0.1875"/><stop stop-opacity="1" stop-color="rgb(62.1521%, 66.207886%, 69.326782%)" offset="0.21875"/><stop stop-opacity="1" stop-color="rgb(62.483215%, 66.50238%, 69.60907%)" offset="0.25"/><stop stop-opacity="1" stop-color="rgb(62.814331%, 66.795349%, 69.889832%)" offset="0.28125"/><stop stop-opacity="1" stop-color="rgb(63.145447%, 67.089844%, 70.170593%)" offset="0.3125"/><stop stop-opacity="1" stop-color="rgb(63.476562%, 67.382812%, 70.452881%)" offset="0.34375"/><stop stop-opacity="1" stop-color="rgb(63.807678%, 67.677307%, 70.733643%)" offset="0.375"/><stop stop-opacity="1" stop-color="rgb(64.138794%, 67.970276%, 71.014404%)" offset="0.40625"/><stop stop-opacity="1" stop-color="rgb(64.46991%, 68.264771%, 71.295166%)" offset="0.4375"/><stop stop-opacity="1" stop-color="rgb(64.801025%, 68.557739%, 71.577454%)" offset="0.46875"/><stop stop-opacity="1" stop-color="rgb(65.133667%, 68.852234%, 71.858215%)" offset="0.5"/><stop stop-opacity="1" stop-color="rgb(65.464783%, 69.145203%, 72.138977%)" offset="0.53125"/><stop stop-opacity="1" stop-color="rgb(65.795898%, 69.439697%, 72.421265%)" offset="0.5625"/><stop stop-opacity="1" stop-color="rgb(66.127014%, 69.732666%, 72.702026%)" offset="0.59375"/><stop stop-opacity="1" stop-color="rgb(66.45813%, 70.027161%, 72.982788%)" offset="0.625"/><stop stop-opacity="1" stop-color="rgb(66.789246%, 70.320129%, 73.265076%)" offset="0.65625"/><stop stop-opacity="1" stop-color="rgb(67.120361%, 70.614624%, 73.545837%)" offset="0.6875"/><stop stop-opacity="1" stop-color="rgb(67.451477%, 70.907593%, 73.826599%)" offset="0.71875"/><stop stop-opacity="1" stop-color="rgb(67.782593%, 71.202087%, 74.108887%)" offset="0.75"/><stop stop-opacity="1" stop-color="rgb(68.113708%, 71.495056%, 74.389648%)" offset="0.78125"/><stop stop-opacity="1" stop-color="rgb(68.444824%, 71.789551%, 74.67041%)" offset="0.8125"/><stop stop-opacity="1" stop-color="rgb(68.77594%, 72.08252%, 74.952698%)" offset="0.84375"/><stop stop-opacity="1" stop-color="rgb(69.108582%, 72.377014%, 75.233459%)" offset="0.875"/><stop stop-opacity="1" stop-color="rgb(69.439697%, 72.669983%, 75.514221%)" offset="0.90625"/><stop stop-opacity="1" stop-color="rgb(69.770813%, 72.964478%, 75.796509%)" offset="0.9375"/><stop stop-opacity="1" stop-color="rgb(70.101929%, 73.258972%, 76.077271%)" offset="0.96875"/><stop stop-opacity="1" stop-color="rgb(70.433044%, 73.551941%, 76.358032%)" offset="1"/></linearGradient></defs><g clip-path="url(#7779601f9f)"><g clip-path="url(#d07632692d)"><path fill="url(#dd911ea6af)" d="M 87.011719 126.824219 L 87.011719 284.039062 L 287.488281 284.039062 L 287.488281 126.824219 Z M 87.011719 126.824219 " fill-rule="nonzero"/></g></g><g clip-path="url(#c77ad401ad)"><path fill="#333333" d="M 248.792969 294.269531 L 125.710938 294.269531 C 98.605469 294.269531 76.613281 272.273438 76.613281 245.332031 L 76.613281 165.53125 C 76.613281 138.421875 98.605469 116.425781 125.710938 116.425781 L 248.792969 116.425781 C 275.726562 116.425781 297.71875 138.421875 297.71875 165.53125 L 297.71875 245.5 C 297.71875 272.441406 275.726562 294.269531 248.792969 294.269531 Z M 125.710938 126.824219 C 104.398438 126.824219 87.011719 144.21875 87.011719 165.53125 L 87.011719 245.5 C 87.011719 266.816406 104.398438 284.039062 125.710938 284.039062 L 248.792969 284.039062 C 270.101562 284.039062 287.488281 266.816406 287.488281 245.5 L 287.488281 165.53125 C 287.488281 144.21875 270.101562 126.824219 248.792969 126.824219 Z M 125.710938 126.824219 " fill-opacity="1" fill-rule="evenodd"/></g><g clip-path="url(#4d95bbcd89)"><path fill="#333333" d="M 309.992188 239.535156 L 292.773438 239.535156 C 289.875 239.535156 287.488281 237.148438 287.488281 234.417969 C 287.488281 231.519531 289.875 229.132812 292.773438 229.132812 L 309.992188 229.132812 C 316.980469 229.132812 322.609375 223.675781 322.609375 216.855469 L 322.609375 182.242188 C 322.609375 175.421875 316.980469 169.792969 309.992188 169.792969 L 292.773438 169.792969 C 289.875 169.792969 287.488281 167.40625 287.488281 164.507812 C 287.488281 161.609375 289.875 159.394531 292.773438 159.394531 L 309.992188 159.394531 C 322.609375 159.394531 332.835938 169.453125 332.835938 182.070312 L 332.835938 217.027344 C 332.835938 229.644531 322.609375 239.535156 309.992188 239.535156 Z M 309.992188 239.535156 " fill-opacity="1" fill-rule="evenodd"/></g><path fill="#333333" d="M 141.050781 216.855469 C 126.5625 216.855469 115.140625 205.429688 115.140625 191.109375 C 115.140625 176.613281 126.5625 165.191406 141.050781 165.191406 C 155.542969 165.191406 166.792969 176.613281 166.792969 191.109375 C 166.792969 205.429688 155.542969 216.855469 141.050781 216.855469 Z M 141.050781 175.421875 C 132.1875 175.421875 125.367188 182.242188 125.367188 191.109375 C 125.367188 199.804688 132.1875 206.625 141.050781 206.625 C 149.746094 206.625 156.734375 199.804688 156.734375 191.109375 C 156.734375 182.242188 149.746094 175.421875 141.050781 175.421875 Z M 141.050781 175.421875 " fill-opacity="1" fill-rule="evenodd"/><path fill="#333333" d="M 233.621094 215.832031 C 219.128906 215.832031 207.539062 204.238281 207.539062 189.914062 C 207.539062 175.59375 219.128906 163.996094 233.621094 163.996094 C 247.769531 163.996094 259.363281 175.59375 259.363281 189.914062 C 259.363281 204.238281 247.769531 215.832031 233.621094 215.832031 Z M 233.621094 174.226562 C 224.753906 174.226562 217.765625 181.390625 217.765625 189.914062 C 217.765625 198.609375 224.753906 205.773438 233.621094 205.773438 C 242.3125 205.773438 249.132812 198.609375 249.132812 189.914062 C 249.132812 181.046875 242.144531 174.226562 233.621094 174.226562 Z M 233.621094 174.226562 " fill-opacity="1" fill-rule="evenodd"/><path fill="#333333" d="M 185.375 246.867188 C 175.660156 246.867188 167.132812 242.261719 162.363281 238.167969 C 160.144531 236.292969 159.976562 232.882812 161.851562 231.007812 C 163.726562 228.960938 166.792969 228.621094 169.011719 230.667969 C 170.542969 232.03125 185.375 243.796875 199.523438 230.835938 C 201.570312 228.960938 204.640625 228.960938 206.855469 231.007812 C 208.730469 233.226562 208.730469 236.292969 206.683594 238.339844 C 199.523438 244.480469 192.195312 246.867188 185.375 246.867188 Z M 185.375 246.867188 " fill-opacity="1" fill-rule="evenodd"/><path fill="#333333" d="M 187.25 126.824219 C 184.351562 126.824219 181.964844 124.4375 181.964844 121.710938 L 182.136719 93.574219 C 182.136719 90.675781 184.523438 88.460938 187.421875 88.460938 C 190.320312 88.460938 192.707031 90.847656 192.363281 93.746094 L 192.195312 121.882812 C 192.363281 124.4375 189.976562 126.824219 187.25 126.824219 Z M 187.25 126.824219 " fill-opacity="1" fill-rule="evenodd"/><g clip-path="url(#b6ab69d36d)"><path fill="#333333" d="M 187.421875 98.519531 C 177.535156 98.519531 169.351562 90.335938 169.351562 80.445312 C 169.351562 70.558594 177.535156 62.542969 187.421875 62.542969 C 197.308594 62.542969 205.492188 70.558594 205.492188 80.445312 C 205.492188 90.335938 197.308594 98.519531 187.421875 98.519531 Z M 187.421875 72.601562 C 183.160156 72.601562 179.578125 76.183594 179.578125 80.445312 C 179.578125 84.710938 183.160156 88.289062 187.421875 88.289062 C 191.683594 88.289062 195.261719 84.710938 195.261719 80.445312 C 195.261719 76.183594 191.683594 72.601562 187.421875 72.601562 Z M 187.421875 72.601562 " fill-opacity="1" fill-rule="evenodd"/></g><path fill="#d9f2f2" d="M 156.734375 191.109375 C 156.734375 182.242188 149.746094 175.421875 141.050781 175.421875 C 132.1875 175.421875 125.367188 182.242188 125.367188 191.109375 C 125.367188 199.804688 132.1875 206.625 141.050781 206.625 C 149.746094 206.625 156.734375 199.804688 156.734375 191.109375 Z M 156.734375 191.109375 " fill-opacity="1" fill-rule="evenodd"/><path fill="#d9f2f2" d="M 217.765625 189.914062 C 217.765625 198.609375 224.753906 205.773438 233.621094 205.773438 C 242.3125 205.773438 249.132812 198.609375 249.132812 189.914062 C 249.132812 181.046875 242.144531 174.226562 233.621094 174.226562 C 224.753906 174.226562 217.765625 181.390625 217.765625 189.914062 Z M 217.765625 189.914062 " fill-opacity="1" fill-rule="evenodd"/><g clip-path="url(#23a82b1cc8)"><g clip-path="url(#d0f4467e79)"><path fill="url(#966389ca98)" d="M 297.71875 169.792969 L 297.71875 229.132812 L 322.609375 229.132812 L 322.609375 169.792969 Z M 297.71875 169.792969 " fill-rule="nonzero"/></g></g><g clip-path="url(#93cd7578f1)"><path fill="#333333" d="M 81.898438 239.535156 L 64.339844 239.535156 C 52.0625 239.535156 41.835938 229.472656 41.835938 217.027344 L 41.835938 182.242188 C 41.835938 169.792969 52.0625 159.5625 64.339844 159.5625 L 81.898438 159.5625 C 84.625 159.5625 87.011719 161.949219 87.011719 164.679688 C 87.011719 167.578125 84.625 169.964844 81.898438 169.964844 L 64.339844 169.964844 C 57.519531 169.964844 52.0625 175.59375 52.0625 182.582031 L 52.0625 217.539062 C 52.0625 224.359375 57.519531 229.816406 64.339844 229.816406 L 81.898438 229.816406 C 84.625 229.816406 87.011719 232.203125 87.011719 235.101562 C 87.011719 238 84.625 239.535156 81.898438 239.535156 Z M 81.898438 239.535156 " fill-opacity="1" fill-rule="evenodd"/></g><g clip-path="url(#5cb0fc2ecb)"><g clip-path="url(#8cfbb228af)"><path fill="url(#77709af11d)" d="M 52.0625 169.964844 L 52.0625 229.816406 L 76.613281 229.816406 L 76.613281 169.964844 Z M 52.0625 169.964844 " fill-rule="nonzero"/></g></g><path fill="#d9f2f2" d="M 179.578125 80.445312 C 179.578125 84.710938 183.160156 88.289062 187.421875 88.289062 C 191.683594 88.289062 195.261719 84.710938 195.261719 80.445312 C 195.261719 76.183594 191.683594 72.601562 187.421875 72.601562 C 183.160156 72.601562 179.578125 76.183594 179.578125 80.445312 Z M 179.578125 80.445312 " fill-opacity="1" fill-rule="evenodd"/></svg>