<svg xmlns="http://www.w3.org/2000/svg" xmlns:xlink="http://www.w3.org/1999/xlink" width="500" zoomAndPan="magnify" viewBox="0 0 375 374.999991" height="500" preserveAspectRatio="xMidYMid meet" version="1.0"><defs><g/><clipPath id="fc5327c24f"><path d="M 95.300781 33.359375 L 279.511719 33.359375 L 279.511719 217.566406 L 95.300781 217.566406 Z M 95.300781 33.359375 " clip-rule="nonzero"/></clipPath><clipPath id="4008103629"><path d="M 137.023438 93.273438 L 245.84375 93.273438 L 245.84375 103.761719 L 137.023438 103.761719 Z M 137.023438 93.273438 " clip-rule="nonzero"/></clipPath><clipPath id="6d23fbe318"><path d="M 137.023438 103.613281 L 245.84375 103.613281 L 245.84375 114.101562 L 137.023438 114.101562 Z M 137.023438 103.613281 " clip-rule="nonzero"/></clipPath><clipPath id="c989962be9"><path d="M 129.136719 97.542969 L 244.511719 97.542969 L 244.511719 108.035156 L 129.136719 108.035156 Z M 129.136719 97.542969 " clip-rule="nonzero"/></clipPath></defs><g clip-path="url(#fc5327c24f)"><path fill="#f06b6b" d="M 279.511719 125.464844 C 279.511719 126.972656 279.472656 128.476562 279.398438 129.984375 C 279.324219 131.488281 279.214844 132.992188 279.066406 134.492188 C 278.917969 135.992188 278.734375 137.488281 278.511719 138.976562 C 278.292969 140.46875 278.035156 141.953125 277.738281 143.433594 C 277.445312 144.910156 277.117188 146.382812 276.75 147.84375 C 276.382812 149.304688 275.980469 150.757812 275.542969 152.199219 C 275.105469 153.644531 274.632812 155.074219 274.125 156.492188 C 273.617188 157.910156 273.074219 159.316406 272.5 160.710938 C 271.921875 162.101562 271.3125 163.480469 270.667969 164.84375 C 270.023438 166.207031 269.34375 167.550781 268.632812 168.882812 C 267.921875 170.210938 267.179688 171.523438 266.40625 172.816406 C 265.632812 174.109375 264.824219 175.382812 263.988281 176.632812 C 263.148438 177.886719 262.28125 179.121094 261.382812 180.332031 C 260.488281 181.539062 259.558594 182.730469 258.601562 183.894531 C 257.648438 185.058594 256.664062 186.199219 255.652344 187.316406 C 254.636719 188.433594 253.597656 189.527344 252.53125 190.589844 C 251.46875 191.65625 250.375 192.695312 249.257812 193.707031 C 248.140625 194.722656 247 195.707031 245.835938 196.660156 C 244.671875 197.617188 243.484375 198.542969 242.273438 199.441406 C 241.0625 200.339844 239.828125 201.207031 238.574219 202.046875 C 237.324219 202.882812 236.050781 203.6875 234.757812 204.464844 C 233.464844 205.238281 232.152344 205.980469 230.824219 206.691406 C 229.492188 207.402344 228.148438 208.082031 226.785156 208.726562 C 225.421875 209.371094 224.046875 209.980469 222.652344 210.558594 C 221.261719 211.132812 219.855469 211.675781 218.433594 212.183594 C 217.015625 212.691406 215.585938 213.164062 214.140625 213.601562 C 212.699219 214.039062 211.246094 214.441406 209.785156 214.808594 C 208.324219 215.175781 206.851562 215.503906 205.375 215.796875 C 203.894531 216.09375 202.410156 216.351562 200.921875 216.570312 C 199.429688 216.792969 197.933594 216.976562 196.433594 217.125 C 194.933594 217.273438 193.429688 217.382812 191.925781 217.457031 C 190.417969 217.53125 188.914062 217.566406 187.40625 217.566406 C 185.898438 217.566406 184.390625 217.53125 182.886719 217.457031 C 181.378906 217.382812 179.878906 217.273438 178.378906 217.125 C 176.878906 216.976562 175.382812 216.792969 173.890625 216.570312 C 172.398438 216.351562 170.914062 216.09375 169.4375 215.796875 C 167.957031 215.503906 166.488281 215.175781 165.027344 214.808594 C 163.5625 214.441406 162.113281 214.039062 160.667969 213.601562 C 159.226562 213.164062 157.796875 212.691406 156.375 212.183594 C 154.957031 211.675781 153.550781 211.132812 152.160156 210.558594 C 150.765625 209.980469 149.386719 209.371094 148.027344 208.726562 C 146.664062 208.082031 145.316406 207.402344 143.988281 206.691406 C 142.660156 205.980469 141.347656 205.238281 140.054688 204.464844 C 138.761719 203.6875 137.488281 202.882812 136.234375 202.046875 C 134.980469 201.207031 133.75 200.339844 132.539062 199.441406 C 131.328125 198.542969 130.140625 197.617188 128.976562 196.660156 C 127.808594 195.707031 126.667969 194.722656 125.550781 193.707031 C 124.433594 192.695312 123.34375 191.65625 122.277344 190.589844 C 121.210938 189.527344 120.171875 188.433594 119.160156 187.316406 C 118.148438 186.199219 117.164062 185.058594 116.207031 183.894531 C 115.25 182.730469 114.324219 181.539062 113.425781 180.332031 C 112.527344 179.121094 111.660156 177.886719 110.824219 176.632812 C 109.988281 175.382812 109.179688 174.109375 108.40625 172.816406 C 107.628906 171.523438 106.886719 170.210938 106.175781 168.882812 C 105.464844 167.550781 104.789062 166.207031 104.144531 164.84375 C 103.5 163.480469 102.890625 162.101562 102.3125 160.710938 C 101.734375 159.316406 101.191406 157.910156 100.683594 156.492188 C 100.175781 155.074219 99.703125 153.644531 99.265625 152.199219 C 98.828125 150.757812 98.429688 149.304688 98.0625 147.84375 C 97.695312 146.382812 97.367188 144.910156 97.070312 143.433594 C 96.777344 141.953125 96.519531 140.46875 96.296875 138.976562 C 96.078125 137.488281 95.894531 135.992188 95.746094 134.492188 C 95.597656 132.992188 95.484375 131.488281 95.414062 129.984375 C 95.339844 128.476562 95.300781 126.972656 95.300781 125.464844 C 95.300781 123.957031 95.339844 122.449219 95.414062 120.945312 C 95.484375 119.4375 95.597656 117.9375 95.746094 116.4375 C 95.894531 114.9375 96.078125 113.441406 96.296875 111.949219 C 96.519531 110.457031 96.777344 108.972656 97.070312 107.496094 C 97.367188 106.015625 97.695312 104.546875 98.0625 103.085938 C 98.429688 101.621094 98.828125 100.167969 99.265625 98.726562 C 99.703125 97.285156 100.175781 95.855469 100.683594 94.433594 C 101.191406 93.015625 101.734375 91.609375 102.3125 90.21875 C 102.890625 88.824219 103.5 87.445312 104.144531 86.085938 C 104.789062 84.722656 105.464844 83.375 106.175781 82.046875 C 106.886719 80.71875 107.628906 79.40625 108.40625 78.113281 C 109.179688 76.820312 109.988281 75.546875 110.824219 74.292969 C 111.660156 73.039062 112.527344 71.808594 113.425781 70.597656 C 114.324219 69.386719 115.25 68.199219 116.207031 67.035156 C 117.164062 65.867188 118.148438 64.726562 119.160156 63.609375 C 120.171875 62.492188 121.210938 61.402344 122.277344 60.335938 C 123.34375 59.269531 124.433594 58.230469 125.550781 57.21875 C 126.667969 56.207031 127.808594 55.222656 128.976562 54.265625 C 130.140625 53.308594 131.328125 52.382812 132.539062 51.484375 C 133.75 50.585938 134.980469 49.71875 136.234375 48.882812 C 137.488281 48.042969 138.761719 47.238281 140.054688 46.464844 C 141.347656 45.6875 142.660156 44.945312 143.988281 44.234375 C 145.316406 43.523438 146.664062 42.847656 148.027344 42.203125 C 149.386719 41.558594 150.765625 40.949219 152.160156 40.371094 C 153.550781 39.792969 154.957031 39.25 156.375 38.742188 C 157.796875 38.234375 159.226562 37.761719 160.667969 37.324219 C 162.113281 36.886719 163.5625 36.484375 165.027344 36.121094 C 166.488281 35.753906 167.957031 35.421875 169.4375 35.128906 C 170.914062 34.835938 172.398438 34.578125 173.890625 34.355469 C 175.382812 34.136719 176.878906 33.949219 178.378906 33.804688 C 179.878906 33.65625 181.378906 33.542969 182.886719 33.46875 C 184.390625 33.398438 185.898438 33.359375 187.40625 33.359375 C 188.914062 33.359375 190.417969 33.398438 191.925781 33.46875 C 193.429688 33.542969 194.933594 33.65625 196.433594 33.804688 C 197.933594 33.949219 199.429688 34.136719 200.921875 34.355469 C 202.410156 34.578125 203.894531 34.835938 205.375 35.128906 C 206.851562 35.421875 208.324219 35.753906 209.785156 36.121094 C 211.246094 36.484375 212.699219 36.886719 214.140625 37.324219 C 215.585938 37.761719 217.015625 38.234375 218.433594 38.742188 C 219.855469 39.25 221.261719 39.792969 222.652344 40.371094 C 224.046875 40.949219 225.421875 41.558594 226.785156 42.203125 C 228.148438 42.847656 229.492188 43.523438 230.824219 44.234375 C 232.152344 44.945312 233.464844 45.6875 234.757812 46.464844 C 236.050781 47.238281 237.324219 48.042969 238.574219 48.882812 C 239.828125 49.71875 241.0625 50.585938 242.273438 51.484375 C 243.484375 52.382812 244.671875 53.308594 245.835938 54.265625 C 247 55.222656 248.140625 56.207031 249.257812 57.21875 C 250.375 58.230469 251.46875 59.269531 252.53125 60.335938 C 253.597656 61.402344 254.636719 62.492188 255.652344 63.609375 C 256.664062 64.726562 257.648438 65.867188 258.601562 67.035156 C 259.558594 68.199219 260.488281 69.386719 261.382812 70.597656 C 262.28125 71.808594 263.148438 73.039062 263.988281 74.292969 C 264.824219 75.546875 265.632812 76.820312 266.40625 78.113281 C 267.179688 79.40625 267.921875 80.71875 268.632812 82.046875 C 269.34375 83.375 270.023438 84.722656 270.667969 86.085938 C 271.3125 87.445312 271.921875 88.824219 272.5 90.21875 C 273.074219 91.609375 273.617188 93.015625 274.125 94.433594 C 274.632812 95.855469 275.105469 97.285156 275.542969 98.726562 C 275.980469 100.167969 276.382812 101.621094 276.75 103.085938 C 277.117188 104.546875 277.445312 106.015625 277.738281 107.496094 C 278.035156 108.972656 278.292969 110.457031 278.511719 111.949219 C 278.734375 113.441406 278.917969 114.9375 279.066406 116.4375 C 279.214844 117.9375 279.324219 119.4375 279.398438 120.945312 C 279.472656 122.449219 279.511719 123.957031 279.511719 125.464844 Z M 279.511719 125.464844 " fill-opacity="1" fill-rule="nonzero"/></g><path fill="#ffffff" d="M 235.652344 78.535156 L 212.257812 78.535156 L 212.257812 40.960938 L 124.980469 40.960938 L 124.980469 203.679688 L 249.832031 203.679688 L 249.832031 78.535156 Z M 235.652344 78.535156 " fill-opacity="1" fill-rule="nonzero"/><path fill="#303c42" d="M 249.832031 206.894531 L 124.980469 206.894531 C 123.226562 206.894531 121.910156 205.578125 121.910156 203.824219 L 121.910156 40.960938 C 121.910156 39.207031 123.226562 37.890625 124.980469 37.890625 L 212.257812 37.890625 C 214.011719 37.890625 215.328125 39.207031 215.328125 40.960938 L 215.328125 75.464844 L 249.832031 75.464844 C 251.585938 75.464844 252.902344 76.78125 252.902344 78.535156 L 252.902344 203.679688 C 252.902344 205.433594 251.585938 206.894531 249.832031 206.894531 Z M 128.050781 200.609375 L 246.761719 200.609375 L 246.761719 81.605469 L 212.257812 81.605469 C 210.503906 81.605469 209.1875 80.289062 209.1875 78.535156 L 209.1875 44.03125 L 128.050781 44.03125 Z M 128.050781 200.609375 " fill-opacity="1" fill-rule="nonzero"/><path fill="#e6e6e5" d="M 212.257812 40.960938 L 212.257812 78.535156 L 249.832031 78.535156 Z M 212.257812 40.960938 " fill-opacity="1" fill-rule="nonzero"/><path fill="#303c42" d="M 249.832031 81.605469 L 212.257812 81.605469 C 210.503906 81.605469 209.1875 80.289062 209.1875 78.535156 L 209.1875 40.960938 C 209.1875 39.644531 209.921875 38.621094 211.089844 38.183594 C 212.257812 37.746094 213.574219 37.890625 214.453125 38.769531 L 252.023438 76.339844 C 252.902344 77.21875 253.195312 78.535156 252.753906 79.703125 C 252.171875 80.875 251.148438 81.605469 249.832031 81.605469 Z M 215.328125 75.464844 L 242.375 75.464844 L 215.328125 48.417969 Z M 215.328125 75.464844 " fill-opacity="1" fill-rule="nonzero"/><path fill="#303c42" d="M 219.714844 128.09375 L 155.972656 128.09375 C 154.21875 128.09375 152.902344 126.78125 152.902344 125.023438 C 152.902344 123.269531 154.21875 121.957031 155.972656 121.957031 L 219.714844 121.957031 C 221.46875 121.957031 222.785156 123.269531 222.785156 125.023438 C 222.785156 126.78125 221.324219 128.09375 219.714844 128.09375 Z M 219.714844 128.09375 " fill-opacity="1" fill-rule="nonzero"/><path fill="#303c42" d="M 219.277344 151.339844 L 155.535156 151.339844 C 153.78125 151.339844 152.464844 150.023438 152.464844 148.269531 C 152.464844 146.515625 153.78125 145.199219 155.535156 145.199219 L 219.277344 145.199219 C 221.03125 145.199219 222.347656 146.515625 222.347656 148.269531 C 222.347656 150.023438 221.03125 151.339844 219.277344 151.339844 Z M 219.277344 151.339844 " fill-opacity="1" fill-rule="nonzero"/><path fill="#303c42" d="M 219.277344 174.730469 L 155.535156 174.730469 C 153.78125 174.730469 152.464844 173.417969 152.464844 171.664062 C 152.464844 169.90625 153.78125 168.59375 155.535156 168.59375 L 219.277344 168.59375 C 221.03125 168.59375 222.347656 169.90625 222.347656 171.664062 C 222.347656 173.417969 221.03125 174.730469 219.277344 174.730469 Z M 219.277344 174.730469 " fill-opacity="1" fill-rule="nonzero"/><path fill="#303c42" d="M 152.902344 99.878906 C 152.757812 100.027344 152.609375 100.171875 152.609375 100.464844 C 152.609375 100.757812 152.757812 100.902344 152.902344 101.050781 C 153.195312 101.195312 153.632812 101.339844 154.511719 101.632812 C 155.386719 101.78125 155.972656 102.21875 156.410156 102.511719 C 156.851562 102.949219 157.144531 103.535156 157.144531 104.265625 C 157.144531 104.996094 156.851562 105.726562 156.265625 106.164062 C 155.679688 106.605469 154.949219 106.898438 153.925781 106.898438 C 152.464844 106.898438 151.296875 106.3125 150.125 105.289062 L 151.296875 103.828125 C 152.316406 104.703125 153.195312 105.140625 153.925781 105.140625 C 154.21875 105.140625 154.511719 104.996094 154.804688 104.851562 C 154.949219 104.703125 155.097656 104.410156 155.097656 104.265625 C 155.097656 103.972656 154.949219 103.828125 154.804688 103.679688 C 154.65625 103.535156 154.21875 103.386719 153.488281 103.242188 C 152.464844 102.949219 151.734375 102.65625 151.296875 102.21875 C 150.855469 102.074219 150.5625 101.488281 150.5625 100.609375 C 150.5625 99.734375 150.855469 99.148438 151.441406 98.710938 C 152.027344 98.269531 152.757812 97.980469 153.632812 97.980469 C 154.21875 97.980469 154.804688 98.125 155.386719 98.269531 C 155.972656 98.417969 156.558594 98.710938 156.996094 99.148438 L 155.972656 100.609375 C 155.242188 100.027344 154.363281 99.734375 153.632812 99.734375 C 153.339844 99.734375 153.050781 99.734375 152.902344 99.878906 Z M 152.902344 99.878906 " fill-opacity="1" fill-rule="nonzero"/><path fill="#303c42" d="M 165.914062 105.289062 C 166.9375 105.289062 167.667969 104.851562 168.253906 104.117188 L 169.570312 105.433594 C 168.546875 106.605469 167.375 107.1875 166.0625 107.1875 C 164.746094 107.1875 163.574219 106.75 162.699219 105.875 C 161.820312 104.996094 161.382812 103.972656 161.382812 102.65625 C 161.382812 101.339844 161.820312 100.316406 162.699219 99.441406 C 163.574219 98.5625 164.746094 98.125 165.914062 98.125 C 167.375 98.125 168.546875 98.710938 169.570312 99.734375 L 168.398438 101.050781 C 167.816406 100.316406 166.9375 99.878906 166.0625 99.878906 C 165.328125 99.878906 164.746094 100.171875 164.160156 100.609375 C 163.574219 101.050781 163.429688 101.78125 163.429688 102.511719 C 163.429688 103.242188 163.722656 103.972656 164.160156 104.558594 C 164.597656 104.996094 165.183594 105.289062 165.914062 105.289062 Z M 165.914062 105.289062 " fill-opacity="1" fill-rule="nonzero"/><path fill="#303c42" d="M 174.101562 98.125 L 176.003906 98.125 L 176.003906 106.898438 L 174.101562 106.898438 Z M 174.101562 98.125 " fill-opacity="1" fill-rule="nonzero"/><path fill="#303c42" d="M 187.699219 98.125 L 187.699219 99.878906 L 183.3125 99.878906 L 183.3125 101.632812 L 187.257812 101.632812 L 187.257812 103.242188 L 183.3125 103.242188 L 183.3125 105.140625 L 187.84375 105.140625 L 187.84375 106.898438 L 181.410156 106.898438 L 181.410156 98.125 Z M 187.699219 98.125 " fill-opacity="1" fill-rule="nonzero"/><path fill="#303c42" d="M 198.664062 98.125 L 200.5625 98.125 L 200.5625 106.898438 L 198.664062 106.898438 L 194.421875 101.339844 L 194.421875 106.898438 L 192.523438 106.898438 L 192.523438 98.125 L 194.421875 98.125 L 198.808594 103.828125 L 198.808594 98.125 Z M 198.664062 98.125 " fill-opacity="1" fill-rule="nonzero"/><path fill="#303c42" d="M 209.921875 105.289062 C 210.945312 105.289062 211.675781 104.851562 212.257812 104.117188 L 213.574219 105.433594 C 212.550781 106.605469 211.382812 107.1875 210.066406 107.1875 C 208.75 107.1875 207.582031 106.75 206.703125 105.875 C 205.828125 104.996094 205.386719 103.972656 205.386719 102.65625 C 205.386719 101.339844 205.828125 100.316406 206.703125 99.441406 C 207.582031 98.5625 208.75 98.125 209.921875 98.125 C 211.382812 98.125 212.550781 98.710938 213.574219 99.734375 L 212.40625 101.050781 C 211.820312 100.316406 210.945312 99.878906 210.066406 99.878906 C 209.335938 99.878906 208.75 100.171875 208.164062 100.609375 C 207.582031 101.050781 207.433594 101.78125 207.433594 102.511719 C 207.433594 103.242188 207.726562 103.972656 208.164062 104.558594 C 208.605469 104.996094 209.1875 105.289062 209.921875 105.289062 Z M 209.921875 105.289062 " fill-opacity="1" fill-rule="nonzero"/><path fill="#303c42" d="M 224.539062 98.125 L 224.539062 99.878906 L 220.152344 99.878906 L 220.152344 101.632812 L 224.101562 101.632812 L 224.101562 103.242188 L 220.152344 103.242188 L 220.152344 105.140625 L 224.6875 105.140625 L 224.6875 106.898438 L 218.105469 106.898438 L 218.105469 98.125 Z M 224.539062 98.125 " fill-opacity="1" fill-rule="nonzero"/><g clip-path="url(#4008103629)"><path fill="#f06b6b" d="M 280.042969 108.789062 C 280.042969 110.296875 280.007812 111.800781 279.933594 113.308594 C 279.859375 114.8125 279.746094 116.316406 279.601562 117.816406 C 279.453125 119.316406 279.269531 120.8125 279.046875 122.300781 C 278.824219 123.792969 278.566406 125.277344 278.273438 126.757812 C 277.980469 128.234375 277.648438 129.703125 277.285156 131.167969 C 276.917969 132.628906 276.515625 134.082031 276.078125 135.523438 C 275.640625 136.964844 275.167969 138.398438 274.660156 139.816406 C 274.152344 141.234375 273.609375 142.640625 273.03125 144.035156 C 272.457031 145.425781 271.84375 146.804688 271.199219 148.167969 C 270.554688 149.53125 269.878906 150.875 269.167969 152.207031 C 268.457031 153.535156 267.714844 154.847656 266.941406 156.136719 C 266.164062 157.429688 265.359375 158.703125 264.519531 159.957031 C 263.683594 161.210938 262.816406 162.441406 261.917969 163.652344 C 261.019531 164.863281 260.09375 166.050781 259.136719 167.21875 C 258.179688 168.382812 257.195312 169.523438 256.183594 170.640625 C 255.171875 171.757812 254.132812 172.847656 253.066406 173.914062 C 252 174.980469 250.910156 176.019531 249.792969 177.03125 C 248.675781 178.042969 247.535156 179.027344 246.371094 179.984375 C 245.203125 180.941406 244.015625 181.867188 242.804688 182.765625 C 241.59375 183.664062 240.363281 184.53125 239.109375 185.371094 C 237.855469 186.207031 236.582031 187.011719 235.289062 187.789062 C 233.996094 188.5625 232.6875 189.304688 231.355469 190.015625 C 230.027344 190.726562 228.679688 191.40625 227.320312 192.046875 C 225.957031 192.691406 224.578125 193.304688 223.1875 193.878906 C 221.792969 194.457031 220.386719 195 218.96875 195.507812 C 217.550781 196.015625 216.117188 196.488281 214.675781 196.925781 C 213.234375 197.363281 211.78125 197.765625 210.320312 198.132812 C 208.855469 198.496094 207.386719 198.828125 205.90625 199.121094 C 204.429688 199.417969 202.945312 199.671875 201.453125 199.894531 C 199.960938 200.117188 198.46875 200.300781 196.96875 200.449219 C 195.46875 200.597656 193.964844 200.707031 192.457031 200.78125 C 190.953125 200.855469 189.445312 200.890625 187.9375 200.890625 C 186.433594 200.890625 184.925781 200.855469 183.417969 200.78125 C 181.914062 200.707031 180.410156 200.597656 178.910156 200.449219 C 177.410156 200.300781 175.914062 200.117188 174.425781 199.894531 C 172.933594 199.671875 171.449219 199.417969 169.96875 199.121094 C 168.492188 198.828125 167.023438 198.496094 165.558594 198.132812 C 164.097656 197.765625 162.644531 197.363281 161.203125 196.925781 C 159.761719 196.488281 158.328125 196.015625 156.910156 195.507812 C 155.492188 195 154.085938 194.457031 152.691406 193.878906 C 151.300781 193.304688 149.921875 192.691406 148.558594 192.046875 C 147.195312 191.40625 145.851562 190.726562 144.523438 190.015625 C 143.191406 189.304688 141.882812 188.5625 140.589844 187.789062 C 139.296875 187.011719 138.023438 186.207031 136.769531 185.371094 C 135.515625 184.53125 134.285156 183.664062 133.074219 182.765625 C 131.863281 181.867188 130.675781 180.941406 129.507812 179.984375 C 128.34375 179.027344 127.203125 178.042969 126.085938 177.03125 C 124.96875 176.019531 123.878906 174.980469 122.8125 173.914062 C 121.746094 172.847656 120.707031 171.757812 119.695312 170.640625 C 118.683594 169.523438 117.699219 168.382812 116.742188 167.21875 C 115.785156 166.050781 114.859375 164.863281 113.960938 163.652344 C 113.0625 162.441406 112.195312 161.210938 111.355469 159.957031 C 110.519531 158.703125 109.714844 157.429688 108.9375 156.136719 C 108.164062 154.847656 107.421875 153.535156 106.710938 152.207031 C 106 150.875 105.324219 149.53125 104.679688 148.167969 C 104.035156 146.804688 103.421875 145.425781 102.847656 144.035156 C 102.269531 142.640625 101.726562 141.234375 101.21875 139.816406 C 100.710938 138.398438 100.238281 136.964844 99.800781 135.523438 C 99.363281 134.082031 98.960938 132.628906 98.59375 131.167969 C 98.230469 129.703125 97.898438 128.234375 97.605469 126.757812 C 97.3125 125.277344 97.054688 123.792969 96.832031 122.300781 C 96.609375 120.8125 96.425781 119.316406 96.277344 117.816406 C 96.128906 116.316406 96.019531 114.8125 95.945312 113.308594 C 95.871094 111.800781 95.835938 110.296875 95.835938 108.789062 C 95.835938 107.28125 95.871094 105.773438 95.945312 104.269531 C 96.019531 102.761719 96.128906 101.261719 96.277344 99.761719 C 96.425781 98.257812 96.609375 96.765625 96.832031 95.273438 C 97.054688 93.78125 97.3125 92.296875 97.605469 90.820312 C 97.898438 89.339844 98.230469 87.871094 98.59375 86.40625 C 98.960938 84.945312 99.363281 83.492188 99.800781 82.050781 C 100.238281 80.609375 100.710938 79.179688 101.21875 77.757812 C 101.726562 76.339844 102.269531 74.933594 102.847656 73.539062 C 103.421875 72.148438 104.035156 70.769531 104.679688 69.40625 C 105.324219 68.046875 106 66.699219 106.710938 65.371094 C 107.421875 64.039062 108.164062 62.730469 108.9375 61.4375 C 109.714844 60.144531 110.519531 58.871094 111.355469 57.617188 C 112.195312 56.363281 113.0625 55.132812 113.960938 53.921875 C 114.859375 52.710938 115.785156 51.523438 116.742188 50.355469 C 117.699219 49.191406 118.683594 48.050781 119.695312 46.933594 C 120.707031 45.816406 121.746094 44.726562 122.8125 43.660156 C 123.878906 42.59375 124.96875 41.554688 126.085938 40.542969 C 127.203125 39.53125 128.34375 38.546875 129.507812 37.589844 C 130.675781 36.632812 131.863281 35.707031 133.074219 34.808594 C 134.285156 33.910156 135.515625 33.042969 136.769531 32.207031 C 138.023438 31.367188 139.296875 30.5625 140.589844 29.789062 C 141.882812 29.011719 143.191406 28.269531 144.523438 27.558594 C 145.851562 26.847656 147.195312 26.171875 148.558594 25.527344 C 149.921875 24.882812 151.300781 24.269531 152.691406 23.695312 C 154.085938 23.117188 155.492188 22.574219 156.910156 22.066406 C 158.328125 21.558594 159.761719 21.085938 161.203125 20.648438 C 162.644531 20.210938 164.097656 19.808594 165.558594 19.445312 C 167.023438 19.078125 168.492188 18.746094 169.96875 18.453125 C 171.449219 18.160156 172.933594 17.902344 174.425781 17.679688 C 175.914062 17.460938 177.410156 17.273438 178.910156 17.125 C 180.410156 16.980469 181.914062 16.867188 183.417969 16.792969 C 184.925781 16.71875 186.433594 16.683594 187.9375 16.683594 C 189.445312 16.683594 190.953125 16.71875 192.457031 16.792969 C 193.964844 16.867188 195.46875 16.980469 196.96875 17.125 C 198.46875 17.273438 199.960938 17.460938 201.453125 17.679688 C 202.945312 17.902344 204.429688 18.160156 205.90625 18.453125 C 207.386719 18.746094 208.855469 19.078125 210.320312 19.445312 C 211.78125 19.808594 213.234375 20.210938 214.675781 20.648438 C 216.117188 21.085938 217.550781 21.558594 218.96875 22.066406 C 220.386719 22.574219 221.792969 23.117188 223.1875 23.695312 C 224.578125 24.269531 225.957031 24.882812 227.320312 25.527344 C 228.679688 26.171875 230.027344 26.847656 231.355469 27.558594 C 232.6875 28.269531 233.996094 29.011719 235.289062 29.789062 C 236.582031 30.5625 237.855469 31.367188 239.109375 32.207031 C 240.363281 33.042969 241.59375 33.910156 242.804688 34.808594 C 244.015625 35.707031 245.203125 36.632812 246.371094 37.589844 C 247.535156 38.546875 248.675781 39.53125 249.792969 40.542969 C 250.910156 41.554688 252 42.59375 253.066406 43.660156 C 254.132812 44.726562 255.171875 45.816406 256.183594 46.933594 C 257.195312 48.050781 258.179688 49.191406 259.136719 50.355469 C 260.09375 51.523438 261.019531 52.710938 261.917969 53.921875 C 262.816406 55.132812 263.683594 56.363281 264.519531 57.617188 C 265.359375 58.871094 266.164062 60.144531 266.941406 61.4375 C 267.714844 62.730469 268.457031 64.039062 269.167969 65.371094 C 269.878906 66.699219 270.554688 68.046875 271.199219 69.40625 C 271.84375 70.769531 272.457031 72.148438 273.03125 73.539062 C 273.609375 74.933594 274.152344 76.339844 274.660156 77.757812 C 275.167969 79.179688 275.640625 80.609375 276.078125 82.050781 C 276.515625 83.492188 276.917969 84.945312 277.285156 86.40625 C 277.648438 87.871094 277.980469 89.339844 278.273438 90.820312 C 278.566406 92.296875 278.824219 93.78125 279.046875 95.273438 C 279.269531 96.765625 279.453125 98.257812 279.601562 99.761719 C 279.746094 101.261719 279.859375 102.761719 279.933594 104.269531 C 280.007812 105.773438 280.042969 107.28125 280.042969 108.789062 Z M 280.042969 108.789062 " fill-opacity="1" fill-rule="nonzero"/><path fill="#ffffff" d="M 236.183594 61.859375 L 212.792969 61.859375 L 212.792969 24.285156 L 125.511719 24.285156 L 125.511719 187.003906 L 250.367188 187.003906 L 250.367188 61.859375 Z M 236.183594 61.859375 " fill-opacity="1" fill-rule="nonzero"/><path fill="#303c42" d="M 250.367188 190.21875 L 125.511719 190.21875 C 123.757812 190.21875 122.441406 188.902344 122.441406 187.148438 L 122.441406 24.285156 C 122.441406 22.53125 123.757812 21.214844 125.511719 21.214844 L 212.792969 21.214844 C 214.546875 21.214844 215.863281 22.53125 215.863281 24.285156 L 215.863281 58.789062 L 250.367188 58.789062 C 252.121094 58.789062 253.4375 60.105469 253.4375 61.859375 L 253.4375 187.003906 C 253.4375 188.757812 252.121094 190.21875 250.367188 190.21875 Z M 128.582031 183.933594 L 247.296875 183.933594 L 247.296875 64.929688 L 212.792969 64.929688 C 211.039062 64.929688 209.722656 63.613281 209.722656 61.859375 L 209.722656 27.355469 L 128.582031 27.355469 Z M 128.582031 183.933594 " fill-opacity="1" fill-rule="nonzero"/></g><g clip-path="url(#6d23fbe318)"><path fill="#f06b6b" d="M 280.042969 119.128906 C 280.042969 120.636719 280.007812 122.140625 279.933594 123.648438 C 279.859375 125.152344 279.746094 126.65625 279.601562 128.15625 C 279.453125 129.65625 279.269531 131.152344 279.046875 132.640625 C 278.824219 134.132812 278.566406 135.617188 278.273438 137.097656 C 277.980469 138.574219 277.648438 140.046875 277.285156 141.507812 C 276.917969 142.96875 276.515625 144.421875 276.078125 145.863281 C 275.640625 147.304688 275.167969 148.738281 274.660156 150.15625 C 274.152344 151.574219 273.609375 152.980469 273.03125 154.375 C 272.457031 155.765625 271.84375 157.144531 271.199219 158.507812 C 270.554688 159.871094 269.878906 161.214844 269.167969 162.546875 C 268.457031 163.875 267.714844 165.1875 266.941406 166.480469 C 266.164062 167.773438 265.359375 169.042969 264.519531 170.296875 C 263.683594 171.550781 262.816406 172.785156 261.917969 173.996094 C 261.019531 175.203125 260.09375 176.394531 259.136719 177.558594 C 258.179688 178.722656 257.195312 179.863281 256.183594 180.980469 C 255.171875 182.097656 254.132812 183.1875 253.066406 184.253906 C 252 185.320312 250.910156 186.359375 249.792969 187.371094 C 248.675781 188.382812 247.535156 189.367188 246.371094 190.324219 C 245.203125 191.28125 244.015625 192.207031 242.804688 193.105469 C 241.59375 194.003906 240.363281 194.871094 239.109375 195.710938 C 237.855469 196.546875 236.582031 197.351562 235.289062 198.128906 C 233.996094 198.902344 232.6875 199.644531 231.355469 200.355469 C 230.027344 201.066406 228.679688 201.746094 227.320312 202.390625 C 225.957031 203.035156 224.578125 203.644531 223.1875 204.222656 C 221.792969 204.796875 220.386719 205.339844 218.96875 205.847656 C 217.550781 206.355469 216.117188 206.828125 214.675781 207.265625 C 213.234375 207.703125 211.78125 208.105469 210.320312 208.472656 C 208.855469 208.839844 207.386719 209.167969 205.90625 209.460938 C 204.429688 209.757812 202.945312 210.015625 201.453125 210.234375 C 199.960938 210.457031 198.46875 210.640625 196.96875 210.789062 C 195.46875 210.9375 193.964844 211.046875 192.457031 211.121094 C 190.953125 211.195312 189.445312 211.230469 187.9375 211.230469 C 186.433594 211.230469 184.925781 211.195312 183.417969 211.121094 C 181.914062 211.046875 180.410156 210.9375 178.910156 210.789062 C 177.410156 210.640625 175.914062 210.457031 174.425781 210.234375 C 172.933594 210.015625 171.449219 209.757812 169.96875 209.460938 C 168.492188 209.167969 167.023438 208.839844 165.558594 208.472656 C 164.097656 208.105469 162.644531 207.703125 161.203125 207.265625 C 159.761719 206.828125 158.328125 206.355469 156.910156 205.847656 C 155.492188 205.339844 154.085938 204.796875 152.691406 204.222656 C 151.300781 203.644531 149.921875 203.035156 148.558594 202.390625 C 147.195312 201.746094 145.851562 201.066406 144.523438 200.355469 C 143.191406 199.644531 141.882812 198.902344 140.589844 198.128906 C 139.296875 197.351562 138.023438 196.546875 136.769531 195.710938 C 135.515625 194.871094 134.285156 194.003906 133.074219 193.105469 C 131.863281 192.207031 130.675781 191.28125 129.507812 190.324219 C 128.34375 189.367188 127.203125 188.382812 126.085938 187.371094 C 124.96875 186.359375 123.878906 185.320312 122.8125 184.253906 C 121.746094 183.1875 120.707031 182.097656 119.695312 180.980469 C 118.683594 179.863281 117.699219 178.722656 116.742188 177.558594 C 115.785156 176.394531 114.859375 175.203125 113.960938 173.996094 C 113.0625 172.785156 112.195312 171.550781 111.355469 170.296875 C 110.519531 169.042969 109.714844 167.773438 108.9375 166.480469 C 108.164062 165.1875 107.421875 163.875 106.710938 162.546875 C 106 161.214844 105.324219 159.871094 104.679688 158.507812 C 104.035156 157.144531 103.421875 155.765625 102.847656 154.375 C 102.269531 152.980469 101.726562 151.574219 101.21875 150.15625 C 100.710938 148.738281 100.238281 147.304688 99.800781 145.863281 C 99.363281 144.421875 98.960938 142.96875 98.59375 141.507812 C 98.230469 140.046875 97.898438 138.574219 97.605469 137.097656 C 97.3125 135.617188 97.054688 134.132812 96.832031 132.640625 C 96.609375 131.152344 96.425781 129.65625 96.277344 128.15625 C 96.128906 126.65625 96.019531 125.152344 95.945312 123.648438 C 95.871094 122.140625 95.835938 120.636719 95.835938 119.128906 C 95.835938 117.621094 95.871094 116.113281 95.945312 114.609375 C 96.019531 113.101562 96.128906 111.601562 96.277344 110.101562 C 96.425781 108.601562 96.609375 107.105469 96.832031 105.613281 C 97.054688 104.121094 97.3125 102.636719 97.605469 101.160156 C 97.898438 99.679688 98.230469 98.210938 98.59375 96.75 C 98.960938 95.285156 99.363281 93.832031 99.800781 92.390625 C 100.238281 90.949219 100.710938 89.519531 101.21875 88.097656 C 101.726562 86.679688 102.269531 85.273438 102.847656 83.882812 C 103.421875 82.488281 104.035156 81.109375 104.679688 79.75 C 105.324219 78.386719 106 77.039062 106.710938 75.710938 C 107.421875 74.378906 108.164062 73.070312 108.9375 71.777344 C 109.714844 70.484375 110.519531 69.210938 111.355469 67.957031 C 112.195312 66.703125 113.0625 65.472656 113.960938 64.261719 C 114.859375 63.050781 115.785156 61.863281 116.742188 60.699219 C 117.699219 59.53125 118.683594 58.390625 119.695312 57.273438 C 120.707031 56.15625 121.746094 55.066406 122.8125 54 C 123.878906 52.933594 124.96875 51.894531 126.085938 50.882812 C 127.203125 49.871094 128.34375 48.886719 129.507812 47.929688 C 130.675781 46.972656 131.863281 46.046875 133.074219 45.148438 C 134.285156 44.25 135.515625 43.382812 136.769531 42.546875 C 138.023438 41.707031 139.296875 40.902344 140.589844 40.128906 C 141.882812 39.351562 143.191406 38.609375 144.523438 37.898438 C 145.851562 37.1875 147.195312 36.511719 148.558594 35.867188 C 149.921875 35.222656 151.300781 34.609375 152.691406 34.035156 C 154.085938 33.457031 155.492188 32.914062 156.910156 32.40625 C 158.328125 31.898438 159.761719 31.425781 161.203125 30.988281 C 162.644531 30.550781 164.097656 30.148438 165.558594 29.785156 C 167.023438 29.417969 168.492188 29.085938 169.96875 28.792969 C 171.449219 28.5 172.933594 28.242188 174.425781 28.019531 C 175.914062 27.800781 177.410156 27.613281 178.910156 27.46875 C 180.410156 27.320312 181.914062 27.207031 183.417969 27.132812 C 184.925781 27.058594 186.433594 27.023438 187.9375 27.023438 C 189.445312 27.023438 190.953125 27.058594 192.457031 27.132812 C 193.964844 27.207031 195.46875 27.320312 196.96875 27.46875 C 198.46875 27.613281 199.960938 27.800781 201.453125 28.019531 C 202.945312 28.242188 204.429688 28.5 205.90625 28.792969 C 207.386719 29.085938 208.855469 29.417969 210.320312 29.785156 C 211.78125 30.148438 213.234375 30.550781 214.675781 30.988281 C 216.117188 31.425781 217.550781 31.898438 218.96875 32.40625 C 220.386719 32.914062 221.792969 33.457031 223.1875 34.035156 C 224.578125 34.609375 225.957031 35.222656 227.320312 35.867188 C 228.679688 36.511719 230.027344 37.1875 231.355469 37.898438 C 232.6875 38.609375 233.996094 39.351562 235.289062 40.128906 C 236.582031 40.902344 237.855469 41.707031 239.109375 42.546875 C 240.363281 43.382812 241.59375 44.25 242.804688 45.148438 C 244.015625 46.046875 245.203125 46.972656 246.371094 47.929688 C 247.535156 48.886719 248.675781 49.871094 249.792969 50.882812 C 250.910156 51.894531 252 52.933594 253.066406 54 C 254.132812 55.066406 255.171875 56.15625 256.183594 57.273438 C 257.195312 58.390625 258.179688 59.53125 259.136719 60.699219 C 260.09375 61.863281 261.019531 63.050781 261.917969 64.261719 C 262.816406 65.472656 263.683594 66.703125 264.519531 67.957031 C 265.359375 69.210938 266.164062 70.484375 266.941406 71.777344 C 267.714844 73.070312 268.457031 74.378906 269.167969 75.710938 C 269.878906 77.039062 270.554688 78.386719 271.199219 79.75 C 271.84375 81.109375 272.457031 82.488281 273.03125 83.882812 C 273.609375 85.273438 274.152344 86.679688 274.660156 88.097656 C 275.167969 89.519531 275.640625 90.949219 276.078125 92.390625 C 276.515625 93.832031 276.917969 95.285156 277.285156 96.75 C 277.648438 98.210938 277.980469 99.679688 278.273438 101.160156 C 278.566406 102.636719 278.824219 104.121094 279.046875 105.613281 C 279.269531 107.105469 279.453125 108.601562 279.601562 110.101562 C 279.746094 111.601562 279.859375 113.101562 279.933594 114.609375 C 280.007812 116.113281 280.042969 117.621094 280.042969 119.128906 Z M 280.042969 119.128906 " fill-opacity="1" fill-rule="nonzero"/><path fill="#ffffff" d="M 236.183594 72.199219 L 212.792969 72.199219 L 212.792969 34.625 L 125.511719 34.625 L 125.511719 197.34375 L 250.367188 197.34375 L 250.367188 72.199219 Z M 236.183594 72.199219 " fill-opacity="1" fill-rule="nonzero"/><path fill="#303c42" d="M 250.367188 200.558594 L 125.511719 200.558594 C 123.757812 200.558594 122.441406 199.242188 122.441406 197.488281 L 122.441406 34.625 C 122.441406 32.871094 123.757812 31.554688 125.511719 31.554688 L 212.792969 31.554688 C 214.546875 31.554688 215.863281 32.871094 215.863281 34.625 L 215.863281 69.128906 L 250.367188 69.128906 C 252.121094 69.128906 253.4375 70.445312 253.4375 72.199219 L 253.4375 197.34375 C 253.4375 199.097656 252.121094 200.558594 250.367188 200.558594 Z M 128.582031 194.273438 L 247.296875 194.273438 L 247.296875 75.269531 L 212.792969 75.269531 C 211.039062 75.269531 209.722656 73.953125 209.722656 72.199219 L 209.722656 37.695312 L 128.582031 37.695312 Z M 128.582031 194.273438 " fill-opacity="1" fill-rule="nonzero"/></g><g clip-path="url(#c989962be9)"><path fill="#f06b6b" d="M 279.207031 103.386719 C 279.207031 104.890625 279.167969 106.398438 279.09375 107.902344 C 279.019531 109.410156 278.910156 110.914062 278.761719 112.414062 C 278.613281 113.914062 278.429688 115.410156 278.210938 116.898438 C 277.988281 118.390625 277.730469 119.875 277.4375 121.355469 C 277.140625 122.832031 276.8125 124.300781 276.445312 125.765625 C 276.078125 127.226562 275.679688 128.679688 275.242188 130.121094 C 274.800781 131.5625 274.328125 132.996094 273.820312 134.414062 C 273.3125 135.832031 272.773438 137.238281 272.195312 138.632812 C 271.617188 140.023438 271.007812 141.402344 270.363281 142.765625 C 269.71875 144.128906 269.042969 145.472656 268.332031 146.800781 C 267.621094 148.132812 266.878906 149.441406 266.101562 150.734375 C 265.328125 152.027344 264.519531 153.300781 263.683594 154.554688 C 262.847656 155.808594 261.980469 157.039062 261.082031 158.25 C 260.183594 159.460938 259.253906 160.648438 258.300781 161.816406 C 257.34375 162.980469 256.359375 164.121094 255.347656 165.238281 C 254.335938 166.355469 253.296875 167.445312 252.230469 168.511719 C 251.164062 169.578125 250.074219 170.617188 248.957031 171.628906 C 247.839844 172.640625 246.699219 173.625 245.53125 174.582031 C 244.367188 175.539062 243.179688 176.464844 241.96875 177.363281 C 240.757812 178.261719 239.527344 179.128906 238.273438 179.964844 C 237.019531 180.804688 235.746094 181.609375 234.453125 182.386719 C 233.160156 183.160156 231.847656 183.902344 230.519531 184.613281 C 229.191406 185.324219 227.84375 186 226.480469 186.644531 C 225.117188 187.289062 223.742188 187.902344 222.347656 188.476562 C 220.957031 189.054688 219.550781 189.597656 218.132812 190.105469 C 216.710938 190.613281 215.28125 191.085938 213.839844 191.523438 C 212.394531 191.960938 210.945312 192.363281 209.480469 192.730469 C 208.019531 193.09375 206.550781 193.425781 205.070312 193.71875 C 203.59375 194.011719 202.109375 194.269531 200.617188 194.492188 C 199.125 194.714844 197.628906 194.898438 196.128906 195.046875 C 194.628906 195.195312 193.125 195.304688 191.621094 195.378906 C 190.117188 195.453125 188.609375 195.488281 187.101562 195.488281 C 185.59375 195.488281 184.089844 195.453125 182.582031 195.378906 C 181.078125 195.304688 179.574219 195.195312 178.074219 195.046875 C 176.574219 194.898438 175.078125 194.714844 173.585938 194.492188 C 172.097656 194.269531 170.613281 194.011719 169.132812 193.71875 C 167.65625 193.425781 166.183594 193.09375 164.722656 192.730469 C 163.261719 192.363281 161.808594 191.960938 160.367188 191.523438 C 158.921875 191.085938 157.492188 190.613281 156.074219 190.105469 C 154.652344 189.597656 153.246094 189.054688 151.855469 188.476562 C 150.460938 187.902344 149.085938 187.289062 147.722656 186.644531 C 146.359375 186 145.015625 185.324219 143.683594 184.613281 C 142.355469 183.902344 141.042969 183.160156 139.75 182.386719 C 138.457031 181.609375 137.183594 180.804688 135.929688 179.964844 C 134.679688 179.128906 133.445312 178.261719 132.234375 177.363281 C 131.023438 176.464844 129.835938 175.539062 128.671875 174.582031 C 127.507812 173.625 126.367188 172.640625 125.25 171.628906 C 124.132812 170.617188 123.039062 169.578125 121.972656 168.511719 C 120.910156 167.445312 119.871094 166.355469 118.855469 165.238281 C 117.84375 164.121094 116.859375 162.980469 115.90625 161.816406 C 114.949219 160.648438 114.019531 159.460938 113.125 158.25 C 112.226562 157.039062 111.359375 155.808594 110.519531 154.554688 C 109.683594 153.300781 108.875 152.027344 108.101562 150.734375 C 107.328125 149.441406 106.582031 148.132812 105.875 146.800781 C 105.164062 145.472656 104.484375 144.128906 103.839844 142.765625 C 103.195312 141.402344 102.585938 140.023438 102.007812 138.632812 C 101.433594 137.238281 100.890625 135.832031 100.382812 134.414062 C 99.875 132.996094 99.402344 131.5625 98.964844 130.121094 C 98.527344 128.679688 98.125 127.226562 97.757812 125.765625 C 97.390625 124.300781 97.0625 122.832031 96.765625 121.355469 C 96.472656 119.875 96.214844 118.390625 95.996094 116.898438 C 95.773438 115.410156 95.589844 113.914062 95.441406 112.414062 C 95.292969 110.914062 95.183594 109.410156 95.109375 107.902344 C 95.035156 106.398438 94.996094 104.890625 94.996094 103.386719 C 94.996094 101.878906 95.035156 100.371094 95.109375 98.867188 C 95.183594 97.359375 95.292969 95.855469 95.441406 94.355469 C 95.589844 92.855469 95.773438 91.363281 95.996094 89.871094 C 96.214844 88.378906 96.472656 86.894531 96.765625 85.417969 C 97.0625 83.9375 97.390625 82.46875 97.757812 81.003906 C 98.125 79.542969 98.527344 78.089844 98.964844 76.648438 C 99.402344 75.207031 99.875 73.773438 100.382812 72.355469 C 100.890625 70.9375 101.433594 69.53125 102.007812 68.136719 C 102.585938 66.746094 103.195312 65.367188 103.839844 64.003906 C 104.484375 62.644531 105.164062 61.296875 105.875 59.96875 C 106.582031 58.636719 107.328125 57.328125 108.101562 56.035156 C 108.875 54.742188 109.683594 53.46875 110.519531 52.214844 C 111.359375 50.960938 112.226562 49.730469 113.125 48.519531 C 114.019531 47.308594 114.949219 46.121094 115.90625 44.953125 C 116.859375 43.789062 117.84375 42.648438 118.855469 41.53125 C 119.871094 40.414062 120.910156 39.324219 121.972656 38.257812 C 123.039062 37.191406 124.132812 36.152344 125.25 35.140625 C 126.367188 34.128906 127.507812 33.144531 128.671875 32.1875 C 129.835938 31.230469 131.023438 30.304688 132.234375 29.40625 C 133.445312 28.507812 134.679688 27.640625 135.929688 26.804688 C 137.183594 25.964844 138.457031 25.160156 139.75 24.382812 C 141.042969 23.609375 142.355469 22.867188 143.683594 22.15625 C 145.015625 21.445312 146.359375 20.769531 147.722656 20.125 C 149.085938 19.480469 150.460938 18.867188 151.855469 18.292969 C 153.246094 17.714844 154.652344 17.171875 156.074219 16.664062 C 157.492188 16.15625 158.921875 15.683594 160.367188 15.246094 C 161.808594 14.808594 163.261719 14.40625 164.722656 14.039062 C 166.183594 13.675781 167.65625 13.34375 169.132812 13.050781 C 170.613281 12.757812 172.097656 12.5 173.585938 12.277344 C 175.078125 12.054688 176.574219 11.871094 178.074219 11.722656 C 179.574219 11.578125 181.078125 11.464844 182.582031 11.390625 C 184.089844 11.316406 185.59375 11.28125 187.101562 11.28125 C 188.609375 11.28125 190.117188 11.316406 191.621094 11.390625 C 193.125 11.464844 194.628906 11.578125 196.128906 11.722656 C 197.628906 11.871094 199.125 12.054688 200.617188 12.277344 C 202.109375 12.5 203.59375 12.757812 205.070312 13.050781 C 206.550781 13.34375 208.019531 13.675781 209.480469 14.039062 C 210.945312 14.40625 212.394531 14.808594 213.839844 15.246094 C 215.28125 15.683594 216.710938 16.15625 218.132812 16.664062 C 219.550781 17.171875 220.957031 17.714844 222.347656 18.292969 C 223.742188 18.867188 225.117188 19.480469 226.480469 20.125 C 227.84375 20.769531 229.191406 21.445312 230.519531 22.15625 C 231.847656 22.867188 233.160156 23.609375 234.453125 24.382812 C 235.746094 25.160156 237.019531 25.964844 238.273438 26.804688 C 239.527344 27.640625 240.757812 28.507812 241.96875 29.40625 C 243.179688 30.304688 244.367188 31.230469 245.53125 32.1875 C 246.699219 33.144531 247.839844 34.128906 248.957031 35.140625 C 250.074219 36.152344 251.164062 37.191406 252.230469 38.257812 C 253.296875 39.324219 254.335938 40.414062 255.347656 41.53125 C 256.359375 42.648438 257.34375 43.789062 258.300781 44.953125 C 259.253906 46.121094 260.183594 47.308594 261.082031 48.519531 C 261.980469 49.730469 262.847656 50.960938 263.683594 52.214844 C 264.519531 53.46875 265.328125 54.742188 266.101562 56.035156 C 266.878906 57.328125 267.621094 58.636719 268.332031 59.96875 C 269.042969 61.296875 269.71875 62.644531 270.363281 64.003906 C 271.007812 65.367188 271.617188 66.746094 272.195312 68.136719 C 272.773438 69.53125 273.3125 70.9375 273.820312 72.355469 C 274.328125 73.773438 274.800781 75.207031 275.242188 76.648438 C 275.679688 78.089844 276.078125 79.542969 276.445312 81.003906 C 276.8125 82.46875 277.140625 83.9375 277.4375 85.417969 C 277.730469 86.894531 277.988281 88.378906 278.210938 89.871094 C 278.429688 91.363281 278.613281 92.855469 278.761719 94.355469 C 278.910156 95.855469 279.019531 97.359375 279.09375 98.867188 C 279.167969 100.371094 279.207031 101.878906 279.207031 103.386719 Z M 279.207031 103.386719 " fill-opacity="1" fill-rule="nonzero"/><path fill="#ffffff" d="M 235.347656 56.457031 L 211.957031 56.457031 L 211.957031 18.882812 L 124.675781 18.882812 L 124.675781 181.601562 L 249.527344 181.601562 L 249.527344 56.457031 Z M 235.347656 56.457031 " fill-opacity="1" fill-rule="nonzero"/><path fill="#303c42" d="M 249.527344 184.816406 L 124.675781 184.816406 C 122.921875 184.816406 121.605469 183.5 121.605469 181.746094 L 121.605469 18.882812 C 121.605469 17.128906 122.921875 15.8125 124.675781 15.8125 L 211.957031 15.8125 C 213.710938 15.8125 215.027344 17.128906 215.027344 18.882812 L 215.027344 53.386719 L 249.527344 53.386719 C 251.28125 53.386719 252.597656 54.703125 252.597656 56.457031 L 252.597656 181.601562 C 252.597656 183.355469 251.28125 184.816406 249.527344 184.816406 Z M 127.746094 178.53125 L 246.457031 178.53125 L 246.457031 59.527344 L 211.957031 59.527344 C 210.203125 59.527344 208.886719 58.210938 208.886719 56.457031 L 208.886719 21.953125 L 127.746094 21.953125 Z M 127.746094 178.53125 " fill-opacity="1" fill-rule="nonzero"/></g><path fill="#303c42" d="M 219.410156 106.015625 L 155.667969 106.015625 C 153.914062 106.015625 152.597656 104.699219 152.597656 102.945312 C 152.597656 101.191406 153.914062 99.875 155.667969 99.875 L 219.410156 99.875 C 221.164062 99.875 222.480469 101.191406 222.480469 102.945312 C 222.480469 104.699219 221.019531 106.015625 219.410156 106.015625 Z M 219.410156 106.015625 " fill-opacity="1" fill-rule="nonzero"/><g fill="#303c42" fill-opacity="1"><g transform="translate(120.319429, 267.221582)"><g><path d="M 17.015625 -14.953125 C 16.523438 -15.859375 15.847656 -16.546875 14.984375 -17.015625 C 14.128906 -17.484375 13.128906 -17.71875 11.984375 -17.71875 C 10.710938 -17.71875 9.585938 -17.429688 8.609375 -16.859375 C 7.628906 -16.285156 6.863281 -15.46875 6.3125 -14.40625 C 5.757812 -13.34375 5.484375 -12.117188 5.484375 -10.734375 C 5.484375 -9.296875 5.765625 -8.046875 6.328125 -6.984375 C 6.890625 -5.921875 7.671875 -5.101562 8.671875 -4.53125 C 9.671875 -3.957031 10.835938 -3.671875 12.171875 -3.671875 C 13.804688 -3.671875 15.144531 -4.101562 16.1875 -4.96875 C 17.226562 -5.84375 17.910156 -7.054688 18.234375 -8.609375 L 10.890625 -8.609375 L 10.890625 -11.890625 L 22.46875 -11.890625 L 22.46875 -8.15625 C 22.1875 -6.664062 21.570312 -5.285156 20.625 -4.015625 C 19.6875 -2.742188 18.476562 -1.722656 17 -0.953125 C 15.519531 -0.191406 13.859375 0.1875 12.015625 0.1875 C 9.953125 0.1875 8.085938 -0.273438 6.421875 -1.203125 C 4.753906 -2.140625 3.445312 -3.4375 2.5 -5.09375 C 1.550781 -6.75 1.078125 -8.628906 1.078125 -10.734375 C 1.078125 -12.835938 1.550781 -14.722656 2.5 -16.390625 C 3.445312 -18.054688 4.753906 -19.351562 6.421875 -20.28125 C 8.085938 -21.207031 9.941406 -21.671875 11.984375 -21.671875 C 14.398438 -21.671875 16.492188 -21.082031 18.265625 -19.90625 C 20.046875 -18.738281 21.273438 -17.085938 21.953125 -14.953125 Z M 17.015625 -14.953125 "/></g></g></g><g fill="#303c42" fill-opacity="1"><g transform="translate(148.554352, 267.221582)"><g><path d="M 15.234375 -4.078125 L 6.71875 -4.078125 L 5.296875 0 L 0.796875 0 L 8.484375 -21.421875 L 13.484375 -21.421875 L 21.1875 0 L 16.640625 0 Z M 14.078125 -7.515625 L 10.96875 -16.46875 L 7.875 -7.515625 Z M 14.078125 -7.515625 "/></g></g></g><g fill="#303c42" fill-opacity="1"><g transform="translate(175.195196, 267.221582)"><g><path d="M 11.828125 -28.328125 L 11.828125 -24.828125 L 8.1875 -24.828125 L 8.1875 2.484375 L 11.828125 2.484375 L 11.828125 6.046875 L 4.140625 6.046875 L 4.140625 -28.328125 Z M 11.828125 -28.328125 "/></g></g></g><g fill="#303c42" fill-opacity="1"><g transform="translate(195.122478, 267.221582)"><g><path d="M 11.0625 6.046875 L 3.375 6.046875 L 3.375 2.484375 L 7.015625 2.484375 L 7.015625 -24.828125 L 3.375 -24.828125 L 3.375 -28.328125 L 11.0625 -28.328125 Z M 11.0625 6.046875 "/></g></g></g><g fill="#303c42" fill-opacity="1"><g transform="translate(215.019103, 267.221582)"><g><path d="M 6.40625 -17.9375 L 6.40625 -12.5625 L 13.609375 -12.5625 L 13.609375 -9.171875 L 6.40625 -9.171875 L 6.40625 -3.5 L 14.53125 -3.5 L 14.53125 0 L 2.109375 0 L 2.109375 -21.421875 L 14.53125 -21.421875 L 14.53125 -17.9375 Z M 6.40625 -17.9375 "/></g></g></g><g fill="#303c42" fill-opacity="1"><g transform="translate(236.019332, 267.221582)"><g><path d="M 17.71875 -14.78125 C 17.71875 -13.632812 17.445312 -12.5625 16.90625 -11.5625 C 16.363281 -10.5625 15.515625 -9.753906 14.359375 -9.140625 C 13.203125 -8.523438 11.75 -8.21875 10 -8.21875 L 6.40625 -8.21875 L 6.40625 0 L 2.109375 0 L 2.109375 -21.390625 L 10 -21.390625 C 11.65625 -21.390625 13.0625 -21.101562 14.21875 -20.53125 C 15.382812 -19.96875 16.257812 -19.179688 16.84375 -18.171875 C 17.425781 -17.171875 17.71875 -16.039062 17.71875 -14.78125 Z M 9.8125 -11.6875 C 11 -11.6875 11.878906 -11.957031 12.453125 -12.5 C 13.023438 -13.039062 13.3125 -13.800781 13.3125 -14.78125 C 13.3125 -16.863281 12.144531 -17.90625 9.8125 -17.90625 L 6.40625 -17.90625 L 6.40625 -11.6875 Z M 9.8125 -11.6875 "/></g></g></g><g fill="#333333" fill-opacity="1"><g transform="translate(57.368646, 312.509813)"><g><path d="M 10.875 -8.890625 C 10.519531 -9.617188 10.015625 -10.179688 9.359375 -10.578125 C 8.703125 -10.984375 7.9375 -11.1875 7.0625 -11.1875 C 6.1875 -11.1875 5.394531 -10.984375 4.6875 -10.578125 C 3.988281 -10.179688 3.4375 -9.609375 3.03125 -8.859375 C 2.632812 -8.117188 2.4375 -7.253906 2.4375 -6.265625 C 2.4375 -5.285156 2.632812 -4.421875 3.03125 -3.671875 C 3.4375 -2.929688 3.988281 -2.359375 4.6875 -1.953125 C 5.394531 -1.554688 6.1875 -1.359375 7.0625 -1.359375 C 8.28125 -1.359375 9.285156 -1.722656 10.078125 -2.453125 C 10.867188 -3.191406 11.332031 -4.179688 11.46875 -5.421875 L 6.46875 -5.421875 L 6.46875 -6.75 L 13.203125 -6.75 L 13.203125 -5.5 C 13.109375 -4.46875 12.785156 -3.523438 12.234375 -2.671875 C 11.679688 -1.816406 10.957031 -1.140625 10.0625 -0.640625 C 9.164062 -0.140625 8.164062 0.109375 7.0625 0.109375 C 5.894531 0.109375 4.832031 -0.160156 3.875 -0.703125 C 2.914062 -1.253906 2.15625 -2.015625 1.59375 -2.984375 C 1.039062 -3.953125 0.765625 -5.046875 0.765625 -6.265625 C 0.765625 -7.492188 1.039062 -8.59375 1.59375 -9.5625 C 2.15625 -10.539062 2.914062 -11.300781 3.875 -11.84375 C 4.832031 -12.394531 5.894531 -12.671875 7.0625 -12.671875 C 8.394531 -12.671875 9.570312 -12.335938 10.59375 -11.671875 C 11.613281 -11.015625 12.359375 -10.085938 12.828125 -8.890625 Z M 10.875 -8.890625 "/></g></g></g><g fill="#333333" fill-opacity="1"><g transform="translate(74.0972, 312.509813)"><g><path d="M 10.109375 -9.84375 L 10.109375 0 L 8.484375 0 L 8.484375 -1.453125 C 8.171875 -0.953125 7.734375 -0.5625 7.171875 -0.28125 C 6.617188 0 6.007812 0.140625 5.34375 0.140625 C 4.570312 0.140625 3.878906 -0.015625 3.265625 -0.328125 C 2.660156 -0.648438 2.179688 -1.128906 1.828125 -1.765625 C 1.472656 -2.398438 1.296875 -3.171875 1.296875 -4.078125 L 1.296875 -9.84375 L 2.90625 -9.84375 L 2.90625 -4.296875 C 2.90625 -3.328125 3.148438 -2.582031 3.640625 -2.0625 C 4.140625 -1.539062 4.8125 -1.28125 5.65625 -1.28125 C 6.53125 -1.28125 7.21875 -1.546875 7.71875 -2.078125 C 8.226562 -2.617188 8.484375 -3.40625 8.484375 -4.4375 L 8.484375 -9.84375 Z M 10.109375 -9.84375 "/></g></g></g><g fill="#333333" fill-opacity="1"><g transform="translate(88.346304, 312.509813)"><g><path d="M 2.234375 -11.453125 C 1.921875 -11.453125 1.65625 -11.554688 1.4375 -11.765625 C 1.21875 -11.984375 1.109375 -12.25 1.109375 -12.5625 C 1.109375 -12.875 1.21875 -13.132812 1.4375 -13.34375 C 1.65625 -13.5625 1.921875 -13.671875 2.234375 -13.671875 C 2.523438 -13.671875 2.773438 -13.5625 2.984375 -13.34375 C 3.203125 -13.132812 3.3125 -12.875 3.3125 -12.5625 C 3.3125 -12.25 3.203125 -11.984375 2.984375 -11.765625 C 2.773438 -11.554688 2.523438 -11.453125 2.234375 -11.453125 Z M 3.015625 -9.84375 L 3.015625 0 L 1.390625 0 L 1.390625 -9.84375 Z M 3.015625 -9.84375 "/></g></g></g><g fill="#333333" fill-opacity="1"><g transform="translate(95.516406, 312.509813)"><g><path d="M 0.765625 -4.953125 C 0.765625 -5.960938 0.96875 -6.847656 1.375 -7.609375 C 1.789062 -8.367188 2.351562 -8.957031 3.0625 -9.375 C 3.769531 -9.800781 4.570312 -10.015625 5.46875 -10.015625 C 6.226562 -10.015625 6.9375 -9.835938 7.59375 -9.484375 C 8.257812 -9.128906 8.765625 -8.660156 9.109375 -8.078125 L 9.109375 -13.296875 L 10.765625 -13.296875 L 10.765625 0 L 9.109375 0 L 9.109375 -1.84375 C 8.785156 -1.257812 8.304688 -0.78125 7.671875 -0.40625 C 7.035156 -0.03125 6.289062 0.15625 5.4375 0.15625 C 4.5625 0.15625 3.769531 -0.0546875 3.0625 -0.484375 C 2.351562 -0.910156 1.789062 -1.515625 1.375 -2.296875 C 0.96875 -3.078125 0.765625 -3.960938 0.765625 -4.953125 Z M 9.109375 -4.9375 C 9.109375 -5.6875 8.957031 -6.332031 8.65625 -6.875 C 8.363281 -7.425781 7.960938 -7.847656 7.453125 -8.140625 C 6.941406 -8.441406 6.378906 -8.59375 5.765625 -8.59375 C 5.148438 -8.59375 4.59375 -8.445312 4.09375 -8.15625 C 3.59375 -7.863281 3.191406 -7.441406 2.890625 -6.890625 C 2.585938 -6.347656 2.4375 -5.703125 2.4375 -4.953125 C 2.4375 -4.203125 2.585938 -3.546875 2.890625 -2.984375 C 3.191406 -2.429688 3.59375 -2.007812 4.09375 -1.71875 C 4.59375 -1.425781 5.148438 -1.28125 5.765625 -1.28125 C 6.378906 -1.28125 6.941406 -1.425781 7.453125 -1.71875 C 7.960938 -2.007812 8.363281 -2.429688 8.65625 -2.984375 C 8.957031 -3.546875 9.109375 -4.195312 9.109375 -4.9375 Z M 9.109375 -4.9375 "/></g></g></g><g fill="#333333" fill-opacity="1"><g transform="translate(110.412326, 312.509813)"><g><path d="M 10.375 -5.296875 C 10.375 -4.984375 10.351562 -4.65625 10.3125 -4.3125 L 2.4375 -4.3125 C 2.5 -3.34375 2.832031 -2.582031 3.4375 -2.03125 C 4.039062 -1.488281 4.773438 -1.21875 5.640625 -1.21875 C 6.347656 -1.21875 6.9375 -1.378906 7.40625 -1.703125 C 7.882812 -2.035156 8.21875 -2.476562 8.40625 -3.03125 L 10.171875 -3.03125 C 9.910156 -2.082031 9.382812 -1.3125 8.59375 -0.71875 C 7.800781 -0.132812 6.816406 0.15625 5.640625 0.15625 C 4.703125 0.15625 3.863281 -0.0507812 3.125 -0.46875 C 2.394531 -0.882812 1.816406 -1.476562 1.390625 -2.25 C 0.972656 -3.019531 0.765625 -3.914062 0.765625 -4.9375 C 0.765625 -5.957031 0.96875 -6.847656 1.375 -7.609375 C 1.789062 -8.378906 2.363281 -8.972656 3.09375 -9.390625 C 3.832031 -9.804688 4.679688 -10.015625 5.640625 -10.015625 C 6.578125 -10.015625 7.40625 -9.804688 8.125 -9.390625 C 8.84375 -8.984375 9.394531 -8.421875 9.78125 -7.703125 C 10.175781 -6.992188 10.375 -6.191406 10.375 -5.296875 Z M 8.671875 -5.640625 C 8.671875 -6.265625 8.535156 -6.800781 8.265625 -7.25 C 7.992188 -7.695312 7.617188 -8.035156 7.140625 -8.265625 C 6.671875 -8.503906 6.144531 -8.625 5.5625 -8.625 C 4.738281 -8.625 4.035156 -8.359375 3.453125 -7.828125 C 2.878906 -7.304688 2.550781 -6.578125 2.46875 -5.640625 Z M 8.671875 -5.640625 "/></g></g></g><g fill="#333333" fill-opacity="1"><g transform="translate(124.302088, 312.509813)"><g><path d="M 3.015625 -13.296875 L 3.015625 0 L 1.390625 0 L 1.390625 -13.296875 Z M 3.015625 -13.296875 "/></g></g></g><g fill="#333333" fill-opacity="1"><g transform="translate(131.472187, 312.509813)"><g><path d="M 2.234375 -11.453125 C 1.921875 -11.453125 1.65625 -11.554688 1.4375 -11.765625 C 1.21875 -11.984375 1.109375 -12.25 1.109375 -12.5625 C 1.109375 -12.875 1.21875 -13.132812 1.4375 -13.34375 C 1.65625 -13.5625 1.921875 -13.671875 2.234375 -13.671875 C 2.523438 -13.671875 2.773438 -13.5625 2.984375 -13.34375 C 3.203125 -13.132812 3.3125 -12.875 3.3125 -12.5625 C 3.3125 -12.25 3.203125 -11.984375 2.984375 -11.765625 C 2.773438 -11.554688 2.523438 -11.453125 2.234375 -11.453125 Z M 3.015625 -9.84375 L 3.015625 0 L 1.390625 0 L 1.390625 -9.84375 Z M 3.015625 -9.84375 "/></g></g></g><g fill="#333333" fill-opacity="1"><g transform="translate(138.642285, 312.509813)"><g><path d="M 6.1875 -10.03125 C 7.382812 -10.03125 8.351562 -9.664062 9.09375 -8.9375 C 9.832031 -8.21875 10.203125 -7.171875 10.203125 -5.796875 L 10.203125 0 L 8.59375 0 L 8.59375 -5.5625 C 8.59375 -6.550781 8.34375 -7.304688 7.84375 -7.828125 C 7.351562 -8.347656 6.6875 -8.609375 5.84375 -8.609375 C 4.976562 -8.609375 4.289062 -8.335938 3.78125 -7.796875 C 3.269531 -7.253906 3.015625 -6.46875 3.015625 -5.4375 L 3.015625 0 L 1.390625 0 L 1.390625 -9.84375 L 3.015625 -9.84375 L 3.015625 -8.4375 C 3.335938 -8.945312 3.773438 -9.335938 4.328125 -9.609375 C 4.890625 -9.890625 5.507812 -10.03125 6.1875 -10.03125 Z M 6.1875 -10.03125 "/></g></g></g><g fill="#333333" fill-opacity="1"><g transform="translate(152.891389, 312.509813)"><g><path d="M 10.375 -5.296875 C 10.375 -4.984375 10.351562 -4.65625 10.3125 -4.3125 L 2.4375 -4.3125 C 2.5 -3.34375 2.832031 -2.582031 3.4375 -2.03125 C 4.039062 -1.488281 4.773438 -1.21875 5.640625 -1.21875 C 6.347656 -1.21875 6.9375 -1.378906 7.40625 -1.703125 C 7.882812 -2.035156 8.21875 -2.476562 8.40625 -3.03125 L 10.171875 -3.03125 C 9.910156 -2.082031 9.382812 -1.3125 8.59375 -0.71875 C 7.800781 -0.132812 6.816406 0.15625 5.640625 0.15625 C 4.703125 0.15625 3.863281 -0.0507812 3.125 -0.46875 C 2.394531 -0.882812 1.816406 -1.476562 1.390625 -2.25 C 0.972656 -3.019531 0.765625 -3.914062 0.765625 -4.9375 C 0.765625 -5.957031 0.96875 -6.847656 1.375 -7.609375 C 1.789062 -8.378906 2.363281 -8.972656 3.09375 -9.390625 C 3.832031 -9.804688 4.679688 -10.015625 5.640625 -10.015625 C 6.578125 -10.015625 7.40625 -9.804688 8.125 -9.390625 C 8.84375 -8.984375 9.394531 -8.421875 9.78125 -7.703125 C 10.175781 -6.992188 10.375 -6.191406 10.375 -5.296875 Z M 8.671875 -5.640625 C 8.671875 -6.265625 8.535156 -6.800781 8.265625 -7.25 C 7.992188 -7.695312 7.617188 -8.035156 7.140625 -8.265625 C 6.671875 -8.503906 6.144531 -8.625 5.5625 -8.625 C 4.738281 -8.625 4.035156 -8.359375 3.453125 -7.828125 C 2.878906 -7.304688 2.550781 -6.578125 2.46875 -5.640625 Z M 8.671875 -5.640625 "/></g></g></g><g fill="#333333" fill-opacity="1"><g transform="translate(166.781157, 312.509813)"><g/></g></g><g fill="#333333" fill-opacity="1"><g transform="translate(174.328566, 312.509813)"><g><path d="M 8.78125 -2.78125 L 3.328125 -2.78125 L 2.3125 0 L 0.59375 0 L 5.125 -12.453125 L 7 -12.453125 L 11.515625 0 L 9.796875 0 Z M 8.3125 -4.109375 L 6.0625 -10.4375 L 3.796875 -4.109375 Z M 8.3125 -4.109375 "/></g></g></g><g fill="#333333" fill-opacity="1"><g transform="translate(189.188546, 312.509813)"><g><path d="M 4.875 0.15625 C 4.113281 0.15625 3.429688 0.03125 2.828125 -0.21875 C 2.234375 -0.476562 1.757812 -0.835938 1.40625 -1.296875 C 1.0625 -1.765625 0.875 -2.296875 0.84375 -2.890625 L 2.53125 -2.890625 C 2.582031 -2.398438 2.8125 -2 3.21875 -1.6875 C 3.632812 -1.375 4.175781 -1.21875 4.84375 -1.21875 C 5.46875 -1.21875 5.957031 -1.351562 6.3125 -1.625 C 6.675781 -1.90625 6.859375 -2.253906 6.859375 -2.671875 C 6.859375 -3.109375 6.664062 -3.429688 6.28125 -3.640625 C 5.90625 -3.847656 5.316406 -4.054688 4.515625 -4.265625 C 3.773438 -4.453125 3.175781 -4.644531 2.71875 -4.84375 C 2.257812 -5.039062 1.863281 -5.332031 1.53125 -5.71875 C 1.207031 -6.113281 1.046875 -6.628906 1.046875 -7.265625 C 1.046875 -7.765625 1.191406 -8.222656 1.484375 -8.640625 C 1.785156 -9.054688 2.210938 -9.390625 2.765625 -9.640625 C 3.316406 -9.890625 3.945312 -10.015625 4.65625 -10.015625 C 5.738281 -10.015625 6.613281 -9.738281 7.28125 -9.1875 C 7.957031 -8.632812 8.320312 -7.878906 8.375 -6.921875 L 6.734375 -6.921875 C 6.703125 -7.429688 6.492188 -7.84375 6.109375 -8.15625 C 5.734375 -8.46875 5.226562 -8.625 4.59375 -8.625 C 4.007812 -8.625 3.539062 -8.5 3.1875 -8.25 C 2.84375 -8 2.671875 -7.671875 2.671875 -7.265625 C 2.671875 -6.941406 2.773438 -6.671875 2.984375 -6.453125 C 3.203125 -6.242188 3.46875 -6.078125 3.78125 -5.953125 C 4.101562 -5.828125 4.546875 -5.6875 5.109375 -5.53125 C 5.804688 -5.34375 6.378906 -5.15625 6.828125 -4.96875 C 7.273438 -4.78125 7.65625 -4.5 7.96875 -4.125 C 8.28125 -3.757812 8.445312 -3.273438 8.46875 -2.671875 C 8.46875 -2.140625 8.316406 -1.65625 8.015625 -1.21875 C 7.710938 -0.789062 7.285156 -0.453125 6.734375 -0.203125 C 6.191406 0.0351562 5.570312 0.15625 4.875 0.15625 Z M 4.875 0.15625 "/></g></g></g><g fill="#333333" fill-opacity="1"><g transform="translate(201.317542, 312.509813)"><g><path d="M 4.875 0.15625 C 4.113281 0.15625 3.429688 0.03125 2.828125 -0.21875 C 2.234375 -0.476562 1.757812 -0.835938 1.40625 -1.296875 C 1.0625 -1.765625 0.875 -2.296875 0.84375 -2.890625 L 2.53125 -2.890625 C 2.582031 -2.398438 2.8125 -2 3.21875 -1.6875 C 3.632812 -1.375 4.175781 -1.21875 4.84375 -1.21875 C 5.46875 -1.21875 5.957031 -1.351562 6.3125 -1.625 C 6.675781 -1.90625 6.859375 -2.253906 6.859375 -2.671875 C 6.859375 -3.109375 6.664062 -3.429688 6.28125 -3.640625 C 5.90625 -3.847656 5.316406 -4.054688 4.515625 -4.265625 C 3.773438 -4.453125 3.175781 -4.644531 2.71875 -4.84375 C 2.257812 -5.039062 1.863281 -5.332031 1.53125 -5.71875 C 1.207031 -6.113281 1.046875 -6.628906 1.046875 -7.265625 C 1.046875 -7.765625 1.191406 -8.222656 1.484375 -8.640625 C 1.785156 -9.054688 2.210938 -9.390625 2.765625 -9.640625 C 3.316406 -9.890625 3.945312 -10.015625 4.65625 -10.015625 C 5.738281 -10.015625 6.613281 -9.738281 7.28125 -9.1875 C 7.957031 -8.632812 8.320312 -7.878906 8.375 -6.921875 L 6.734375 -6.921875 C 6.703125 -7.429688 6.492188 -7.84375 6.109375 -8.15625 C 5.734375 -8.46875 5.226562 -8.625 4.59375 -8.625 C 4.007812 -8.625 3.539062 -8.5 3.1875 -8.25 C 2.84375 -8 2.671875 -7.671875 2.671875 -7.265625 C 2.671875 -6.941406 2.773438 -6.671875 2.984375 -6.453125 C 3.203125 -6.242188 3.46875 -6.078125 3.78125 -5.953125 C 4.101562 -5.828125 4.546875 -5.6875 5.109375 -5.53125 C 5.804688 -5.34375 6.378906 -5.15625 6.828125 -4.96875 C 7.273438 -4.78125 7.65625 -4.5 7.96875 -4.125 C 8.28125 -3.757812 8.445312 -3.273438 8.46875 -2.671875 C 8.46875 -2.140625 8.316406 -1.65625 8.015625 -1.21875 C 7.710938 -0.789062 7.285156 -0.453125 6.734375 -0.203125 C 6.191406 0.0351562 5.570312 0.15625 4.875 0.15625 Z M 4.875 0.15625 "/></g></g></g><g fill="#333333" fill-opacity="1"><g transform="translate(213.446538, 312.509813)"><g><path d="M 2.234375 -11.453125 C 1.921875 -11.453125 1.65625 -11.554688 1.4375 -11.765625 C 1.21875 -11.984375 1.109375 -12.25 1.109375 -12.5625 C 1.109375 -12.875 1.21875 -13.132812 1.4375 -13.34375 C 1.65625 -13.5625 1.921875 -13.671875 2.234375 -13.671875 C 2.523438 -13.671875 2.773438 -13.5625 2.984375 -13.34375 C 3.203125 -13.132812 3.3125 -12.875 3.3125 -12.5625 C 3.3125 -12.25 3.203125 -11.984375 2.984375 -11.765625 C 2.773438 -11.554688 2.523438 -11.453125 2.234375 -11.453125 Z M 3.015625 -9.84375 L 3.015625 0 L 1.390625 0 L 1.390625 -9.84375 Z M 3.015625 -9.84375 "/></g></g></g><g fill="#333333" fill-opacity="1"><g transform="translate(220.616636, 312.509813)"><g><path d="M 4.875 0.15625 C 4.113281 0.15625 3.429688 0.03125 2.828125 -0.21875 C 2.234375 -0.476562 1.757812 -0.835938 1.40625 -1.296875 C 1.0625 -1.765625 0.875 -2.296875 0.84375 -2.890625 L 2.53125 -2.890625 C 2.582031 -2.398438 2.8125 -2 3.21875 -1.6875 C 3.632812 -1.375 4.175781 -1.21875 4.84375 -1.21875 C 5.46875 -1.21875 5.957031 -1.351562 6.3125 -1.625 C 6.675781 -1.90625 6.859375 -2.253906 6.859375 -2.671875 C 6.859375 -3.109375 6.664062 -3.429688 6.28125 -3.640625 C 5.90625 -3.847656 5.316406 -4.054688 4.515625 -4.265625 C 3.773438 -4.453125 3.175781 -4.644531 2.71875 -4.84375 C 2.257812 -5.039062 1.863281 -5.332031 1.53125 -5.71875 C 1.207031 -6.113281 1.046875 -6.628906 1.046875 -7.265625 C 1.046875 -7.765625 1.191406 -8.222656 1.484375 -8.640625 C 1.785156 -9.054688 2.210938 -9.390625 2.765625 -9.640625 C 3.316406 -9.890625 3.945312 -10.015625 4.65625 -10.015625 C 5.738281 -10.015625 6.613281 -9.738281 7.28125 -9.1875 C 7.957031 -8.632812 8.320312 -7.878906 8.375 -6.921875 L 6.734375 -6.921875 C 6.703125 -7.429688 6.492188 -7.84375 6.109375 -8.15625 C 5.734375 -8.46875 5.226562 -8.625 4.59375 -8.625 C 4.007812 -8.625 3.539062 -8.5 3.1875 -8.25 C 2.84375 -8 2.671875 -7.671875 2.671875 -7.265625 C 2.671875 -6.941406 2.773438 -6.671875 2.984375 -6.453125 C 3.203125 -6.242188 3.46875 -6.078125 3.78125 -5.953125 C 4.101562 -5.828125 4.546875 -5.6875 5.109375 -5.53125 C 5.804688 -5.34375 6.378906 -5.15625 6.828125 -4.96875 C 7.273438 -4.78125 7.65625 -4.5 7.96875 -4.125 C 8.28125 -3.757812 8.445312 -3.273438 8.46875 -2.671875 C 8.46875 -2.140625 8.316406 -1.65625 8.015625 -1.21875 C 7.710938 -0.789062 7.285156 -0.453125 6.734375 -0.203125 C 6.191406 0.0351562 5.570312 0.15625 4.875 0.15625 Z M 4.875 0.15625 "/></g></g></g><g fill="#333333" fill-opacity="1"><g transform="translate(232.745632, 312.509813)"><g><path d="M 3.375 -8.5 L 3.375 -2.6875 C 3.375 -2.207031 3.472656 -1.867188 3.671875 -1.671875 C 3.878906 -1.484375 4.238281 -1.390625 4.75 -1.390625 L 5.953125 -1.390625 L 5.953125 0 L 4.46875 0 C 3.5625 0 2.878906 -0.207031 2.421875 -0.625 C 1.972656 -1.039062 1.75 -1.726562 1.75 -2.6875 L 1.75 -8.5 L 0.46875 -8.5 L 0.46875 -9.84375 L 1.75 -9.84375 L 1.75 -12.328125 L 3.375 -12.328125 L 3.375 -9.84375 L 5.953125 -9.84375 L 5.953125 -8.5 Z M 3.375 -8.5 "/></g></g></g><g fill="#333333" fill-opacity="1"><g transform="translate(242.035838, 312.509813)"><g><path d="M 0.765625 -4.953125 C 0.765625 -5.960938 0.96875 -6.847656 1.375 -7.609375 C 1.789062 -8.367188 2.351562 -8.957031 3.0625 -9.375 C 3.769531 -9.800781 4.5625 -10.015625 5.4375 -10.015625 C 6.300781 -10.015625 7.050781 -9.828125 7.6875 -9.453125 C 8.320312 -9.078125 8.796875 -8.609375 9.109375 -8.046875 L 9.109375 -9.84375 L 10.765625 -9.84375 L 10.765625 0 L 9.109375 0 L 9.109375 -1.828125 C 8.785156 -1.253906 8.300781 -0.78125 7.65625 -0.40625 C 7.019531 -0.03125 6.273438 0.15625 5.421875 0.15625 C 4.546875 0.15625 3.753906 -0.0546875 3.046875 -0.484375 C 2.347656 -0.910156 1.789062 -1.515625 1.375 -2.296875 C 0.96875 -3.078125 0.765625 -3.960938 0.765625 -4.953125 Z M 9.109375 -4.9375 C 9.109375 -5.6875 8.957031 -6.332031 8.65625 -6.875 C 8.363281 -7.425781 7.960938 -7.847656 7.453125 -8.140625 C 6.941406 -8.441406 6.378906 -8.59375 5.765625 -8.59375 C 5.148438 -8.59375 4.59375 -8.445312 4.09375 -8.15625 C 3.59375 -7.863281 3.191406 -7.441406 2.890625 -6.890625 C 2.585938 -6.347656 2.4375 -5.703125 2.4375 -4.953125 C 2.4375 -4.203125 2.585938 -3.546875 2.890625 -2.984375 C 3.191406 -2.429688 3.59375 -2.007812 4.09375 -1.71875 C 4.59375 -1.425781 5.148438 -1.28125 5.765625 -1.28125 C 6.378906 -1.28125 6.941406 -1.425781 7.453125 -1.71875 C 7.960938 -2.007812 8.363281 -2.429688 8.65625 -2.984375 C 8.957031 -3.546875 9.109375 -4.195312 9.109375 -4.9375 Z M 9.109375 -4.9375 "/></g></g></g><g fill="#333333" fill-opacity="1"><g transform="translate(256.931758, 312.509813)"><g><path d="M 6.1875 -10.03125 C 7.382812 -10.03125 8.351562 -9.664062 9.09375 -8.9375 C 9.832031 -8.21875 10.203125 -7.171875 10.203125 -5.796875 L 10.203125 0 L 8.59375 0 L 8.59375 -5.5625 C 8.59375 -6.550781 8.34375 -7.304688 7.84375 -7.828125 C 7.351562 -8.347656 6.6875 -8.609375 5.84375 -8.609375 C 4.976562 -8.609375 4.289062 -8.335938 3.78125 -7.796875 C 3.269531 -7.253906 3.015625 -6.46875 3.015625 -5.4375 L 3.015625 0 L 1.390625 0 L 1.390625 -9.84375 L 3.015625 -9.84375 L 3.015625 -8.4375 C 3.335938 -8.945312 3.773438 -9.335938 4.328125 -9.609375 C 4.890625 -9.890625 5.507812 -10.03125 6.1875 -10.03125 Z M 6.1875 -10.03125 "/></g></g></g><g fill="#333333" fill-opacity="1"><g transform="translate(271.180873, 312.509813)"><g><path d="M 3.375 -8.5 L 3.375 -2.6875 C 3.375 -2.207031 3.472656 -1.867188 3.671875 -1.671875 C 3.878906 -1.484375 4.238281 -1.390625 4.75 -1.390625 L 5.953125 -1.390625 L 5.953125 0 L 4.46875 0 C 3.5625 0 2.878906 -0.207031 2.421875 -0.625 C 1.972656 -1.039062 1.75 -1.726562 1.75 -2.6875 L 1.75 -8.5 L 0.46875 -8.5 L 0.46875 -9.84375 L 1.75 -9.84375 L 1.75 -12.328125 L 3.375 -12.328125 L 3.375 -9.84375 L 5.953125 -9.84375 L 5.953125 -8.5 Z M 3.375 -8.5 "/></g></g></g><g fill="#333333" fill-opacity="1"><g transform="translate(280.471079, 312.509813)"><g/></g></g><g fill="#333333" fill-opacity="1"><g transform="translate(288.0185, 312.509813)"><g><path d="M 5.390625 -8.5 L 3.328125 -8.5 L 3.328125 0 L 1.6875 0 L 1.6875 -8.5 L 0.40625 -8.5 L 0.40625 -9.84375 L 1.6875 -9.84375 L 1.6875 -10.546875 C 1.6875 -11.648438 1.96875 -12.457031 2.53125 -12.96875 C 3.101562 -13.476562 4.019531 -13.734375 5.28125 -13.734375 L 5.28125 -12.359375 C 4.5625 -12.359375 4.054688 -12.21875 3.765625 -11.9375 C 3.472656 -11.65625 3.328125 -11.191406 3.328125 -10.546875 L 3.328125 -9.84375 L 5.390625 -9.84375 Z M 5.390625 -8.5 "/></g></g></g><g fill="#333333" fill-opacity="1"><g transform="translate(296.679859, 312.509813)"><g><path d="M 5.671875 0.15625 C 4.753906 0.15625 3.921875 -0.0507812 3.171875 -0.46875 C 2.421875 -0.882812 1.832031 -1.476562 1.40625 -2.25 C 0.976562 -3.019531 0.765625 -3.914062 0.765625 -4.9375 C 0.765625 -5.945312 0.984375 -6.835938 1.421875 -7.609375 C 1.859375 -8.378906 2.453125 -8.972656 3.203125 -9.390625 C 3.960938 -9.804688 4.8125 -10.015625 5.75 -10.015625 C 6.6875 -10.015625 7.53125 -9.804688 8.28125 -9.390625 C 9.039062 -8.972656 9.640625 -8.378906 10.078125 -7.609375 C 10.515625 -6.847656 10.734375 -5.957031 10.734375 -4.9375 C 10.734375 -3.914062 10.503906 -3.019531 10.046875 -2.25 C 9.597656 -1.476562 8.988281 -0.882812 8.21875 -0.46875 C 7.457031 -0.0507812 6.609375 0.15625 5.671875 0.15625 Z M 5.671875 -1.28125 C 6.265625 -1.28125 6.816406 -1.414062 7.328125 -1.6875 C 7.847656 -1.96875 8.265625 -2.378906 8.578125 -2.921875 C 8.898438 -3.472656 9.0625 -4.144531 9.0625 -4.9375 C 9.0625 -5.726562 8.90625 -6.398438 8.59375 -6.953125 C 8.28125 -7.503906 7.867188 -7.914062 7.359375 -8.1875 C 6.859375 -8.457031 6.316406 -8.59375 5.734375 -8.59375 C 5.128906 -8.59375 4.578125 -8.457031 4.078125 -8.1875 C 3.585938 -7.914062 3.191406 -7.503906 2.890625 -6.953125 C 2.585938 -6.398438 2.4375 -5.726562 2.4375 -4.9375 C 2.4375 -4.132812 2.582031 -3.457031 2.875 -2.90625 C 3.175781 -2.351562 3.570312 -1.941406 4.0625 -1.671875 C 4.550781 -1.410156 5.085938 -1.28125 5.671875 -1.28125 Z M 5.671875 -1.28125 "/></g></g></g><g fill="#333333" fill-opacity="1"><g transform="translate(310.928963, 312.509813)"><g><path d="M 3.015625 -8.25 C 3.304688 -8.8125 3.71875 -9.25 4.25 -9.5625 C 4.78125 -9.875 5.429688 -10.03125 6.203125 -10.03125 L 6.203125 -8.34375 L 5.765625 -8.34375 C 3.929688 -8.34375 3.015625 -7.347656 3.015625 -5.359375 L 3.015625 0 L 1.390625 0 L 1.390625 -9.84375 L 3.015625 -9.84375 Z M 3.015625 -8.25 "/></g></g></g><g fill="#333333" fill-opacity="1"><g transform="translate(47.678828, 337.0937)"><g><path d="M 3.015625 -11.1875 L 3.015625 -7 L 7.578125 -7 L 7.578125 -5.65625 L 3.015625 -5.65625 L 3.015625 -1.34375 L 8.125 -1.34375 L 8.125 0 L 1.390625 0 L 1.390625 -12.546875 L 8.125 -12.546875 L 8.125 -11.1875 Z M 3.015625 -11.1875 "/></g></g></g><g fill="#333333" fill-opacity="1"><g transform="translate(59.646125, 337.0937)"><g><path d="M 5.046875 -1.515625 L 8.109375 -9.84375 L 9.84375 -9.84375 L 5.984375 0 L 4.078125 0 L 0.21875 -9.84375 L 1.96875 -9.84375 Z M 5.046875 -1.515625 "/></g></g></g><g fill="#333333" fill-opacity="1"><g transform="translate(72.475833, 337.0937)"><g><path d="M 2.234375 -11.453125 C 1.921875 -11.453125 1.65625 -11.554688 1.4375 -11.765625 C 1.21875 -11.984375 1.109375 -12.25 1.109375 -12.5625 C 1.109375 -12.875 1.21875 -13.132812 1.4375 -13.34375 C 1.65625 -13.5625 1.921875 -13.671875 2.234375 -13.671875 C 2.523438 -13.671875 2.773438 -13.5625 2.984375 -13.34375 C 3.203125 -13.132812 3.3125 -12.875 3.3125 -12.5625 C 3.3125 -12.25 3.203125 -11.984375 2.984375 -11.765625 C 2.773438 -11.554688 2.523438 -11.453125 2.234375 -11.453125 Z M 3.015625 -9.84375 L 3.015625 0 L 1.390625 0 L 1.390625 -9.84375 Z M 3.015625 -9.84375 "/></g></g></g><g fill="#333333" fill-opacity="1"><g transform="translate(79.645935, 337.0937)"><g><path d="M 0.765625 -4.953125 C 0.765625 -5.960938 0.96875 -6.847656 1.375 -7.609375 C 1.789062 -8.367188 2.351562 -8.957031 3.0625 -9.375 C 3.769531 -9.800781 4.570312 -10.015625 5.46875 -10.015625 C 6.226562 -10.015625 6.9375 -9.835938 7.59375 -9.484375 C 8.257812 -9.128906 8.765625 -8.660156 9.109375 -8.078125 L 9.109375 -13.296875 L 10.765625 -13.296875 L 10.765625 0 L 9.109375 0 L 9.109375 -1.84375 C 8.785156 -1.257812 8.304688 -0.78125 7.671875 -0.40625 C 7.035156 -0.03125 6.289062 0.15625 5.4375 0.15625 C 4.5625 0.15625 3.769531 -0.0546875 3.0625 -0.484375 C 2.351562 -0.910156 1.789062 -1.515625 1.375 -2.296875 C 0.96875 -3.078125 0.765625 -3.960938 0.765625 -4.953125 Z M 9.109375 -4.9375 C 9.109375 -5.6875 8.957031 -6.332031 8.65625 -6.875 C 8.363281 -7.425781 7.960938 -7.847656 7.453125 -8.140625 C 6.941406 -8.441406 6.378906 -8.59375 5.765625 -8.59375 C 5.148438 -8.59375 4.59375 -8.445312 4.09375 -8.15625 C 3.59375 -7.863281 3.191406 -7.441406 2.890625 -6.890625 C 2.585938 -6.347656 2.4375 -5.703125 2.4375 -4.953125 C 2.4375 -4.203125 2.585938 -3.546875 2.890625 -2.984375 C 3.191406 -2.429688 3.59375 -2.007812 4.09375 -1.71875 C 4.59375 -1.425781 5.148438 -1.28125 5.765625 -1.28125 C 6.378906 -1.28125 6.941406 -1.425781 7.453125 -1.71875 C 7.960938 -2.007812 8.363281 -2.429688 8.65625 -2.984375 C 8.957031 -3.546875 9.109375 -4.195312 9.109375 -4.9375 Z M 9.109375 -4.9375 "/></g></g></g><g fill="#333333" fill-opacity="1"><g transform="translate(94.541855, 337.0937)"><g><path d="M 10.375 -5.296875 C 10.375 -4.984375 10.351562 -4.65625 10.3125 -4.3125 L 2.4375 -4.3125 C 2.5 -3.34375 2.832031 -2.582031 3.4375 -2.03125 C 4.039062 -1.488281 4.773438 -1.21875 5.640625 -1.21875 C 6.347656 -1.21875 6.9375 -1.378906 7.40625 -1.703125 C 7.882812 -2.035156 8.21875 -2.476562 8.40625 -3.03125 L 10.171875 -3.03125 C 9.910156 -2.082031 9.382812 -1.3125 8.59375 -0.71875 C 7.800781 -0.132812 6.816406 0.15625 5.640625 0.15625 C 4.703125 0.15625 3.863281 -0.0507812 3.125 -0.46875 C 2.394531 -0.882812 1.816406 -1.476562 1.390625 -2.25 C 0.972656 -3.019531 0.765625 -3.914062 0.765625 -4.9375 C 0.765625 -5.957031 0.96875 -6.847656 1.375 -7.609375 C 1.789062 -8.378906 2.363281 -8.972656 3.09375 -9.390625 C 3.832031 -9.804688 4.679688 -10.015625 5.640625 -10.015625 C 6.578125 -10.015625 7.40625 -9.804688 8.125 -9.390625 C 8.84375 -8.984375 9.394531 -8.421875 9.78125 -7.703125 C 10.175781 -6.992188 10.375 -6.191406 10.375 -5.296875 Z M 8.671875 -5.640625 C 8.671875 -6.265625 8.535156 -6.800781 8.265625 -7.25 C 7.992188 -7.695312 7.617188 -8.035156 7.140625 -8.265625 C 6.671875 -8.503906 6.144531 -8.625 5.5625 -8.625 C 4.738281 -8.625 4.035156 -8.359375 3.453125 -7.828125 C 2.878906 -7.304688 2.550781 -6.578125 2.46875 -5.640625 Z M 8.671875 -5.640625 "/></g></g></g><g fill="#333333" fill-opacity="1"><g transform="translate(108.431617, 337.0937)"><g><path d="M 6.1875 -10.03125 C 7.382812 -10.03125 8.351562 -9.664062 9.09375 -8.9375 C 9.832031 -8.21875 10.203125 -7.171875 10.203125 -5.796875 L 10.203125 0 L 8.59375 0 L 8.59375 -5.5625 C 8.59375 -6.550781 8.34375 -7.304688 7.84375 -7.828125 C 7.351562 -8.347656 6.6875 -8.609375 5.84375 -8.609375 C 4.976562 -8.609375 4.289062 -8.335938 3.78125 -7.796875 C 3.269531 -7.253906 3.015625 -6.46875 3.015625 -5.4375 L 3.015625 0 L 1.390625 0 L 1.390625 -9.84375 L 3.015625 -9.84375 L 3.015625 -8.4375 C 3.335938 -8.945312 3.773438 -9.335938 4.328125 -9.609375 C 4.890625 -9.890625 5.507812 -10.03125 6.1875 -10.03125 Z M 6.1875 -10.03125 "/></g></g></g><g fill="#333333" fill-opacity="1"><g transform="translate(122.680721, 337.0937)"><g><path d="M 0.765625 -4.9375 C 0.765625 -5.957031 0.96875 -6.847656 1.375 -7.609375 C 1.789062 -8.367188 2.359375 -8.957031 3.078125 -9.375 C 3.804688 -9.800781 4.632812 -10.015625 5.5625 -10.015625 C 6.78125 -10.015625 7.78125 -9.71875 8.5625 -9.125 C 9.34375 -8.539062 9.859375 -7.726562 10.109375 -6.6875 L 8.359375 -6.6875 C 8.191406 -7.28125 7.863281 -7.75 7.375 -8.09375 C 6.882812 -8.445312 6.28125 -8.625 5.5625 -8.625 C 4.632812 -8.625 3.878906 -8.300781 3.296875 -7.65625 C 2.722656 -7.019531 2.4375 -6.113281 2.4375 -4.9375 C 2.4375 -3.75 2.722656 -2.832031 3.296875 -2.1875 C 3.878906 -1.539062 4.632812 -1.21875 5.5625 -1.21875 C 6.28125 -1.21875 6.878906 -1.382812 7.359375 -1.71875 C 7.835938 -2.0625 8.171875 -2.539062 8.359375 -3.15625 L 10.109375 -3.15625 C 9.847656 -2.15625 9.320312 -1.351562 8.53125 -0.75 C 7.738281 -0.144531 6.75 0.15625 5.5625 0.15625 C 4.632812 0.15625 3.804688 -0.0507812 3.078125 -0.46875 C 2.359375 -0.882812 1.789062 -1.472656 1.375 -2.234375 C 0.96875 -3.003906 0.765625 -3.90625 0.765625 -4.9375 Z M 0.765625 -4.9375 "/></g></g></g><g fill="#333333" fill-opacity="1"><g transform="translate(136.336916, 337.0937)"><g><path d="M 10.375 -5.296875 C 10.375 -4.984375 10.351562 -4.65625 10.3125 -4.3125 L 2.4375 -4.3125 C 2.5 -3.34375 2.832031 -2.582031 3.4375 -2.03125 C 4.039062 -1.488281 4.773438 -1.21875 5.640625 -1.21875 C 6.347656 -1.21875 6.9375 -1.378906 7.40625 -1.703125 C 7.882812 -2.035156 8.21875 -2.476562 8.40625 -3.03125 L 10.171875 -3.03125 C 9.910156 -2.082031 9.382812 -1.3125 8.59375 -0.71875 C 7.800781 -0.132812 6.816406 0.15625 5.640625 0.15625 C 4.703125 0.15625 3.863281 -0.0507812 3.125 -0.46875 C 2.394531 -0.882812 1.816406 -1.476562 1.390625 -2.25 C 0.972656 -3.019531 0.765625 -3.914062 0.765625 -4.9375 C 0.765625 -5.957031 0.96875 -6.847656 1.375 -7.609375 C 1.789062 -8.378906 2.363281 -8.972656 3.09375 -9.390625 C 3.832031 -9.804688 4.679688 -10.015625 5.640625 -10.015625 C 6.578125 -10.015625 7.40625 -9.804688 8.125 -9.390625 C 8.84375 -8.984375 9.394531 -8.421875 9.78125 -7.703125 C 10.175781 -6.992188 10.375 -6.191406 10.375 -5.296875 Z M 8.671875 -5.640625 C 8.671875 -6.265625 8.535156 -6.800781 8.265625 -7.25 C 7.992188 -7.695312 7.617188 -8.035156 7.140625 -8.265625 C 6.671875 -8.503906 6.144531 -8.625 5.5625 -8.625 C 4.738281 -8.625 4.035156 -8.359375 3.453125 -7.828125 C 2.878906 -7.304688 2.550781 -6.578125 2.46875 -5.640625 Z M 8.671875 -5.640625 "/></g></g></g><g fill="#333333" fill-opacity="1"><g transform="translate(150.226684, 337.0937)"><g/></g></g><g fill="#333333" fill-opacity="1"><g transform="translate(157.774093, 337.0937)"><g><path d="M 7.65625 -6.453125 C 8.113281 -6.378906 8.53125 -6.191406 8.90625 -5.890625 C 9.28125 -5.585938 9.578125 -5.210938 9.796875 -4.765625 C 10.023438 -4.328125 10.140625 -3.859375 10.140625 -3.359375 C 10.140625 -2.722656 9.972656 -2.148438 9.640625 -1.640625 C 9.316406 -1.128906 8.847656 -0.726562 8.234375 -0.4375 C 7.617188 -0.144531 6.894531 0 6.0625 0 L 1.390625 0 L 1.390625 -12.53125 L 5.875 -12.53125 C 6.726562 -12.53125 7.453125 -12.382812 8.046875 -12.09375 C 8.648438 -11.8125 9.097656 -11.429688 9.390625 -10.953125 C 9.691406 -10.472656 9.84375 -9.9375 9.84375 -9.34375 C 9.84375 -8.601562 9.640625 -7.988281 9.234375 -7.5 C 8.835938 -7.019531 8.3125 -6.671875 7.65625 -6.453125 Z M 3.015625 -7.109375 L 5.765625 -7.109375 C 6.535156 -7.109375 7.128906 -7.285156 7.546875 -7.640625 C 7.960938 -8.003906 8.171875 -8.503906 8.171875 -9.140625 C 8.171875 -9.773438 7.960938 -10.269531 7.546875 -10.625 C 7.128906 -10.988281 6.523438 -11.171875 5.734375 -11.171875 L 3.015625 -11.171875 Z M 5.90625 -1.34375 C 6.726562 -1.34375 7.363281 -1.535156 7.8125 -1.921875 C 8.269531 -2.304688 8.5 -2.835938 8.5 -3.515625 C 8.5 -4.210938 8.257812 -4.757812 7.78125 -5.15625 C 7.300781 -5.5625 6.660156 -5.765625 5.859375 -5.765625 L 3.015625 -5.765625 L 3.015625 -1.34375 Z M 5.90625 -1.34375 "/></g></g></g><g fill="#333333" fill-opacity="1"><g transform="translate(171.538081, 337.0937)"><g><path d="M 0.765625 -4.953125 C 0.765625 -5.960938 0.96875 -6.847656 1.375 -7.609375 C 1.789062 -8.367188 2.351562 -8.957031 3.0625 -9.375 C 3.769531 -9.800781 4.5625 -10.015625 5.4375 -10.015625 C 6.300781 -10.015625 7.050781 -9.828125 7.6875 -9.453125 C 8.320312 -9.078125 8.796875 -8.609375 9.109375 -8.046875 L 9.109375 -9.84375 L 10.765625 -9.84375 L 10.765625 0 L 9.109375 0 L 9.109375 -1.828125 C 8.785156 -1.253906 8.300781 -0.78125 7.65625 -0.40625 C 7.019531 -0.03125 6.273438 0.15625 5.421875 0.15625 C 4.546875 0.15625 3.753906 -0.0546875 3.046875 -0.484375 C 2.347656 -0.910156 1.789062 -1.515625 1.375 -2.296875 C 0.96875 -3.078125 0.765625 -3.960938 0.765625 -4.953125 Z M 9.109375 -4.9375 C 9.109375 -5.6875 8.957031 -6.332031 8.65625 -6.875 C 8.363281 -7.425781 7.960938 -7.847656 7.453125 -8.140625 C 6.941406 -8.441406 6.378906 -8.59375 5.765625 -8.59375 C 5.148438 -8.59375 4.59375 -8.445312 4.09375 -8.15625 C 3.59375 -7.863281 3.191406 -7.441406 2.890625 -6.890625 C 2.585938 -6.347656 2.4375 -5.703125 2.4375 -4.953125 C 2.4375 -4.203125 2.585938 -3.546875 2.890625 -2.984375 C 3.191406 -2.429688 3.59375 -2.007812 4.09375 -1.71875 C 4.59375 -1.425781 5.148438 -1.28125 5.765625 -1.28125 C 6.378906 -1.28125 6.941406 -1.425781 7.453125 -1.71875 C 7.960938 -2.007812 8.363281 -2.429688 8.65625 -2.984375 C 8.957031 -3.546875 9.109375 -4.195312 9.109375 -4.9375 Z M 9.109375 -4.9375 "/></g></g></g><g fill="#333333" fill-opacity="1"><g transform="translate(186.434001, 337.0937)"><g><path d="M 4.875 0.15625 C 4.113281 0.15625 3.429688 0.03125 2.828125 -0.21875 C 2.234375 -0.476562 1.757812 -0.835938 1.40625 -1.296875 C 1.0625 -1.765625 0.875 -2.296875 0.84375 -2.890625 L 2.53125 -2.890625 C 2.582031 -2.398438 2.8125 -2 3.21875 -1.6875 C 3.632812 -1.375 4.175781 -1.21875 4.84375 -1.21875 C 5.46875 -1.21875 5.957031 -1.351562 6.3125 -1.625 C 6.675781 -1.90625 6.859375 -2.253906 6.859375 -2.671875 C 6.859375 -3.109375 6.664062 -3.429688 6.28125 -3.640625 C 5.90625 -3.847656 5.316406 -4.054688 4.515625 -4.265625 C 3.773438 -4.453125 3.175781 -4.644531 2.71875 -4.84375 C 2.257812 -5.039062 1.863281 -5.332031 1.53125 -5.71875 C 1.207031 -6.113281 1.046875 -6.628906 1.046875 -7.265625 C 1.046875 -7.765625 1.191406 -8.222656 1.484375 -8.640625 C 1.785156 -9.054688 2.210938 -9.390625 2.765625 -9.640625 C 3.316406 -9.890625 3.945312 -10.015625 4.65625 -10.015625 C 5.738281 -10.015625 6.613281 -9.738281 7.28125 -9.1875 C 7.957031 -8.632812 8.320312 -7.878906 8.375 -6.921875 L 6.734375 -6.921875 C 6.703125 -7.429688 6.492188 -7.84375 6.109375 -8.15625 C 5.734375 -8.46875 5.226562 -8.625 4.59375 -8.625 C 4.007812 -8.625 3.539062 -8.5 3.1875 -8.25 C 2.84375 -8 2.671875 -7.671875 2.671875 -7.265625 C 2.671875 -6.941406 2.773438 -6.671875 2.984375 -6.453125 C 3.203125 -6.242188 3.46875 -6.078125 3.78125 -5.953125 C 4.101562 -5.828125 4.546875 -5.6875 5.109375 -5.53125 C 5.804688 -5.34375 6.378906 -5.15625 6.828125 -4.96875 C 7.273438 -4.78125 7.65625 -4.5 7.96875 -4.125 C 8.28125 -3.757812 8.445312 -3.273438 8.46875 -2.671875 C 8.46875 -2.140625 8.316406 -1.65625 8.015625 -1.21875 C 7.710938 -0.789062 7.285156 -0.453125 6.734375 -0.203125 C 6.191406 0.0351562 5.570312 0.15625 4.875 0.15625 Z M 4.875 0.15625 "/></g></g></g><g fill="#333333" fill-opacity="1"><g transform="translate(198.562997, 337.0937)"><g><path d="M 10.375 -5.296875 C 10.375 -4.984375 10.351562 -4.65625 10.3125 -4.3125 L 2.4375 -4.3125 C 2.5 -3.34375 2.832031 -2.582031 3.4375 -2.03125 C 4.039062 -1.488281 4.773438 -1.21875 5.640625 -1.21875 C 6.347656 -1.21875 6.9375 -1.378906 7.40625 -1.703125 C 7.882812 -2.035156 8.21875 -2.476562 8.40625 -3.03125 L 10.171875 -3.03125 C 9.910156 -2.082031 9.382812 -1.3125 8.59375 -0.71875 C 7.800781 -0.132812 6.816406 0.15625 5.640625 0.15625 C 4.703125 0.15625 3.863281 -0.0507812 3.125 -0.46875 C 2.394531 -0.882812 1.816406 -1.476562 1.390625 -2.25 C 0.972656 -3.019531 0.765625 -3.914062 0.765625 -4.9375 C 0.765625 -5.957031 0.96875 -6.847656 1.375 -7.609375 C 1.789062 -8.378906 2.363281 -8.972656 3.09375 -9.390625 C 3.832031 -9.804688 4.679688 -10.015625 5.640625 -10.015625 C 6.578125 -10.015625 7.40625 -9.804688 8.125 -9.390625 C 8.84375 -8.984375 9.394531 -8.421875 9.78125 -7.703125 C 10.175781 -6.992188 10.375 -6.191406 10.375 -5.296875 Z M 8.671875 -5.640625 C 8.671875 -6.265625 8.535156 -6.800781 8.265625 -7.25 C 7.992188 -7.695312 7.617188 -8.035156 7.140625 -8.265625 C 6.671875 -8.503906 6.144531 -8.625 5.5625 -8.625 C 4.738281 -8.625 4.035156 -8.359375 3.453125 -7.828125 C 2.878906 -7.304688 2.550781 -6.578125 2.46875 -5.640625 Z M 8.671875 -5.640625 "/></g></g></g><g fill="#333333" fill-opacity="1"><g transform="translate(212.452759, 337.0937)"><g><path d="M 0.765625 -4.953125 C 0.765625 -5.960938 0.96875 -6.847656 1.375 -7.609375 C 1.789062 -8.367188 2.351562 -8.957031 3.0625 -9.375 C 3.769531 -9.800781 4.570312 -10.015625 5.46875 -10.015625 C 6.226562 -10.015625 6.9375 -9.835938 7.59375 -9.484375 C 8.257812 -9.128906 8.765625 -8.660156 9.109375 -8.078125 L 9.109375 -13.296875 L 10.765625 -13.296875 L 10.765625 0 L 9.109375 0 L 9.109375 -1.84375 C 8.785156 -1.257812 8.304688 -0.78125 7.671875 -0.40625 C 7.035156 -0.03125 6.289062 0.15625 5.4375 0.15625 C 4.5625 0.15625 3.769531 -0.0546875 3.0625 -0.484375 C 2.351562 -0.910156 1.789062 -1.515625 1.375 -2.296875 C 0.96875 -3.078125 0.765625 -3.960938 0.765625 -4.953125 Z M 9.109375 -4.9375 C 9.109375 -5.6875 8.957031 -6.332031 8.65625 -6.875 C 8.363281 -7.425781 7.960938 -7.847656 7.453125 -8.140625 C 6.941406 -8.441406 6.378906 -8.59375 5.765625 -8.59375 C 5.148438 -8.59375 4.59375 -8.445312 4.09375 -8.15625 C 3.59375 -7.863281 3.191406 -7.441406 2.890625 -6.890625 C 2.585938 -6.347656 2.4375 -5.703125 2.4375 -4.953125 C 2.4375 -4.203125 2.585938 -3.546875 2.890625 -2.984375 C 3.191406 -2.429688 3.59375 -2.007812 4.09375 -1.71875 C 4.59375 -1.425781 5.148438 -1.28125 5.765625 -1.28125 C 6.378906 -1.28125 6.941406 -1.425781 7.453125 -1.71875 C 7.960938 -2.007812 8.363281 -2.429688 8.65625 -2.984375 C 8.957031 -3.546875 9.109375 -4.195312 9.109375 -4.9375 Z M 9.109375 -4.9375 "/></g></g></g><g fill="#333333" fill-opacity="1"><g transform="translate(227.348679, 337.0937)"><g/></g></g><g fill="#333333" fill-opacity="1"><g transform="translate(234.896088, 337.0937)"><g><path d="M 9.75 -8.859375 C 9.75 -7.816406 9.394531 -6.953125 8.6875 -6.265625 C 7.976562 -5.578125 6.890625 -5.234375 5.421875 -5.234375 L 3.015625 -5.234375 L 3.015625 0 L 1.390625 0 L 1.390625 -12.53125 L 5.421875 -12.53125 C 6.835938 -12.53125 7.910156 -12.1875 8.640625 -11.5 C 9.378906 -10.8125 9.75 -9.929688 9.75 -8.859375 Z M 5.421875 -6.578125 C 6.335938 -6.578125 7.007812 -6.773438 7.4375 -7.171875 C 7.863281 -7.566406 8.078125 -8.128906 8.078125 -8.859375 C 8.078125 -10.398438 7.191406 -11.171875 5.421875 -11.171875 L 3.015625 -11.171875 L 3.015625 -6.578125 Z M 5.421875 -6.578125 "/></g></g></g><g fill="#333333" fill-opacity="1"><g transform="translate(248.049199, 337.0937)"><g><path d="M 3.015625 -8.25 C 3.304688 -8.8125 3.71875 -9.25 4.25 -9.5625 C 4.78125 -9.875 5.429688 -10.03125 6.203125 -10.03125 L 6.203125 -8.34375 L 5.765625 -8.34375 C 3.929688 -8.34375 3.015625 -7.347656 3.015625 -5.359375 L 3.015625 0 L 1.390625 0 L 1.390625 -9.84375 L 3.015625 -9.84375 Z M 3.015625 -8.25 "/></g></g></g><g fill="#333333" fill-opacity="1"><g transform="translate(257.501106, 337.0937)"><g><path d="M 0.765625 -4.953125 C 0.765625 -5.960938 0.96875 -6.847656 1.375 -7.609375 C 1.789062 -8.367188 2.351562 -8.957031 3.0625 -9.375 C 3.769531 -9.800781 4.5625 -10.015625 5.4375 -10.015625 C 6.300781 -10.015625 7.050781 -9.828125 7.6875 -9.453125 C 8.320312 -9.078125 8.796875 -8.609375 9.109375 -8.046875 L 9.109375 -9.84375 L 10.765625 -9.84375 L 10.765625 0 L 9.109375 0 L 9.109375 -1.828125 C 8.785156 -1.253906 8.300781 -0.78125 7.65625 -0.40625 C 7.019531 -0.03125 6.273438 0.15625 5.421875 0.15625 C 4.546875 0.15625 3.753906 -0.0546875 3.046875 -0.484375 C 2.347656 -0.910156 1.789062 -1.515625 1.375 -2.296875 C 0.96875 -3.078125 0.765625 -3.960938 0.765625 -4.953125 Z M 9.109375 -4.9375 C 9.109375 -5.6875 8.957031 -6.332031 8.65625 -6.875 C 8.363281 -7.425781 7.960938 -7.847656 7.453125 -8.140625 C 6.941406 -8.441406 6.378906 -8.59375 5.765625 -8.59375 C 5.148438 -8.59375 4.59375 -8.445312 4.09375 -8.15625 C 3.59375 -7.863281 3.191406 -7.441406 2.890625 -6.890625 C 2.585938 -6.347656 2.4375 -5.703125 2.4375 -4.953125 C 2.4375 -4.203125 2.585938 -3.546875 2.890625 -2.984375 C 3.191406 -2.429688 3.59375 -2.007812 4.09375 -1.71875 C 4.59375 -1.425781 5.148438 -1.28125 5.765625 -1.28125 C 6.378906 -1.28125 6.941406 -1.425781 7.453125 -1.71875 C 7.960938 -2.007812 8.363281 -2.429688 8.65625 -2.984375 C 8.957031 -3.546875 9.109375 -4.195312 9.109375 -4.9375 Z M 9.109375 -4.9375 "/></g></g></g><g fill="#333333" fill-opacity="1"><g transform="translate(272.397037, 337.0937)"><g><path d="M 0.765625 -4.9375 C 0.765625 -5.957031 0.96875 -6.847656 1.375 -7.609375 C 1.789062 -8.367188 2.359375 -8.957031 3.078125 -9.375 C 3.804688 -9.800781 4.632812 -10.015625 5.5625 -10.015625 C 6.78125 -10.015625 7.78125 -9.71875 8.5625 -9.125 C 9.34375 -8.539062 9.859375 -7.726562 10.109375 -6.6875 L 8.359375 -6.6875 C 8.191406 -7.28125 7.863281 -7.75 7.375 -8.09375 C 6.882812 -8.445312 6.28125 -8.625 5.5625 -8.625 C 4.632812 -8.625 3.878906 -8.300781 3.296875 -7.65625 C 2.722656 -7.019531 2.4375 -6.113281 2.4375 -4.9375 C 2.4375 -3.75 2.722656 -2.832031 3.296875 -2.1875 C 3.878906 -1.539062 4.632812 -1.21875 5.5625 -1.21875 C 6.28125 -1.21875 6.878906 -1.382812 7.359375 -1.71875 C 7.835938 -2.0625 8.171875 -2.539062 8.359375 -3.15625 L 10.109375 -3.15625 C 9.847656 -2.15625 9.320312 -1.351562 8.53125 -0.75 C 7.738281 -0.144531 6.75 0.15625 5.5625 0.15625 C 4.632812 0.15625 3.804688 -0.0507812 3.078125 -0.46875 C 2.359375 -0.882812 1.789062 -1.472656 1.375 -2.234375 C 0.96875 -3.003906 0.765625 -3.90625 0.765625 -4.9375 Z M 0.765625 -4.9375 "/></g></g></g><g fill="#333333" fill-opacity="1"><g transform="translate(286.053232, 337.0937)"><g><path d="M 3.375 -8.5 L 3.375 -2.6875 C 3.375 -2.207031 3.472656 -1.867188 3.671875 -1.671875 C 3.878906 -1.484375 4.238281 -1.390625 4.75 -1.390625 L 5.953125 -1.390625 L 5.953125 0 L 4.46875 0 C 3.5625 0 2.878906 -0.207031 2.421875 -0.625 C 1.972656 -1.039062 1.75 -1.726562 1.75 -2.6875 L 1.75 -8.5 L 0.46875 -8.5 L 0.46875 -9.84375 L 1.75 -9.84375 L 1.75 -12.328125 L 3.375 -12.328125 L 3.375 -9.84375 L 5.953125 -9.84375 L 5.953125 -8.5 Z M 3.375 -8.5 "/></g></g></g><g fill="#333333" fill-opacity="1"><g transform="translate(295.343438, 337.0937)"><g><path d="M 2.234375 -11.453125 C 1.921875 -11.453125 1.65625 -11.554688 1.4375 -11.765625 C 1.21875 -11.984375 1.109375 -12.25 1.109375 -12.5625 C 1.109375 -12.875 1.21875 -13.132812 1.4375 -13.34375 C 1.65625 -13.5625 1.921875 -13.671875 2.234375 -13.671875 C 2.523438 -13.671875 2.773438 -13.5625 2.984375 -13.34375 C 3.203125 -13.132812 3.3125 -12.875 3.3125 -12.5625 C 3.3125 -12.25 3.203125 -11.984375 2.984375 -11.765625 C 2.773438 -11.554688 2.523438 -11.453125 2.234375 -11.453125 Z M 3.015625 -9.84375 L 3.015625 0 L 1.390625 0 L 1.390625 -9.84375 Z M 3.015625 -9.84375 "/></g></g></g><g fill="#333333" fill-opacity="1"><g transform="translate(302.513537, 337.0937)"><g><path d="M 0.765625 -4.9375 C 0.765625 -5.957031 0.96875 -6.847656 1.375 -7.609375 C 1.789062 -8.367188 2.359375 -8.957031 3.078125 -9.375 C 3.804688 -9.800781 4.632812 -10.015625 5.5625 -10.015625 C 6.78125 -10.015625 7.78125 -9.71875 8.5625 -9.125 C 9.34375 -8.539062 9.859375 -7.726562 10.109375 -6.6875 L 8.359375 -6.6875 C 8.191406 -7.28125 7.863281 -7.75 7.375 -8.09375 C 6.882812 -8.445312 6.28125 -8.625 5.5625 -8.625 C 4.632812 -8.625 3.878906 -8.300781 3.296875 -7.65625 C 2.722656 -7.019531 2.4375 -6.113281 2.4375 -4.9375 C 2.4375 -3.75 2.722656 -2.832031 3.296875 -2.1875 C 3.878906 -1.539062 4.632812 -1.21875 5.5625 -1.21875 C 6.28125 -1.21875 6.878906 -1.382812 7.359375 -1.71875 C 7.835938 -2.0625 8.171875 -2.539062 8.359375 -3.15625 L 10.109375 -3.15625 C 9.847656 -2.15625 9.320312 -1.351562 8.53125 -0.75 C 7.738281 -0.144531 6.75 0.15625 5.5625 0.15625 C 4.632812 0.15625 3.804688 -0.0507812 3.078125 -0.46875 C 2.359375 -0.882812 1.789062 -1.472656 1.375 -2.234375 C 0.96875 -3.003906 0.765625 -3.90625 0.765625 -4.9375 Z M 0.765625 -4.9375 "/></g></g></g><g fill="#333333" fill-opacity="1"><g transform="translate(316.169732, 337.0937)"><g><path d="M 10.375 -5.296875 C 10.375 -4.984375 10.351562 -4.65625 10.3125 -4.3125 L 2.4375 -4.3125 C 2.5 -3.34375 2.832031 -2.582031 3.4375 -2.03125 C 4.039062 -1.488281 4.773438 -1.21875 5.640625 -1.21875 C 6.347656 -1.21875 6.9375 -1.378906 7.40625 -1.703125 C 7.882812 -2.035156 8.21875 -2.476562 8.40625 -3.03125 L 10.171875 -3.03125 C 9.910156 -2.082031 9.382812 -1.3125 8.59375 -0.71875 C 7.800781 -0.132812 6.816406 0.15625 5.640625 0.15625 C 4.703125 0.15625 3.863281 -0.0507812 3.125 -0.46875 C 2.394531 -0.882812 1.816406 -1.476562 1.390625 -2.25 C 0.972656 -3.019531 0.765625 -3.914062 0.765625 -4.9375 C 0.765625 -5.957031 0.96875 -6.847656 1.375 -7.609375 C 1.789062 -8.378906 2.363281 -8.972656 3.09375 -9.390625 C 3.832031 -9.804688 4.679688 -10.015625 5.640625 -10.015625 C 6.578125 -10.015625 7.40625 -9.804688 8.125 -9.390625 C 8.84375 -8.984375 9.394531 -8.421875 9.78125 -7.703125 C 10.175781 -6.992188 10.375 -6.191406 10.375 -5.296875 Z M 8.671875 -5.640625 C 8.671875 -6.265625 8.535156 -6.800781 8.265625 -7.25 C 7.992188 -7.695312 7.617188 -8.035156 7.140625 -8.265625 C 6.671875 -8.503906 6.144531 -8.625 5.5625 -8.625 C 4.738281 -8.625 4.035156 -8.359375 3.453125 -7.828125 C 2.878906 -7.304688 2.550781 -6.578125 2.46875 -5.640625 Z M 8.671875 -5.640625 "/></g></g></g></svg>