<svg xmlns="http://www.w3.org/2000/svg" xmlns:xlink="http://www.w3.org/1999/xlink" width="500" zoomAndPan="magnify" viewBox="0 0 375 374.999991" height="500" preserveAspectRatio="xMidYMid meet" version="1.0"><defs><g/><clipPath id="380517a22e"><path d="M 131.421875 82.195312 L 216.171875 82.195312 L 216.171875 190.195312 L 131.421875 190.195312 Z M 131.421875 82.195312 " clip-rule="nonzero"/></clipPath><clipPath id="2f6db22694"><path d="M 151 82.195312 L 216.171875 82.195312 L 216.171875 148 L 151 148 Z M 151 82.195312 " clip-rule="nonzero"/></clipPath><clipPath id="32567894bb"><path d="M 158.550781 109.847656 L 243.300781 109.847656 L 243.300781 217.847656 L 158.550781 217.847656 Z M 158.550781 109.847656 " clip-rule="nonzero"/></clipPath><clipPath id="829a513a05"><path d="M 178 109.847656 L 243.300781 109.847656 L 243.300781 176 L 178 176 Z M 178 109.847656 " clip-rule="nonzero"/></clipPath></defs><g clip-path="url(#380517a22e)"><path stroke-linecap="butt" transform="matrix(1.506484, 0, 0, 1.514726, 131.615122, 82.195351)" fill="none" stroke-linejoin="miter" d="M 55.000619 14.799988 L 55.000619 67.901063 C 55.000619 69.200803 53.901204 70.299392 52.599539 70.299392 L 3.40074 70.299392 C 2.099075 70.299392 0.99966 69.200803 0.99966 67.901063 L 0.99966 3.398898 C 0.99966 2.099158 2.099075 1.000568 3.40074 1.000568 L 41.200892 1.000568 Z M 55.000619 14.799988 " stroke="#000000" stroke-width="2" stroke-opacity="1" stroke-miterlimit="10"/></g><g clip-path="url(#2f6db22694)"><path stroke-linecap="butt" transform="matrix(1.506484, 0, 0, 1.514726, 131.615122, 82.195351)" fill="none" stroke-linejoin="miter" d="M 41.299425 1.000568 L 41.299425 13.69882 C 41.299425 14.299691 41.799866 14.799988 42.398839 14.799988 L 55.000619 14.799988 " stroke="#000000" stroke-width="2" stroke-opacity="1" stroke-miterlimit="10"/></g><g clip-path="url(#32567894bb)"><path stroke-linecap="butt" transform="matrix(1.506484, 0, 0, 1.514726, 158.742827, 109.848559)" fill="none" stroke-linejoin="miter" d="M 54.998823 14.799417 L 54.998823 67.900492 C 54.998823 69.200232 53.899409 70.298821 52.600337 70.298821 L 3.398944 70.298821 C 2.099872 70.298821 1.000458 69.200232 1.000458 67.900492 L 1.000458 3.400905 C 1.000458 2.101166 2.099872 0.999997 3.398944 0.999997 L 41.199097 0.999997 Z M 54.998823 14.799417 " stroke="#000000" stroke-width="2" stroke-opacity="1" stroke-miterlimit="10"/></g><g clip-path="url(#829a513a05)"><path stroke-linecap="butt" transform="matrix(1.506484, 0, 0, 1.514726, 158.742827, 109.848559)" fill="none" stroke-linejoin="miter" d="M 41.300222 0.999997 L 41.300222 13.700827 C 41.300222 14.29912 41.800663 14.799417 42.399637 14.799417 L 54.998823 14.799417 " stroke="#000000" stroke-width="2" stroke-opacity="1" stroke-miterlimit="10"/></g><g fill="#000000" fill-opacity="1"><g transform="translate(102.651962, 278.821025)"><g><path d="M 20.640625 -0.234375 C 20.640625 1.265625 20.378906 2.597656 19.859375 3.765625 C 19.347656 4.929688 18.628906 5.921875 17.703125 6.734375 C 16.773438 7.546875 15.679688 8.164062 14.421875 8.59375 C 13.171875 9.019531 11.773438 9.234375 10.234375 9.234375 C 8.066406 9.234375 6.222656 8.828125 4.703125 8.015625 C 3.191406 7.203125 1.878906 6.035156 0.765625 4.515625 L 3.015625 2.78125 C 3.679688 3.789062 4.644531 4.640625 5.90625 5.328125 C 7.175781 6.015625 8.617188 6.359375 10.234375 6.359375 C 12.441406 6.359375 14.1875 5.800781 15.46875 4.6875 C 16.757812 3.570312 17.40625 1.960938 17.40625 -0.140625 L 17.40625 -2.484375 C 15.507812 -0.796875 13.34375 0.046875 10.90625 0.046875 C 7.5 0.046875 4.820312 -0.925781 2.875 -2.875 C 0.925781 -4.820312 -0.046875 -7.484375 -0.046875 -10.859375 C -0.046875 -12.515625 0.203125 -14.039062 0.703125 -15.4375 C 1.210938 -16.832031 1.9375 -18.039062 2.875 -19.0625 C 3.820312 -20.082031 4.972656 -20.875 6.328125 -21.4375 C 7.679688 -22.007812 9.207031 -22.296875 10.90625 -22.296875 C 12.09375 -22.296875 13.242188 -22.085938 14.359375 -21.671875 C 15.472656 -21.265625 16.488281 -20.644531 17.40625 -19.8125 L 17.40625 -21.78125 L 20.640625 -21.78125 Z M 17.40625 -16.703125 C 16.488281 -17.722656 15.476562 -18.457031 14.375 -18.90625 C 13.28125 -19.351562 12.125 -19.578125 10.90625 -19.578125 C 9.632812 -19.578125 8.507812 -19.351562 7.53125 -18.90625 C 6.5625 -18.457031 5.753906 -17.84375 5.109375 -17.0625 C 4.472656 -16.28125 3.988281 -15.351562 3.65625 -14.28125 C 3.320312 -13.21875 3.15625 -12.078125 3.15625 -10.859375 C 3.15625 -8.367188 3.800781 -6.382812 5.09375 -4.90625 C 6.382812 -3.425781 8.320312 -2.6875 10.90625 -2.6875 C 12.125 -2.6875 13.28125 -2.914062 14.375 -3.375 C 15.476562 -3.832031 16.488281 -4.578125 17.40625 -5.609375 Z M 17.40625 -16.703125 "/></g></g></g><g fill="#000000" fill-opacity="1"><g transform="translate(131.358313, 278.821025)"><g><path d="M -0.046875 -5.890625 C -0.046875 -7.265625 0.296875 -8.410156 0.984375 -9.328125 C 1.671875 -10.253906 2.566406 -10.988281 3.671875 -11.53125 C 4.785156 -12.070312 6.0625 -12.460938 7.5 -12.703125 C 8.945312 -12.941406 10.421875 -13.0625 11.921875 -13.0625 C 12.492188 -13.0625 13.007812 -13.050781 13.46875 -13.03125 C 13.925781 -13.019531 14.363281 -13 14.78125 -12.96875 C 15.195312 -12.9375 15.613281 -12.894531 16.03125 -12.84375 C 16.445312 -12.800781 16.90625 -12.75 17.40625 -12.6875 L 17.40625 -14.25 C 17.40625 -15.3125 17.175781 -16.1875 16.71875 -16.875 C 16.257812 -17.5625 15.691406 -18.101562 15.015625 -18.5 C 14.347656 -18.894531 13.648438 -19.171875 12.921875 -19.328125 C 12.191406 -19.492188 11.566406 -19.578125 11.046875 -19.578125 C 9.429688 -19.578125 7.9375 -19.359375 6.5625 -18.921875 C 5.195312 -18.492188 3.921875 -17.910156 2.734375 -17.171875 L 1.28125 -19.578125 C 2.59375 -20.378906 4.0625 -21.03125 5.6875 -21.53125 C 7.3125 -22.039062 9.097656 -22.296875 11.046875 -22.296875 C 12.234375 -22.296875 13.398438 -22.140625 14.546875 -21.828125 C 15.691406 -21.523438 16.71875 -21.054688 17.625 -20.421875 C 18.539062 -19.796875 19.269531 -18.96875 19.8125 -17.9375 C 20.363281 -16.914062 20.640625 -15.6875 20.640625 -14.25 L 20.640625 0 L 17.40625 0 L 17.40625 -3.640625 C 16.84375 -2.941406 16.207031 -2.328125 15.5 -1.796875 C 14.789062 -1.265625 14.046875 -0.832031 13.265625 -0.5 C 12.492188 -0.164062 11.71875 0.0859375 10.9375 0.265625 C 10.15625 0.441406 9.414062 0.53125 8.71875 0.53125 C 5.832031 0.53125 3.648438 -0.0195312 2.171875 -1.125 C 0.691406 -2.226562 -0.046875 -3.816406 -0.046875 -5.890625 Z M 8.71875 -2.203125 C 10.050781 -2.203125 11.25 -2.398438 12.3125 -2.796875 C 13.382812 -3.191406 14.296875 -3.6875 15.046875 -4.28125 C 15.796875 -4.875 16.375 -5.503906 16.78125 -6.171875 C 17.195312 -6.835938 17.40625 -7.441406 17.40625 -7.984375 L 17.40625 -10.046875 C 16.363281 -10.203125 15.363281 -10.285156 14.40625 -10.296875 C 13.445312 -10.316406 12.617188 -10.328125 11.921875 -10.328125 C 10.765625 -10.328125 9.648438 -10.25 8.578125 -10.09375 C 7.515625 -9.9375 6.585938 -9.679688 5.796875 -9.328125 C 5.003906 -8.984375 4.363281 -8.53125 3.875 -7.96875 C 3.394531 -7.40625 3.15625 -6.710938 3.15625 -5.890625 C 3.15625 -4.972656 3.601562 -4.128906 4.5 -3.359375 C 5.394531 -2.585938 6.800781 -2.203125 8.71875 -2.203125 Z M 8.71875 -2.203125 "/></g></g></g><g fill="#000000" fill-opacity="1"><g transform="translate(160.064663, 278.821025)"><g><path d="M 17.40625 8.71875 L 8.71875 8.71875 L 8.71875 -34.84375 L 17.40625 -34.84375 L 17.40625 -32.25 L 11.28125 -32.25 L 11.28125 6.078125 L 17.40625 6.078125 Z M 17.40625 8.71875 "/></g></g></g><g fill="#000000" fill-opacity="1"><g transform="translate(188.771016, 278.821025)"><g><path d="M 13.0625 8.71875 L 4.34375 8.71875 L 4.34375 6.078125 L 10.5 6.078125 L 10.5 -32.25 L 4.34375 -32.25 L 4.34375 -34.84375 L 13.0625 -34.84375 Z M 13.0625 8.71875 "/></g></g></g><g fill="#000000" fill-opacity="1"><g transform="translate(217.477364, 278.821025)"><g><path d="M 3.203125 -9.765625 C 3.429688 -7.460938 4.269531 -5.625 5.71875 -4.25 C 7.175781 -2.882812 9.0625 -2.203125 11.375 -2.203125 C 13.007812 -2.203125 14.46875 -2.535156 15.75 -3.203125 C 17.03125 -3.867188 17.988281 -4.703125 18.625 -5.703125 L 20.875 -4.15625 C 19.78125 -2.632812 18.476562 -1.472656 16.96875 -0.671875 C 15.457031 0.128906 13.59375 0.53125 11.375 0.53125 C 9.695312 0.53125 8.15625 0.253906 6.75 -0.296875 C 5.351562 -0.859375 4.144531 -1.640625 3.125 -2.640625 C 2.101562 -3.648438 1.3125 -4.847656 0.75 -6.234375 C 0.1875 -7.617188 -0.09375 -9.160156 -0.09375 -10.859375 C -0.09375 -12.515625 0.15625 -14.039062 0.65625 -15.4375 C 1.164062 -16.832031 1.898438 -18.039062 2.859375 -19.0625 C 3.816406 -20.082031 4.976562 -20.875 6.34375 -21.4375 C 7.71875 -22.007812 9.253906 -22.296875 10.953125 -22.296875 C 12.804688 -22.296875 14.425781 -21.984375 15.8125 -21.359375 C 17.207031 -20.734375 18.367188 -19.867188 19.296875 -18.765625 C 20.222656 -17.671875 20.90625 -16.359375 21.34375 -14.828125 C 21.789062 -13.304688 22.015625 -11.617188 22.015625 -9.765625 Z M 18.625 -12.5 C 18.269531 -14.882812 17.40625 -16.660156 16.03125 -17.828125 C 14.65625 -18.992188 12.960938 -19.578125 10.953125 -19.578125 C 9.929688 -19.578125 8.984375 -19.410156 8.109375 -19.078125 C 7.234375 -18.742188 6.460938 -18.265625 5.796875 -17.640625 C 5.128906 -17.015625 4.566406 -16.257812 4.109375 -15.375 C 3.660156 -14.5 3.375 -13.539062 3.25 -12.5 Z M 18.625 -12.5 "/></g></g></g><g fill="#000000" fill-opacity="1"><g transform="translate(246.183712, 278.821025)"><g><path d="M 21.78125 -10.859375 C 21.78125 -9.160156 21.515625 -7.617188 20.984375 -6.234375 C 20.453125 -4.847656 19.707031 -3.648438 18.75 -2.640625 C 17.789062 -1.640625 16.632812 -0.859375 15.28125 -0.296875 C 13.925781 0.253906 12.40625 0.53125 10.71875 0.53125 C 9.570312 0.53125 8.457031 0.320312 7.375 -0.09375 C 6.289062 -0.507812 5.28125 -1.132812 4.34375 -1.96875 L 4.34375 8.71875 L 1.140625 8.71875 L 1.140625 -21.78125 L 4.34375 -21.78125 L 4.34375 -19.765625 C 6.320312 -21.453125 8.445312 -22.296875 10.71875 -22.296875 C 12.40625 -22.296875 13.925781 -22.019531 15.28125 -21.46875 C 16.632812 -20.914062 17.789062 -20.128906 18.75 -19.109375 C 19.707031 -18.085938 20.453125 -16.867188 20.984375 -15.453125 C 21.515625 -14.046875 21.78125 -12.515625 21.78125 -10.859375 Z M 18.578125 -10.859375 C 18.578125 -12.078125 18.410156 -13.21875 18.078125 -14.28125 C 17.742188 -15.351562 17.238281 -16.28125 16.5625 -17.0625 C 15.894531 -17.84375 15.070312 -18.457031 14.09375 -18.90625 C 13.125 -19.351562 12 -19.578125 10.71875 -19.578125 C 9.507812 -19.578125 8.378906 -19.351562 7.328125 -18.90625 C 6.273438 -18.457031 5.28125 -17.722656 4.34375 -16.703125 L 4.34375 -5.03125 C 5.28125 -4.007812 6.273438 -3.28125 7.328125 -2.84375 C 8.378906 -2.414062 9.507812 -2.203125 10.71875 -2.203125 C 12 -2.203125 13.125 -2.425781 14.09375 -2.875 C 15.070312 -3.320312 15.894531 -3.9375 16.5625 -4.71875 C 17.238281 -5.5 17.742188 -6.414062 18.078125 -7.46875 C 18.410156 -8.519531 18.578125 -9.648438 18.578125 -10.859375 Z M 18.578125 -10.859375 "/></g></g></g></svg>